<?xml version="1.0" encoding="utf-8"?>
<!-- Generator: Adobe Illustrator 16.0.0, SVG Export Plug-In . SVG Version: 6.00 Build 0)  -->
<!DOCTYPE svg PUBLIC "-//W3C//DTD SVG 1.1//EN" "http://www.w3.org/Graphics/SVG/1.1/DTD/svg11.dtd">
<svg version="1.1" id="Layer_1" xmlns="http://www.w3.org/2000/svg" xmlns:xlink="http://www.w3.org/1999/xlink" x="0px" y="0px"
	 width="70px" height="70px" viewBox="0 0 70 70" enable-background="new 0 0 70 70" xml:space="preserve">
<g>
	<g>
		<path fill="#FFFFFF" d="M35,70c-9.349,0-18.138-3.641-24.749-10.252C3.641,53.139,0,44.349,0,35s3.641-18.139,10.251-24.748
			C16.862,3.641,25.651,0,35,0c9.349,0,18.138,3.641,24.749,10.252C66.359,16.861,70,25.651,70,35s-3.641,18.139-10.251,24.748
			C53.138,66.359,44.349,70,35,70z M35,1.258c-9.013,0-17.486,3.51-23.859,9.883S1.258,25.987,1.258,35s3.51,17.486,9.883,23.859
			S25.987,68.742,35,68.742s17.486-3.51,23.859-9.883S68.742,44.013,68.742,35s-3.51-17.486-9.883-23.859S44.013,1.258,35,1.258z"/>
	</g>
	<g>
		<path fill="#FFFFFF" d="M35,46.598c-0.103,0-0.206-0.035-0.29-0.104L16.831,31.76c-0.194-0.16-0.222-0.447-0.062-0.641
			c0.16-0.194,0.447-0.222,0.641-0.062L35,45.553l17.59-14.496c0.194-0.159,0.481-0.132,0.641,0.062
			c0.16,0.193,0.133,0.48-0.062,0.641L35.29,46.494C35.206,46.562,35.103,46.598,35,46.598z"/>
	</g>
</g>
</svg>
