<?xml version="1.0" encoding="utf-8"?>
<!-- Generator: Adobe Illustrator 16.0.0, SVG Export Plug-In . SVG Version: 6.00 Build 0)  -->
<!DOCTYPE svg PUBLIC "-//W3C//DTD SVG 1.1//EN" "http://www.w3.org/Graphics/SVG/1.1/DTD/svg11.dtd">
<svg version="1.1" id="Layer_1" xmlns="http://www.w3.org/2000/svg" xmlns:xlink="http://www.w3.org/1999/xlink" x="0px" y="0px"
	 width="260px" height="568px" viewBox="0 0 260 568" enable-background="new 0 0 260 568" xml:space="preserve">
<path fill="#FFFFFF" d="M240,0H20C9,0,0,9,0,20v528c0,11,9,20,20,20h220c11,0,20-9,20-20V20C260,9,251,0,240,0z M246,553.6H14.7
	V14.7H246V553.6z"/>
<rect x="11.5" y="10.4" fill="none" stroke="#FFFFFF" stroke-width="0.2582" stroke-miterlimit="10" width="39.5" height="544.8"/>
<rect x="50.7" y="10.4" fill="none" stroke="#FFFFFF" stroke-width="0.2582" stroke-miterlimit="10" width="39.5" height="544.8"/>
<rect x="90.6" y="10.4" fill="none" stroke="#FFFFFF" stroke-width="0.2582" stroke-miterlimit="10" width="39.9" height="544.8"/>
<rect x="130.1" y="10.4" fill="none" stroke="#FFFFFF" stroke-width="0.2582" stroke-miterlimit="10" width="39.5" height="544.8"/>
<rect x="169.3" y="10.4" fill="none" stroke="#FFFFFF" stroke-width="0.2582" stroke-miterlimit="10" width="39.5" height="544.8"/>
<rect x="208.5" y="10.4" fill="none" stroke="#FFFFFF" stroke-width="0.2582" stroke-miterlimit="10" width="42.6" height="544.8"/>
<rect x="11.5" y="13.6" fill="none" stroke="#FFFFFF" stroke-width="0.2567" stroke-miterlimit="10" width="236.5" height="45.3"/>
<rect x="11.5" y="58.6" fill="none" stroke="#FFFFFF" stroke-width="0.2567" stroke-miterlimit="10" width="236.5" height="45.3"/>
<rect x="11.5" y="103.5" fill="none" stroke="#FFFFFF" stroke-width="0.2567" stroke-miterlimit="10" width="240.2" height="45.3"/>
<rect x="11.5" y="148.4" fill="none" stroke="#FFFFFF" stroke-width="0.2567" stroke-miterlimit="10" width="240.2" height="45.3"/>
<rect x="11.5" y="193.3" fill="none" stroke="#FFFFFF" stroke-width="0.2567" stroke-miterlimit="10" width="240.2" height="45.3"/>
<rect x="11.5" y="238.3" fill="none" stroke="#FFFFFF" stroke-width="0.2567" stroke-miterlimit="10" width="240.2" height="45.3"/>
<rect x="11.5" y="283.2" fill="none" stroke="#FFFFFF" stroke-width="0.2567" stroke-miterlimit="10" width="240.2" height="45.3"/>
<rect x="11.5" y="328.1" fill="none" stroke="#FFFFFF" stroke-width="0.2567" stroke-miterlimit="10" width="240.2" height="45.3"/>
<rect x="11.5" y="373" fill="none" stroke="#FFFFFF" stroke-width="0.2567" stroke-miterlimit="10" width="240.2" height="45.3"/>
<rect x="11.5" y="418" fill="none" stroke="#FFFFFF" stroke-width="0.2567" stroke-miterlimit="10" width="240.2" height="45.3"/>
<rect x="11.5" y="462.9" fill="none" stroke="#FFFFFF" stroke-width="0.2567" stroke-miterlimit="10" width="242.1" height="45.3"/>
<rect x="11.5" y="508.3" fill="none" stroke="#FFFFFF" stroke-width="0.2567" stroke-miterlimit="10" width="242.1" height="48.7"/>
</svg>
