<?xml version="1.0" encoding="utf-8"?>
<!-- Generator: Adobe Illustrator 16.0.0, SVG Export Plug-In . SVG Version: 6.00 Build 0)  -->
<!DOCTYPE svg PUBLIC "-//W3C//DTD SVG 1.1//EN" "http://www.w3.org/Graphics/SVG/1.1/DTD/svg11.dtd">
<svg version="1.1" id="Layer_1" xmlns="http://www.w3.org/2000/svg" xmlns:xlink="http://www.w3.org/1999/xlink" x="0px" y="0px"
	 width="208.7px" height="390px" viewBox="0 0 208.7 390" enable-background="new 0 0 208.7 390" xml:space="preserve">
<g>
	<path fill="none" stroke="#00AEEF" stroke-width="2.7402" stroke-miterlimit="10" d="M1,259.6c34.3,0,34.3,91.3,68.5,91.3
		c34.3,0,34.3-91.3,68.5-91.3c34.3,0,34.3,91.3,68.5,91.3"/>
	<path fill="none" stroke="#00AEEF" stroke-width="2.7402" stroke-miterlimit="10" d="M206.6,259.6c-34.3,0-34.3,75.3-68.5,75.3
		c-34.3,0-34.3-27.1-68.5-27.1c-34.3,0-34.3,43.1-68.5,43.1"/>
	<path fill="none" stroke="#00AEEF" stroke-width="2.7402" stroke-miterlimit="10" d="M206.6,334.9c-34.3,0-34.3-59.2-68.5-59.2
		c-34.3,0-34.3,51.2-68.5,51.2c-34.3,0-34.3-35.1-68.5-35.1"/>
	<line fill="none" stroke="#FFFFFF" stroke-width="0.9728" stroke-miterlimit="10" x1="9.9" y1="233.7" x2="208" y2="233.7"/>
</g>
<path fill="#FFFFFF" d="M208.7,366.4V23.6c0-13-10.6-23.6-23.6-23.6H23.6C10.6,0,0,10.6,0,23.6v342.8c0,13,10.6,23.6,23.6,23.6
	h161.5C198.1,390,208.7,379.4,208.7,366.4z M14.6,375.3l0.2-360.7h179.5L194,375.3H14.6z"/>
</svg>
