<?xml version="1.0" encoding="utf-8"?>
<!-- Generator: Adobe Illustrator 16.0.0, SVG Export Plug-In . SVG Version: 6.00 Build 0)  -->
<!DOCTYPE svg PUBLIC "-//W3C//DTD SVG 1.1//EN" "http://www.w3.org/Graphics/SVG/1.1/DTD/svg11.dtd">
<svg version="1.1" id="Layer_1" xmlns="http://www.w3.org/2000/svg" xmlns:xlink="http://www.w3.org/1999/xlink" x="0px" y="0px"
	 width="260px" height="568px" viewBox="0 0 260 568" enable-background="new 0 0 260 568" xml:space="preserve">
<g>
	<path fill="#FFFFFF" d="M240,0H20C8.954,0,0,8.954,0,20v528c0,11.046,8.954,20,20,20h220c11.046,0,20-8.954,20-20V20
		C260,8.954,251.046,0,240,0z M246,544.912H14.669V20.664H246V544.912z"/>
	
		<rect x="14.669" y="20.664" fill="none" stroke="#FFFFFF" stroke-width="0.25" stroke-miterlimit="10" width="38.504" height="524.336"/>
	
		<rect x="52.822" y="20.664" fill="none" stroke="#FFFFFF" stroke-width="0.25" stroke-miterlimit="10" width="38.504" height="524.336"/>
	
		<rect x="91.66" y="20.664" fill="none" stroke="#FFFFFF" stroke-width="0.25" stroke-miterlimit="10" width="38.88" height="524.336"/>
	
		<rect x="130.189" y="20.664" fill="none" stroke="#FFFFFF" stroke-width="0.25" stroke-miterlimit="10" width="38.504" height="524.336"/>
	
		<rect x="168.343" y="20.664" fill="none" stroke="#FFFFFF" stroke-width="0.25" stroke-miterlimit="10" width="38.504" height="524.336"/>
	
		<rect x="206.496" y="20.664" fill="none" stroke="#FFFFFF" stroke-width="0.25" stroke-miterlimit="10" width="41.504" height="524.336"/>
	
		<rect x="14.669" y="20.664" fill="none" stroke="#FFFFFF" stroke-width="0.25" stroke-miterlimit="10" width="230.331" height="44.103"/>
	
		<rect x="14.669" y="64.416" fill="none" stroke="#FFFFFF" stroke-width="0.25" stroke-miterlimit="10" width="230.331" height="44.103"/>
	
		<rect x="14.669" y="108.169" fill="none" stroke="#FFFFFF" stroke-width="0.25" stroke-miterlimit="10" width="233.971" height="44.102"/>
	
		<rect x="14.669" y="151.921" fill="none" stroke="#FFFFFF" stroke-width="0.25" stroke-miterlimit="10" width="233.971" height="44.103"/>
	
		<rect x="14.669" y="195.673" fill="none" stroke="#FFFFFF" stroke-width="0.25" stroke-miterlimit="10" width="233.971" height="44.103"/>
	
		<rect x="14.669" y="239.426" fill="none" stroke="#FFFFFF" stroke-width="0.25" stroke-miterlimit="10" width="233.971" height="44.102"/>
	
		<rect x="14.669" y="283.178" fill="none" stroke="#FFFFFF" stroke-width="0.25" stroke-miterlimit="10" width="233.971" height="44.103"/>
	
		<rect x="14.669" y="326.93" fill="none" stroke="#FFFFFF" stroke-width="0.25" stroke-miterlimit="10" width="233.971" height="44.103"/>
	
		<rect x="14.669" y="370.683" fill="none" stroke="#FFFFFF" stroke-width="0.25" stroke-miterlimit="10" width="233.971" height="44.103"/>
	
		<rect x="14.669" y="414.435" fill="none" stroke="#FFFFFF" stroke-width="0.25" stroke-miterlimit="10" width="233.971" height="44.103"/>
	
		<rect x="14.669" y="458.188" fill="none" stroke="#FFFFFF" stroke-width="0.25" stroke-miterlimit="10" width="235.748" height="44.102"/>
	
		<rect x="14.669" y="502.397" fill="none" stroke="#FFFFFF" stroke-width="0.25" stroke-miterlimit="10" width="235.748" height="42.603"/>
</g>
</svg>
