<?xml version="1.0" encoding="utf-8"?>
<!-- Generator: Adobe Illustrator 16.0.0, SVG Export Plug-In . SVG Version: 6.00 Build 0)  -->
<!DOCTYPE svg PUBLIC "-//W3C//DTD SVG 1.1//EN" "http://www.w3.org/Graphics/SVG/1.1/DTD/svg11.dtd">
<svg version="1.1" id="Layer_1" xmlns="http://www.w3.org/2000/svg" xmlns:xlink="http://www.w3.org/1999/xlink" x="0px" y="0px"
	 width="220px" height="399px" viewBox="0 0 220 399" enable-background="new 0 0 220 399" xml:space="preserve">
<path fill="none" stroke="#00AEEF" stroke-width="2.8169" stroke-miterlimit="10" d="M1.499,265.17
	c35.396,0,35.396,93.447,70.792,93.447c35.397,0,35.397-93.447,70.795-93.447s35.398,93.447,70.795,93.447"/>
<path fill="none" stroke="#00AEEF" stroke-width="2.8169" stroke-miterlimit="10" d="M213.881,265.17
	c-35.396,0-35.396,77.008-70.792,77.008c-35.398,0-35.398-27.689-70.795-27.689c-35.398,0-35.398,44.129-70.795,44.129"/>
<path fill="none" stroke="#00AEEF" stroke-width="2.8169" stroke-miterlimit="10" d="M213.881,342.178
	c-35.396,0-35.396-60.568-70.792-60.568c-35.398,0-35.398,52.35-70.795,52.35c-35.398,0-35.398-35.91-70.795-35.91"/>
<path fill="#FFFFFF" d="M200,0H20C8.954,0,0,8.954,0,20v359c0,11.046,8.954,20,20,20h180c11.046,0,20-8.954,20-20V20
	C220,8.954,211.046,0,200,0z M206,375.912H14.669V20.664H206V375.912z"/>
<line fill="none" stroke="#FFFFFF" stroke-miterlimit="10" x1="10.705" y1="238.677" x2="215.372" y2="238.677"/>
</svg>
