<?xml version="1.0" encoding="utf-8"?>
<!-- Generator: Adobe Illustrator 16.0.0, SVG Export Plug-In . SVG Version: 6.00 Build 0)  -->
<!DOCTYPE svg PUBLIC "-//W3C//DTD SVG 1.1//EN" "http://www.w3.org/Graphics/SVG/1.1/DTD/svg11.dtd">
<svg version="1.1" id="Layer_1" xmlns="http://www.w3.org/2000/svg" xmlns:xlink="http://www.w3.org/1999/xlink" x="0px" y="0px"
	 width="170.287px" height="470.001px" viewBox="0 0 170.287 470.001" enable-background="new 0 0 170.287 470.001"
	 xml:space="preserve">
<path fill="#79D0F1" d="M47.977,461.205c0,0-2.156,5.237,1.539,5.852c0,0,0.618,2.155,3.39,0.924c0,0,1.538,1.231,4.312,0
	c0,0,3.388,1.541,5.854-0.308c0,0,5.85,6.467,8.931-2.157c0,0,0.616-15.398,0.616-20.635c0,0,1.231-9.856-1.849-12.32
	c0,0-2.465-26.488,1.541-37.577c0,0,6.16-13.862-1.541-37.886c0,0-1.065-10.087,1.541-16.328c1.84-4.405,2.773-10.163,3.388-18.789
	c0,0,4.929-30.492,5.236-41.889c0,0,3.08-19.404,2.772-25.256c0,0,3.079,0.615,4.312,0c0,0-3.39,8.315,4.004,53.594
	c0,0,3.267,15.896,4.312,21.252c0.976,4.994,1.231,12.322,3.695,20.022c0,0-1.848,8.932-3.388,19.097
	c-1.294,8.549-1.432,6.496,2.465,34.496c1.112,8.011,1.538,19.406-0.618,32.342c0,0-2.154,6.162-0.923,18.481
	c0,0-2.772,14.168,3.695,15.401c0,0,4.621,2.156,4.312-3.695c0,0,2.772,4.312,6.16,1.538c0,0,3.082,2.773,4.929-0.615
	c0,0,3.698,0.308,4.313-1.849c0,0,3.233-0.308,0.923-4.929c-1.004-2.006-3.705-1.136-5.082-7.39
	c-0.752-3.412,0.307-7.548-1.693-13.86c0,0-0.926-10.936,0-16.325c0,0,5.853-25.104,8.933-34.96c0,0,4.928-14.169-0.463-37.732
	c0,0-2.002-11.396,1.232-25.256c0,0,4.466-25.875,5.081-40.196c0,0,0.462-36.192-0.769-51.594c0,0-0.924-20.481-6.469-36.347
	c0,0-0.771-5.544,0-10.315c0,0,0.463-17.402-0.309-26.027c0,0,3.233-22.794,5.697-22.486c0,0,3.544,20.021,6.163,28.339
	c0,0-0.618,22.331,5.852,39.578c0,0,4.621,10.934,4.774,16.633c0,0-2.928,18.942-2.156,29.878c0,0-1.156,11.396,0.383,11.704
	c0,0,0.713,0.181,1.062,0.153c0,0,1.5,0.721,1.384-3.667c0,0,0.261-5.46,0.521-5.688c0,0,0.809-0.779,0.837,0.634
	c0,0-0.606,14.005,2.108,14.093c0,0,2.224,0.895,2.224-6.496c0,0-0.635-8.174,0.954-8.174c0,0,1.125-1.413,1.125,8.692
	c0,0-0.318,7.999,2.369,7.999c0,0,2.512,0.462,2.512-13.477c0,0,0.075-3.155,1.309-3.155c0,0,1.23-0.772,1.23,6.546
	c0,0-0.845,7.775,1.928,7.775c0,0,1.849,1.695,1.849-12.09c0,0-0.54-6.159,0.537-5.465c0,0,1.077,3.154,3.928,3.154
	c0,0,2.542-0.461,0.615-4.081c0,0-2.003-4.467-2.772-8.315c0,0-2.743-6.925-6.929-11.472c-0.813-0.886-1.387-2.004-1.311-4.621
	c0,0,0.617-28.647,0.617-28.955s-0.23-25.412-3.312-31.032c0,0-2.464-12.088-2.311-15.478c0,0-1.155-35.424-2.078-37.886
	c0,0-0.155-17.404-8.778-23.485c0,0-6.933-5.702-20.406-10.087c0,0-14.168-3.773-19.944-14.555c0,0-1.541-1.695-1.002-6.391
	c0,0,0.154-5.314,0.848-6.933c0,0,1.156-3.237,1.539-4.548c0,0,4.159,0.771,5.854-7.392c0,0,0.229-7.851-1.772-8.695l-0.692-0.154
	c0,0,1.002-10.474-1.002-14.092c0,0-0.306-10.011-13.938-15.557c0,0-16.632-4.542-25.103,9.165c0,0-6.005,4.699-4.467,21.561
	c0,0-4.696-1.463-2.002,7.855c0,0,1.848,8.084,6.083,8.084c0,0,0.153,5.085,2.543,7.472c0,0,0.923,6.623-0.694,10.932
	c0,0-10.025,13.935-23.409,15.709c-9.137,1.214-25.951,5.312-26.258,25.874c0,0-3.235,40.736-2.927,51.053
	c0,0-7.546,9.857-4.775,58.523c0,0,0.155,10.473-0.307,12.012c0,0-8.471,8.624-8.778,16.324c0,0-3.852,8.317-1.079,8.627
	c0,0,3.236-0.156,5.39-6.162c0,0-2.77,20.484,1.079,20.946c0,0,0.925,3.235,2.464-11.551c0,0,1.078-5.235,2.466-3.851
	c0,0-1.388,17.404,1.695,17.095c0,0,2.462,1.078,2-16.016c0,0,1.849-2.929,2.617-0.771c0,0-1.692,15.863,2.003,15.709
	c0,0,1.54,0.154,1.078-14.633c0,0,0.462-7.698,2.155-3.233c0,0-0.769,12.63,2.311,12.322c0,0,1.539,0.461,1.386-13.707
	c0,0,0.926-13.244-2.156-20.02c0,0-1.54-4.314-0.616-7.703c0,0,7.701-21.098,10.166-36.807c0,0,1.076-9.547,0.31-13.707
	c0,0,0.613-7.39,2.77-16.478c0,0,4.006-13.705,4.006-18.482c0,0,3.541,3.391,3.541,11.707c0,0-0.523,35.144,0.615,40.196
	c0.814,3.609,0.156,6.618-1.077,14.778c0,0-4.774,17.409-4.158,39.429c0,0-2.773,15.402,1.694,56.986c0,0,3.721,20.837,5.083,29.105
	c0.568,3.459-0.226,7.328-0.309,14.014c-0.151,12.091-7.7,26.645-0.307,48.358c0,0,7.39,25.257,8.469,38.81
	c0,0-0.925,9.703-2.002,18.481c0,0-0.77,4.621-2.003,6.775C51.672,455.505,48.746,459.202,47.977,461.205z"/>
</svg>
