<?xml version="1.0" encoding="utf-8"?>
<!-- Generator: Adobe Illustrator 16.0.0, SVG Export Plug-In . SVG Version: 6.00 Build 0)  -->
<!DOCTYPE svg PUBLIC "-//W3C//DTD SVG 1.1//EN" "http://www.w3.org/Graphics/SVG/1.1/DTD/svg11.dtd">
<svg version="1.1" id="Layer_1" xmlns="http://www.w3.org/2000/svg" xmlns:xlink="http://www.w3.org/1999/xlink" x="0px" y="0px"
	 width="137.792px" height="469.999px" viewBox="0 0 137.792 469.999" enable-background="new 0 0 137.792 469.999"
	 xml:space="preserve">
<path fill="#79D0F1" d="M131.945,242.234c0,0-6.539-9.387-11.693-13.85c0,0-4.309-3.382-5.846-11.386c0,0,0.305-29.54-7.078-47.081
	c0,0-3.078-32.005-3.078-42.772c0,0,7.387-22.467-2.154-33.544c0,0-3.691-3.385-20.001-13.233c0,0-7.079-2.154-6.771-12l1.232-5.539
	c0,0,8.309,1.537,10.155-11.078c0,0,1.344-4.761,2.77-10.463c0,0,0.461-1.848-0.925-6.464c0,0-0.615-2.154,0.615-4.924
	c0,0,0.153-4-1.076-8.309c0,0,0.154-3.999-0.461-5.231c0,0,2.308-4.153-1.232-8.77c0,0-0.923-1.384-0.308-2.46
	c0,0,2.001-4.463-7.229-4.772c0,0-36.16-4.769-41.082,20.467c0,0-4.001,18.926,6.77,30.618c0,0,3.076,10.925-8.924,19.077
	c0,0-4.002,3.694-12.618,7.232c0,0-21.541,2.462-20.618,26.312c0,0-2.921,28.156-2.307,44.622c0,0-0.616,34.156,1.999,46.313
	c0,0,5.692,27.387,10.463,37.693c0,0-2.452,21.146,8.001,35.084c0.462,0.615,3.694,4.461,5.695,1.691c0,0,0.308,27.694,2.306,40.463
	c0,0-0.614,24.16,0.308,32.161c0,0-15.694,20.618-7.078,51.391c0,0,8.154,24.772,9.387,39.234c0,0,0.922,6.308-1.076,14.155
	c-0.241,0.943-7.387,12.925-0.308,15.387c0,0,6.154,1.539,8.309,2.463c0,0,7.384,3.383,9.846,3.383c0,0,1.848,2.155,4.924,1.232
	c0,0,2.77,1.846,5.539-0.924c0,0,3.694,3.076,6.462,0.307c0,0,3.387,1.848,6.156,0c0,0,6.153,4.002,6.769-2.154
	c0,0-4.614-3.691-9.538-7.076c0,0,4.307-3.077,10.155,0c0,0,4.614,4.617,9.847,4.617c0,0,2.77-0.617,4.924,1.229
	c0,0,6.771,2.462,8.308-2.154c0,0,6.77,1.847,1.23-4.614c0,0-2.459-3.08-6.461-3.694c0,0-5.54-0.923-10.771-8.616
	c0,0-8.926-7.386-7.386-17.85c0,0,4.924-34.773,7.386-43.39c0,0,4.002-17.539,3.077-36.618c0,0,4.617-9.541,4.31-21.541
	c0,0,3.385-15.08,6.154-29.234c0,0,3.691-21.234,1.847-48.622c0,0-1.54-32.312-2.462-38.157c0,0,7.386,18.153,8.924,24.311
	c0,0,2.462,23.695,11.077,27.08c0,0,2.77,5.846,6.464,4.613c0,0,4.922,4.925,6.154,0c0,0,5.231,0.309,0.922-5.539
	c0,0-5.539-6.461-5.846-15.077c0,0-1.538-6.153,3.384-0.614c0,0,5.846,8.924,8.309,5.539
	C137.792,251.158,134.101,246.544,131.945,242.234z M27.78,195.229c-3.924,8.309-5.078,29.078-5.078,29.078
	c-3.001-8.998-0.46-20.076-0.46-20.076c3.462-12.465,0.229-20.08,0.229-20.08c-1.845-2.537-1.845-9.694-1.845-9.694
	c0.229-11.539,6-14.309,6-14.309c-1.386,5.078,1.616,16.849,1.616,16.849C30.779,189.919,27.78,195.229,27.78,195.229z
	 M60.554,357.248c-7.155,21.463-1.387,34.85-1.387,34.85c4.156,8.309,3.233,24.235,3.233,24.235
	c0.923,17.307-5.771,33.002-5.771,33.002c-3.463-2.077-6.693-6-6.693-6c-6.693-11.539-2.309-48.93-2.309-48.93
	c4.153-6.692,2.54-36.003,2.54-36.003c2.768-6.693,3.46-15.695,3.46-15.695c2.77-5.539,4.386-15.001,4.386-15.001
	c3.232-17.31,5.077-13.618,5.077-13.618c2.076,5.539,0.922,23.311,0.922,23.311C65.399,346.17,60.554,357.248,60.554,357.248z"/>
</svg>
