<?xml version="1.0" encoding="utf-8"?>
<!-- Generator: Adobe Illustrator 16.0.0, SVG Export Plug-In . SVG Version: 6.00 Build 0)  -->
<!DOCTYPE svg PUBLIC "-//W3C//DTD SVG 1.1//EN" "http://www.w3.org/Graphics/SVG/1.1/DTD/svg11.dtd">
<svg version="1.1" id="Layer_1" xmlns="http://www.w3.org/2000/svg" xmlns:xlink="http://www.w3.org/1999/xlink" x="0px" y="0px"
	 width="136.886px" height="470px" viewBox="0 0 136.886 470" enable-background="new 0 0 136.886 470" xml:space="preserve">
<path fill="#79D0F1" d="M136.806,144.482c0,0-1.386-36.15-1.537-40.612c0,0,1.998-15.689-15.231-21.845
	c0,0-17.996-8.617-20.459-13.691c0,0-7.538-8.153-7.23-14.613c0,0,4.77-7.692,6.306-16.614c0,0,6.153-14-0.46-23.384
	c0,0-3.384-9.385-25.383-12.308c0,0-18.614-4.461-21.076,2.461c0,0-3.076,3.232-0.307,10.615c0,0-4.616,5.77-2.656,19.729
	c0,0-2.421,20.652,6.04,26.729c0,0,2.769,1.384,6.462,1.384c0,0,1.45,9.205,0.612,11.849c-0.929,2.935-6.16,7.782-9.229,8.153
	c-10.159,1.225-23.959,8.073-21.845,34.611c0,0,1.383,17.692,0.922,38c0,0-0.769,10.612-1.229,14.46c0,0-6.924,15.538-7.077,41.074
	c0,0-0.462,14.768-7.847,20.614c0,0-6.429,5.049-8.768,10.151c-1.083,2.361-5.678,6.811-6.616,8.001
	c-0.747,0.947,0.579,5.725,4.77,0.771c1.693-2.003,4.462-4.771,4.616-5.999c0,0,1.844-0.617,1.075,2.767c0,0-0.652,5.498-6.153,18
	c-0.595,1.354-0.307,4.308,5.385-2.462c0,0-4.385,6.806-0.307,6.155c1.754-0.282,4.306-4.309,4.459-5.538
	c-0.057,0.463-0.153,1.229-0.153,1.229s-0.615,7.231,5.538-2.308c0,0,1.539,5.076,9.077-14.152c0,0,2.731-8.812,3.384-17.076
	c0.41-5.188,6.614-19.539,8.308-19.078c0,0-3.845,34.771-4.923,58.306c0,0-1.845,18.924,10.153,49.845
	c0,0-1.539,16.614,3.384,24.611c0,0,0,24.001,5.23,47.539c0,0,6.001,35.382,4.462,42.306c0,0-4.272,10.816-10.307,15.075
	c-2.282,1.607-5.406,4.384-9.229,5.878c-2.221,0.87-8.002,3.968-6.309,7.198c0,0,0.153,0.922,4.151,0.768
	c0,0-3.384,4.155,7.386,0.923c0,0,7.077,1.539,13.69-5.999c0,0,12.152-1.23,12.001,0c0,0-8.073,4.914-9.345,7.148
	c0,0-3.347,4.268,2.652,4.845c0,0,2.656,0.118,3.808-1.268c0,0,2.194,1.963,5.77-0.809c0,0,0.692,2.194,5.886,0.923
	c0,0,3.807,1.153,6.46-0.459c0,0-0.806,3.114,6.921-0.348c0,0,4.309-1.885,7.695-4.344c0,0,5.997-1.539,7.536-0.925
	c0,0,4.615,0.153,2.001-10.769c0,0-4.31-11.386-2.615-20.922c0,0,5.076-29.074,8.152-37.691c0,0,9.537-23.073-5.537-48.611
	c0,0-1.54-27.998,0.922-42.15c0,0,4.308-18.151,1.231-33.844c0,0,2.154,3.692,6.153-2.769c0,0,8.925-11.998,7.538-33.845
	c0,0,9.229-27.845,10.461-38.458C135.576,193.711,137.269,170.482,136.806,144.482z M90.426,433.54
	c-1.154,11.998-9.231,14.538-9.231,14.538c-1.848-3.693-4.153-15.692-4.153-15.692c-3.925-22.383,2.306-41.534,2.306-41.534
	c5.999-26.075-6.691-48.228-6.691-48.228c1.846-5.538,2.769-31.615,2.769-31.615c2.308,3.229,4.384,15.001,4.384,15.001
	c-0.229,10.613,5.077,17.768,5.077,17.768c-0.229,6.229,3.232,14.307,3.232,14.307c-2.079,17.536,1.615,35.075,1.615,35.075
	C92.038,411.85,90.426,433.54,90.426,433.54z M116.038,181.788c-1.845,9.461-2.77,3.691-1.384,24.688c0,0-2.835-8.356-5.309-14.538
	c-2.77-6.921-0.376-10.683,0.925-18.921c0.609-3.869,0.69-11.306,2.537-15.461C112.807,157.557,118.066,171.396,116.038,181.788z"/>
</svg>
