<?xml version="1.0" encoding="utf-8"?>
<!-- Generator: Adobe Illustrator 16.0.0, SVG Export Plug-In . SVG Version: 6.00 Build 0)  -->
<!DOCTYPE svg PUBLIC "-//W3C//DTD SVG 1.1//EN" "http://www.w3.org/Graphics/SVG/1.1/DTD/svg11.dtd">
<svg version="1.1" id="Layer_1" xmlns="http://www.w3.org/2000/svg" xmlns:xlink="http://www.w3.org/1999/xlink" x="0px" y="0px"
	 width="165.802px" height="470.001px" viewBox="0 0 165.802 470.001" enable-background="new 0 0 165.802 470.001"
	 xml:space="preserve">
<path fill="#79D0F1" d="M7.928,230.633c0,0-6.762,6.062-6.996,14.224c0,0,0,5.365-0.932,8.163c0,0,2.564,3.265,4.431-3.265
	c0,0-1.866,16.091,1.399,17.722c0,0,3.265,2.099,2.098-4.664c0,0,0.232-8.627,1.634-8.627c0,0,0.233,13.992,3.729,15.157
	c0,0,2.333,1.633,1.4-8.628c0,0-0.701-8.396,0.933-7.461c0,0,1.865-0.469,1.631,7.929c0,0-0.465,7.461,3.032,6.528
	c0,0,1.167,0.467,0.232-8.397c0,0-0.932-8.16,0.7-7.694c0,0,1.4-0.231,2.101,6.763c0,0-0.935,4.898,1.864,4.431
	c0,0,2.799-15.155-2.332-33.346c0,0-1.633-10.727,1.166-15.857c0,0,6.064-15.857,6.997-40.108c0,0,1.397-3.732,1.863-12.827
	c0,0,5.365-16.791,5.83-24.02c0,0,6.998,13.758,6.063,27.983c0,0,0,4.665,0.233,8.863c0,0-1.631,8.861,0.933,14.924
	c0,0-3.264,16.323-5.828,27.051c0,0-4.199,12.125-2.101,48.736c0,0,0.234,30.551,2.101,41.744c0,0,1.398,18.189,3.499,26.35
	c0,0,0.697,11.66-0.469,24.485c0,0-7.694,16.558,5.13,55.968c0,0,4.666,18.654,3.731,30.081c0,0-1.167,7.464-2.797,13.761
	c0,0-6.997,1.863-3.732,6.293c0,0,3.032,1.867,6.297,2.567c0,0,6.994,9.562,17.49,0.932c0,0,2.331-3.265,0.465-12.824
	c0,0,2.099-9.097-1.166-13.061c0,0-2.563-12.125-1.632-17.722c0,0,0-17.024,3.499-27.051c0,0,5.596-13.525-2.332-33.813
	c0,0-1.401-9.793,1.397-16.79c0,0,2.566-12.125,4.433-25.65c0,0,8.393-48.271,7.461-64.364l2.798,0.234
	c0,0,4.198,66.693,9.796,81.386c0,0,3.264,9.561,3.729,16.789c0,0-1.398,12.825-4.196,19.589c0,0-4.432,11.192,3.73,33.347
	c0,0,1.867,20.055-1.166,33.349c0,0-2.564,2.332-0.7,11.658c0,0-3.965,16.79,5.831,17.722c0,0,7.694,1.166,16.789-6.527
	c0,0,3.265-2.333,0.701-4.897c0,0-3.265,0-3.733-3.032c0,0-0.466-7.696-2.563-11.659c0,0,0-12.128,1.866-18.656
	c0,0,14.924-39.41,9.095-67.161c0,0-5.131-12.592-0.234-38.71c0,0,6.528-48.503,4.431-74.388c0,0-1.399-22.855-6.062-48.271
	c0,0-0.7-5.597,0.932-13.525c0,0-0.232-12.594-0.7-27.983c0,0,0.7-20.288,5.597-18.891c0,0,2.567,21.455,5.365,27.751
	c0,0-1.632,20.289,5.13,40.577c0,0,6.295,15.39,5.131,25.416c0,0-4.198,4.665-3.498,21.688c0,0-0.934,10.96,0.932,12.359
	c0,0,1.866,1.398,1.866-7.23c0,0,0.235-6.062,1.864-5.362c0,0,0.935,4.43,0.7,11.193c0,0-1.397,5.83,1.166,5.596
	c0,0,2.566-1.631,2.566-13.057c0,0,1.864-2.567,2.331,0.697c0,0-2.099,14.458,0.699,14.927c0,0,2.566,1.166,3.267-12.359
	c0,0,0.466-4.198,2.099-2.099c0,0-1.401,11.891,1.165,11.656c0,0,2.564,2.567,2.799-9.792c0,0,0.232-5.363-0.234-7.695
	c0,0,2.333,3.731,5.131,2.799c0,0-1.4-2.332-1.632-8.395c0,0-1.166-9.095-7.463-13.995c0,0-0.697-5.828,0.466-16.789
	c0,0,3.032-33.58-3.03-48.737c0,0-1.632-11.893-1.632-22.386c0,0-2.567-37.311-3.965-46.874c0,0-6.297-13.524-20.057-15.623
	c0,0-21.454-7.695-29.614-20.754c0,0-0.7-8.63,1.166-11.193c0,0,6.062-1.633,6.994-12.129c0,0,0.935-6.762-1.863-7.226
	c0,0,4.896-28.451-23.088-28.451c0,0-26.115-0.697-21.22,27.983c0,0-5.13,1.866-0.7,12.594c0,0,1.4,4.664,4.197,4.664
	c0,0,2.1,7.461,1.399,13.758c0,0-2.099,3.964-7.229,7.696c0,0-8.629,5.829-21.921,11.425c0,0-24.719,3.965-22.387,41.277
	c0,0-2.332,31.247-4.198,44.072c0,0-4.896,21.921-2.332,43.141C7.694,206.612,9.095,226.202,7.928,230.633z"/>
</svg>
