<?xml version="1.0" encoding="utf-8"?>
<!-- Generator: Adobe Illustrator 16.0.0, SVG Export Plug-In . SVG Version: 6.00 Build 0)  -->
<!DOCTYPE svg PUBLIC "-//W3C//DTD SVG 1.1//EN" "http://www.w3.org/Graphics/SVG/1.1/DTD/svg11.dtd">
<svg version="1.1" id="Layer_1" xmlns="http://www.w3.org/2000/svg" xmlns:xlink="http://www.w3.org/1999/xlink" x="0px" y="0px"
	 width="281.7px" height="263px" viewBox="0 -26.2 281.7 263" enable-background="new 0 -26.2 281.7 263" xml:space="preserve">
<g id="FjeuYa_1_">
	
		<image overflow="visible" width="321" height="244" id="FjeuYa_2_" xlink:href="B04747580BFBA70C.jpg"  transform="matrix(1 0 0 1 235 598)">
	</image>
</g>
<g>
	<text transform="matrix(1 0 0 1 238.335 171.04)" fill="#828283" font-family="'Lato-Regular'" font-size="17">30’</text>
	<g>
		<g>
			<path fill="#56C4E4" d="M53.2,56.3c-8.1,14.4-12.7,31.1-12.7,48.8c0,17.7,4.6,34.4,12.7,48.8l32.6-18.8v-60L53.2,56.3z"/>
		</g>
		<g>
			<path fill="#C3F4EA" d="M141.9,42.7l51.9,30l32.6-18.8C209.2,25,177.8,5.6,141.9,5.1V42.7z"/>
		</g>
		<g>
			<path fill="#95EADA" d="M195.2,135.1l32.6,18.8c8.1-14.4,12.7-31.1,12.7-48.8c0-17.7-4.6-34.4-12.7-48.8l-32.6,18.8V135.1z"/>
		</g>
		<g>
			<path fill="#87D2E4" d="M139.1,167.5l-51.9-30l-32.6,18.8c17.2,28.8,48.6,48.3,84.5,48.8V167.5z"/>
		</g>
		<g>
			<path fill="#3AEAC6" d="M193.8,137.5l-51.9,30v37.6c35.9-0.5,67.3-19.9,84.5-48.8L193.8,137.5z"/>
		</g>
		<g>
			<path fill="#28ACE0" d="M87.2,72.7l51.9-30V5.1C103.2,5.6,71.8,25,54.6,53.9L87.2,72.7z"/>
		</g>
		<g>
			<g>
				<g>
					<path fill="#AAAAAA" d="M147.5,84.8c0,0.6-0.4,1-1,1h-10.3c-0.6,0-1-0.4-1-1l0,0c0-0.6,0.4-1,1-1h10.3
						C147,83.8,147.5,84.2,147.5,84.8L147.5,84.8z"/>
				</g>
			</g>
			<g>
				<g>
					<rect x="138.2" y="85.3" fill="#AAAAAA" width="6.2" height="4.7"/>
				</g>
			</g>
			<g>
				<g>
					<path fill="#AAAAAA" d="M141.2,127.9c-10.6,0-19.2-8.6-19.2-19.2c0-10.6,8.6-19.2,19.2-19.2c10.6,0,19.2,8.6,19.2,19.2
						C160.3,119.3,151.7,127.9,141.2,127.9z M141.2,92.6c-8.9,0-16.2,7.3-16.2,16.2c0,8.9,7.3,16.2,16.2,16.2
						c8.9,0,16.2-7.3,16.2-16.2C157.3,99.9,150.1,92.6,141.2,92.6z"/>
				</g>
			</g>
			<g>
				<g>
					<path fill="#AAAAAA" d="M141.2,95.6c-7.3,0-13.2,5.9-13.2,13.2c0,7.3,5.9,13.2,13.2,13.2s13.2-5.9,13.2-13.2
						C154.3,101.5,148.5,95.6,141.2,95.6z M141.3,108.8h-10.7c0-5.9,4.8-10.7,10.7-10.7V108.8z"/>
				</g>
			</g>
			<g>
				<g>
					<path fill="#AAAAAA" d="M128.4,92.8c-0.6-0.8-1.6-1.3-2.7-1.3c-1.9,0-3.5,1.5-3.5,3.5c0,1.4,0.8,2.5,1.9,3.1
						C125.2,96.1,126.6,94.3,128.4,92.8z"/>
				</g>
			</g>
		</g>
		<g>
			<path fill="#AAAAAA" d="M97,38.7c-0.3,0-0.5-0.1-0.7-0.3L62.6,2H1C0.4,2,0,1.6,0,1s0.4-1,1-1h62c0.3,0,0.5,0.1,0.7,0.3l34,36.7
				c0.4,0.4,0.4,1-0.1,1.4C97.5,38.6,97.2,38.7,97,38.7z"/>
		</g>
		<g>
			<path fill="#AAAAAA" d="M63,105H1c-0.6,0-1-0.4-1-1s0.4-1,1-1h62c0.6,0,1,0.4,1,1S63.6,105,63,105z"/>
		</g>
		<g>
			<path fill="#AAAAAA" d="M63,197.3H1c-0.6,0-1-0.4-1-1s0.4-1,1-1h61.7l34.4-25.1c0.4-0.3,1.1-0.2,1.4,0.2c0.3,0.4,0.2,1.1-0.2,1.4
				l-34.7,25.3C63.4,197.3,63.2,197.3,63,197.3z"/>
		</g>
		<g>
			<path fill="#AAAAAA" d="M184.7,38.7c-0.2,0-0.5-0.1-0.7-0.3c-0.4-0.4-0.4-1-0.1-1.4l34-36.7c0.2-0.2,0.5-0.3,0.7-0.3h62
				c0.6,0,1,0.4,1,1s-0.4,1-1,1h-61.6l-33.7,36.3C185.2,38.6,184.9,38.7,184.7,38.7z"/>
		</g>
		<g>
			<path fill="#AAAAAA" d="M280.7,105h-62c-0.6,0-1-0.4-1-1s0.4-1,1-1h62c0.6,0,1,0.4,1,1S281.2,105,280.7,105z"/>
		</g>
		<g>
			<path fill="#AAAAAA" d="M280.7,197.3h-62c-0.2,0-0.4-0.1-0.6-0.2l-34.7-25.3c-0.4-0.3-0.5-1-0.2-1.4c0.3-0.4,1-0.5,1.4-0.2
				l34.4,25.1h61.7c0.6,0,1,0.4,1,1S281.2,197.3,280.7,197.3z"/>
		</g>
	</g>
	<text transform="matrix(1 0 0 1 134.334 -11.625)" fill="#828283" font-family="'Lato-Regular'" font-size="17">0’</text>
	<text transform="matrix(1 0 0 1 238.334 49.708)" fill="#828283" font-family="'Lato-Regular'" font-size="17">15’</text>
	<text transform="matrix(1 0 0 1 129.002 233.708)" fill="#828283" font-family="'Lato-Regular'" font-size="17">45’</text>
	<text transform="matrix(1 0 0 1 20.002 172.04)" fill="#828283" font-family="'Lato-Regular'" font-size="17">60’</text>
	<text transform="matrix(1 0 0 1 22.335 50.374)" fill="#828283" font-family="'Lato-Regular'" font-size="17">75’</text>
</g>
</svg>
