<?xml version="1.0" encoding="utf-8"?>
<!-- Generator: Adobe Illustrator 16.0.0, SVG Export Plug-In . SVG Version: 6.00 Build 0)  -->
<!DOCTYPE svg PUBLIC "-//W3C//DTD SVG 1.1//EN" "http://www.w3.org/Graphics/SVG/1.1/DTD/svg11.dtd">
<svg version="1.1" id="Layer_1" xmlns="http://www.w3.org/2000/svg" xmlns:xlink="http://www.w3.org/1999/xlink" x="0px" y="0px"
	 width="281.666px" height="205.084px" viewBox="0 0 281.666 205.084" enable-background="new 0 0 281.666 205.084"
	 xml:space="preserve">
<g>
	<g>
		<path fill="#95DB95" d="M53.209,56.314c-8.083,14.434-12.697,31.07-12.697,48.789c0,17.717,4.614,34.355,12.697,48.789
			l32.572-18.807V75.121L53.209,56.314z"/>
	</g>
	<g>
		<path fill="#F7ED8C" d="M141.913,42.713l51.931,29.982l32.571-18.805c-17.233-28.844-48.577-48.275-84.502-48.77V42.713z"/>
	</g>
	<g>
		<path fill="#F9E94F" d="M195.244,135.086l32.572,18.807c8.083-14.434,12.697-31.072,12.697-48.789
			c0-17.719-4.614-34.355-12.697-48.789l-32.572,18.807V135.086z"/>
	</g>
	<g>
		<path fill="#AFDBAF" d="M139.113,167.494L87.182,137.51l-32.57,18.807c17.233,28.842,48.577,48.275,84.501,48.768V167.494z"/>
	</g>
	<g>
		<path fill="#FFEF0E" d="M193.844,137.51l-51.931,29.984v37.59c35.924-0.492,67.269-19.926,84.501-48.768L193.844,137.51z"/>
	</g>
	<g>
		<path fill="#7CDE7D" d="M87.182,72.695l51.931-29.982V5.121c-35.925,0.494-67.269,19.926-84.502,48.77L87.182,72.695z"/>
	</g>
	<g>
		<g>
			<g>
				<path fill="#AAAAAA" d="M147.456,84.769c0,0.553-0.447,1-1,1h-10.333c-0.552,0-1-0.447-1-1l0,0c0-0.551,0.448-1,1-1h10.333
					C147.008,83.769,147.456,84.218,147.456,84.769L147.456,84.769z"/>
			</g>
		</g>
		<g>
			<g>
				<rect x="138.206" y="85.269" fill="#AAAAAA" width="6.167" height="4.666"/>
			</g>
		</g>
		<g>
			<g>
				<path fill="#AAAAAA" d="M141.181,127.937c-10.568,0-19.167-8.599-19.167-19.168c0-10.568,8.598-19.166,19.167-19.166
					s19.167,8.598,19.167,19.166C160.347,119.338,151.749,127.937,141.181,127.937z M141.181,92.603
					c-8.914,0-16.167,7.252-16.167,16.166c0,8.915,7.252,16.168,16.167,16.168s16.167-7.253,16.167-16.168
					C157.347,99.854,150.095,92.603,141.181,92.603z"/>
			</g>
		</g>
		<g>
			<g>
				<path fill="#AAAAAA" d="M141.181,95.603c-7.271,0-13.167,5.895-13.167,13.166s5.895,13.168,13.167,13.168
					s13.167-5.896,13.167-13.168S148.452,95.603,141.181,95.603z M141.289,108.796h-10.667c0-5.891,4.776-10.668,10.667-10.668
					V108.796z"/>
			</g>
		</g>
		<g>
			<g>
				<path fill="#AAAAAA" d="M128.376,92.817c-0.635-0.775-1.586-1.285-2.667-1.295c-1.933-0.016-3.514,1.537-3.531,3.471
					c-0.012,1.361,0.762,2.533,1.89,3.123C125.151,96.077,126.618,94.28,128.376,92.817z"/>
			</g>
		</g>
	</g>
	<g>
		<path fill="#AAAAAA" d="M97,38.667c-0.269,0-0.536-0.107-0.733-0.32L62.563,2H1C0.448,2,0,1.553,0,1s0.448-1,1-1h62
			c0.278,0,0.544,0.116,0.733,0.32l34,36.667c0.375,0.404,0.352,1.037-0.053,1.413C97.487,38.579,97.244,38.667,97,38.667z"/>
	</g>
	<g>
		<path fill="#AAAAAA" d="M63,105H1c-0.552,0-1-0.447-1-1s0.448-1,1-1h62c0.552,0,1,0.447,1,1S63.552,105,63,105z"/>
	</g>
	<g>
		<path fill="#AAAAAA" d="M63,197.333H1c-0.552,0-1-0.447-1-1s0.448-1,1-1h61.673l34.403-25.14c0.446-0.326,1.071-0.229,1.397,0.218
			c0.326,0.445,0.229,1.071-0.218,1.397L63.59,197.141C63.419,197.266,63.212,197.333,63,197.333z"/>
	</g>
	<g>
		<path fill="#AAAAAA" d="M184.666,38.667c-0.244,0-0.487-0.088-0.68-0.267c-0.405-0.376-0.429-1.009-0.053-1.413l34-36.667
			c0.189-0.204,0.455-0.32,0.733-0.32h62c0.552,0,1,0.447,1,1s-0.448,1-1,1h-61.563l-33.703,36.347
			C185.202,38.56,184.935,38.667,184.666,38.667z"/>
	</g>
	<g>
		<path fill="#AAAAAA" d="M280.666,105h-62c-0.552,0-1-0.447-1-1s0.448-1,1-1h62c0.552,0,1,0.447,1,1S281.218,105,280.666,105z"/>
	</g>
	<g>
		<path fill="#AAAAAA" d="M280.666,197.333h-62c-0.212,0-0.419-0.067-0.59-0.192l-34.667-25.332
			c-0.446-0.326-0.543-0.952-0.218-1.397c0.326-0.447,0.952-0.544,1.397-0.218l34.403,25.14h61.673c0.552,0,1,0.447,1,1
			S281.218,197.333,280.666,197.333z"/>
	</g>
</g>
</svg>
