<?xml version="1.0" encoding="utf-8"?>
<!-- Generator: Adobe Illustrator 16.0.0, SVG Export Plug-In . SVG Version: 6.00 Build 0)  -->
<!DOCTYPE svg PUBLIC "-//W3C//DTD SVG 1.1//EN" "http://www.w3.org/Graphics/SVG/1.1/DTD/svg11.dtd">
<svg version="1.1" id="Layer_1" xmlns="http://www.w3.org/2000/svg" xmlns:xlink="http://www.w3.org/1999/xlink" x="0px" y="0px"
	 width="565px" height="176.242px" viewBox="0 0 565 176.242" enable-background="new 0 0 565 176.242" xml:space="preserve">
<g>
	<g>
		<path d="M0,113.29v62.952L545.011,74.845C555.673,73.068,565,65.895,565,54.855V8.659L0,113.29z"/>
	</g>
	<g>
		<path fill="#00AEEF" d="M10.449,62.201v53.527l310.236-57.438c9.391-1.564,17.605-7.883,17.605-17.605V0L10.449,62.201z"/>
	</g>
	<g>
		<path fill="#FFFFFF" d="M56.084,63.818v9.563l5.337-1.037v-9.563l4.726-0.919v9.563l5.782-1.124v4.671l-5.782,1.124v6.672
			l5.782-1.124v4.671l-5.782,1.124v9.675l-4.726,0.919v-9.675l-5.337,1.037v9.675l-4.726,0.919v-9.675l-5.782,1.124v-4.671
			l5.782-1.124v-6.672l-5.782,1.124v-4.671l5.782-1.124v-9.563L56.084,63.818z M56.084,84.725l5.337-1.037v-6.672l-5.337,1.037
			V84.725z"/>
		<path fill="#FFFFFF" d="M82.274,59.283v14.513l12.343-2.399V56.884l6.005-1.167v34.696l-6.005,1.167V76.846l-12.343,2.399v14.734
			l-6.005,1.167V60.45L82.274,59.283z"/>
		<path fill="#FFFFFF" d="M121.197,51.718l11.843,32.394l-6.283,1.222l-2.224-6.685l-11.621,2.259l-2.279,7.56l-5.894,1.146
			l11.787-36.988L121.197,51.718z M118.751,61.59l-4.115,13.645l8.173-1.589l-3.948-12.077L118.751,61.59z"/>
		<path fill="#FFFFFF" d="M137.157,48.615l6.895,14.729l6.95-17.42l6.228-1.21l-10.23,24.396v12.288l-6.005,1.167V70.277
			L130.93,49.825L137.157,48.615z"/>
		<path fill="#FFFFFF" d="M170.909,42.055c4.393-0.854,7.784-0.847,10.064,0.657c2.057,1.435,3.113,3.954,3.113,8.013
			c0,7.785-4.281,12.064-12.732,13.707l-4.003,0.778v12.232l-6.005,1.167V43.913L170.909,42.055z M167.351,59.761l3.781-0.735
			c2.891-0.562,4.503-1.32,5.56-2.581c0.945-1.185,1.334-2.707,1.334-4.819c0-1.891-0.5-3.239-1.446-3.89
			c-1.279-0.862-3.336-0.686-5.782-0.21l-3.447,0.67V59.761z"/>
		<path fill="#FFFFFF" d="M188.537,49.804c0-7.228,4.281-12.342,12.176-13.877c7.895-1.534,12.176,1.916,12.176,9.144v12.345
			c0,7.228-4.281,12.342-12.176,13.876c-7.895,1.535-12.176-1.915-12.176-9.143V49.804z M194.541,60.146
			c0,2.392,0.445,3.917,1.557,4.813c1,0.807,2.558,1.004,4.615,0.604c2.057-0.399,3.614-1.202,4.615-2.397
			c1.112-1.328,1.557-3.027,1.557-5.419V47.071c0-2.391-0.445-3.917-1.557-4.812c-1.001-0.807-2.558-1.004-4.615-0.604
			c-2.057,0.4-3.614,1.203-4.615,2.398c-1.112,1.328-1.557,3.027-1.557,5.418V60.146z"/>
		<path fill="#FFFFFF" d="M222.51,32.024l6.116,24.221l6.505-26.675l4.837-0.939l6.338,23.845l6.005-26.244l6.227-1.211
			l-9.007,36.447l-6.116,1.188l-5.949-22.863l-6.227,25.23l-6.005,1.167l-9.119-32.924L222.51,32.024z"/>
		<path fill="#FFFFFF" d="M281.839,20.492v5.449l-13.177,2.561v9.063l12.176-2.366v5.449l-12.176,2.366V52.3l13.177-2.562v5.449
			l-19.182,3.729V24.221L281.839,20.492z"/>
		<path fill="#FFFFFF" d="M296.02,17.735c4.503-0.875,8.173-0.978,10.453,0.525c2.057,1.324,3.225,3.878,3.225,7.991
			c0,6.395-2.891,10.238-7.617,12.324l7.228,11.272l-6.95,1.351l-6.505-10.856l-2.891,0.562v12.121l-6.005,1.167V19.497
			L296.02,17.735z M292.961,35.456l3.503-0.681c2.947-0.573,4.615-1.343,5.782-2.682c1.001-1.195,1.39-2.772,1.39-4.773
			c0-2.002-0.612-3.273-1.557-3.924c-1.334-0.908-3.392-0.73-5.782-0.266l-3.336,0.648V35.456z"/>
	</g>
	<g>
		<path fill="#FFFFFF" d="M29.618,128.185c3.816-0.741,6.763-0.735,8.744,0.571c1.788,1.246,2.705,3.435,2.705,6.961
			c0,6.764-3.72,10.482-11.062,11.909l-3.478,0.676v10.628l-5.217,1.015V129.8L29.618,128.185z M26.527,143.567l3.285-0.638
			c2.512-0.488,3.913-1.147,4.831-2.244c0.821-1.028,1.159-2.351,1.159-4.187c0-1.643-0.435-2.813-1.256-3.379
			c-1.111-0.751-2.898-0.597-5.023-0.184l-2.995,0.582V143.567z"/>
		<path fill="#FFFFFF" d="M54.787,123.292l10.289,28.145l-5.458,1.062l-1.932-5.809l-10.096,1.963l-1.98,6.568l-5.12,0.995
			l10.24-32.135L54.787,123.292z M52.662,131.869l-3.575,11.854l7.101-1.381l-3.43-10.492L52.662,131.869z"/>
		<path fill="#FFFFFF" d="M76.527,119.066c3.913-0.761,7.101-0.849,9.082,0.456c1.787,1.151,2.802,3.369,2.802,6.944
			c0,5.556-2.512,8.894-6.618,10.706l6.28,9.794l-6.039,1.174l-5.651-9.433l-2.512,0.488v10.531l-5.217,1.014v-30.145
			L76.527,119.066z M73.871,134.462l3.043-0.592c2.56-0.498,4.01-1.166,5.024-2.329c0.869-1.039,1.207-2.408,1.207-4.147
			s-0.531-2.845-1.352-3.409c-1.159-0.789-2.947-0.636-5.024-0.231l-2.898,0.563V134.462z"/>
		<path fill="#FFFFFF" d="M104.45,113.639l10.289,28.145l-5.458,1.062l-1.932-5.809l-10.096,1.963l-1.98,6.568l-5.121,0.995
			l10.24-32.135L104.45,113.639z M102.325,122.216L98.75,134.07l7.101-1.381l-3.43-10.492L102.325,122.216z"/>
		<path fill="#FFFFFF" d="M145.465,105.666v4.733l-7.826,1.521v25.411l-5.217,1.014v-25.411l-7.826,1.521v-4.733L145.465,105.666z"
			/>
		<path fill="#FFFFFF" d="M154.548,103.9v18.937c0,2.416,0.338,3.896,1.208,4.838c0.821,0.854,1.98,1.113,3.816,0.756
			c1.835-0.356,2.995-1.065,3.816-2.239c0.869-1.279,1.208-2.892,1.208-5.308v-18.937l5.217-1.014v19.71
			c0,7.439-3.719,11.447-10.24,12.715c-6.521,1.268-10.241-1.294-10.241-8.733v-19.71L154.548,103.9z"/>
		<path fill="#FFFFFF" d="M195.61,95.919l10.289,28.145l-5.458,1.062l-1.932-5.809l-10.096,1.963l-1.98,6.568l-5.12,0.995
			l10.24-32.135L195.61,95.919z M193.485,104.496l-3.575,11.854l7.101-1.38l-3.43-10.492L193.485,104.496z"/>
		<path fill="#FFFFFF" d="M214.356,92.275l8.55,15.487l8.212-18.746l4.589-0.892v30.145l-5.023,0.977V99.343l-7.681,17.387
			l-0.58,0.112l-7.97-14.393V122.4l-4.976,0.968V93.224L214.356,92.275z"/>
		<path fill="#FFFFFF" d="M240.733,96.857c0-6.279,3.719-10.723,10.579-12.056s10.579,1.663,10.579,7.943v10.725
			c0,6.28-3.72,10.724-10.579,12.057s-10.579-1.663-10.579-7.944V96.857z M245.951,105.844c0,2.077,0.386,3.402,1.352,4.182
			c0.87,0.7,2.222,0.873,4.009,0.525c1.788-0.348,3.14-1.046,4.01-2.084c0.966-1.155,1.353-2.631,1.353-4.707v-9.275
			c0-2.078-0.386-3.404-1.353-4.182c-0.87-0.701-2.222-0.873-4.01-0.525c-1.787,0.348-3.139,1.045-4.009,2.084
			c-0.966,1.153-1.352,2.63-1.352,4.707V105.844z"/>
		<path fill="#FFFFFF" d="M274.791,80.527c3.913-0.76,7.101-0.849,9.082,0.457c1.788,1.15,2.802,3.368,2.802,6.943
			c0,5.556-2.512,8.894-6.618,10.706l6.28,9.794l-6.039,1.174l-5.651-9.433l-2.512,0.488v10.531l-5.217,1.015V82.059L274.791,80.527
			z M272.134,95.923l3.043-0.592c2.56-0.497,4.01-1.166,5.024-2.329c0.87-1.039,1.208-2.408,1.208-4.147s-0.531-2.844-1.353-3.409
			c-1.159-0.789-2.947-0.635-5.024-0.231l-2.898,0.563V95.923z"/>
		<path fill="#FFFFFF" d="M311.312,73.429l10.289,28.145l-5.458,1.062l-1.932-5.809l-10.096,1.963l-1.98,6.568l-5.121,0.995
			l10.241-32.135L311.312,73.429z M309.188,82.006l-3.575,11.854l7.101-1.38l-3.43-10.492L309.188,82.006z"/>
		<path fill="#FFFFFF" d="M330.396,69.719v25.41l11.449-2.225v4.734l-16.666,3.239V70.733L330.396,69.719z"/>
		<path fill="#FFFFFF" d="M363.149,63.353c8.212-1.597,11.738,1.97,11.738,12.646c0,9.758-3.188,15.837-10.724,17.302l-10.434,2.028
			V65.184L363.149,63.353z M358.947,89.58l3.816-0.742c2.657-0.517,4.154-1.436,5.169-3.275c1.062-1.85,1.594-4.609,1.594-8.619
			c0-3.671-0.58-5.975-1.498-7.39c-1.014-1.397-2.511-1.928-5.555-1.336l-3.526,0.685V89.58z"/>
		<path fill="#FFFFFF" d="M396.483,56.873v4.733l-11.449,2.226v7.875l10.58-2.057v4.734l-10.58,2.057v8.067l11.449-2.226v4.734
			l-16.666,3.239V60.112L396.483,56.873z"/>
		<path fill="#FFFFFF" d="M409.237,54.395c3.816-0.742,6.763-0.736,8.744,0.57c1.787,1.246,2.705,3.436,2.705,6.962
			c0,6.764-3.72,10.481-11.062,11.909l-3.479,0.676V85.14l-5.217,1.014V56.009L409.237,54.395z M406.146,69.777l3.285-0.639
			c2.512-0.488,3.913-1.147,4.831-2.244c0.821-1.028,1.159-2.35,1.159-4.186c0-1.643-0.435-2.814-1.256-3.379
			c-1.111-0.751-2.898-0.597-5.024-0.184l-2.995,0.582V69.777z"/>
		<path fill="#FFFFFF" d="M424.552,61.127c0-6.28,3.719-10.723,10.579-12.057c6.859-1.333,10.579,1.664,10.579,7.944v10.725
			c0,6.28-3.72,10.723-10.579,12.056c-6.859,1.334-10.579-1.663-10.579-7.943V61.127z M429.77,70.113
			c0,2.077,0.386,3.402,1.353,4.181c0.87,0.7,2.222,0.873,4.009,0.525c1.788-0.347,3.14-1.046,4.009-2.084
			c0.966-1.154,1.353-2.63,1.353-4.707v-9.275c0-2.077-0.387-3.403-1.353-4.182c-0.869-0.701-2.222-0.872-4.009-0.525
			c-1.787,0.348-3.139,1.045-4.009,2.084c-0.966,1.154-1.353,2.631-1.353,4.708V70.113z"/>
		<path fill="#FFFFFF" d="M458.609,44.797c3.913-0.761,7.101-0.849,9.082,0.457c1.788,1.15,2.802,3.368,2.802,6.943
			c0,5.556-2.512,8.894-6.618,10.706l6.28,9.794l-6.039,1.174l-5.651-9.433l-2.512,0.488v10.531l-5.217,1.014V46.327L458.609,44.797
			z M455.953,60.192l3.043-0.592c2.56-0.497,4.01-1.166,5.024-2.329c0.869-1.039,1.208-2.408,1.208-4.147s-0.531-2.844-1.353-3.409
			c-1.159-0.789-2.947-0.635-5.024-0.231l-2.898,0.563V60.192z"/>
		<path fill="#FFFFFF" d="M493.682,37.979v4.733l-7.826,1.521v25.411l-5.217,1.014V45.248l-7.826,1.521v-4.733L493.682,37.979z"/>
		<path fill="#FFFFFF" d="M514.214,33.988v4.733l-11.449,2.226v7.875l10.579-2.057V51.5l-10.579,2.057v8.067l11.449-2.226v4.734
			l-16.666,3.24V37.229L514.214,33.988z"/>
	</g>
</g>
</svg>
