<?xml version="1.0" encoding="utf-8"?>
<!-- Generator: Adobe Illustrator 16.0.0, SVG Export Plug-In . SVG Version: 6.00 Build 0)  -->
<!DOCTYPE svg PUBLIC "-//W3C//DTD SVG 1.1//EN" "http://www.w3.org/Graphics/SVG/1.1/DTD/svg11.dtd">
<svg version="1.1" id="Layer_1" xmlns="http://www.w3.org/2000/svg" xmlns:xlink="http://www.w3.org/1999/xlink" x="0px" y="0px"
	 width="25px" height="25px" viewBox="0 0 25 25" enable-background="new 0 0 25 25" xml:space="preserve">
<path fill="#00AEEF" d="M24.174,16.982C24.706,15.596,25,14.093,25,12.52c0-6.575-5.095-11.959-11.557-12.44
	C13.064,0.03,12.666,0,12.253,0c-0.663,0-1.295,0.076-1.896,0.227C4.476,1.241,0,6.357,0,12.52c0,3.644,1.564,6.921,4.058,9.202
	c0.034,0.052,0.074,0.099,0.122,0.14c0.017,0.014,0.299,0.252,0.722,0.566C7.008,24.039,9.641,25,12.5,25
	c4.549,0,8.529-2.427,10.716-6.053C23.627,18.329,23.964,17.669,24.174,16.982z M11.991,21.721
	c-0.021-0.098-0.061-0.191-0.124-0.272L9.812,18.82c-0.079-0.1-0.186-0.173-0.306-0.215l3.134-3.895l4.706-0.208l1.754,3.2
	c-0.031,0.032-0.059,0.065-0.083,0.104l-2.138,3.365c-0.025,0.039-0.044,0.08-0.06,0.122L11.991,21.721z M8.516,2.408
	c0.605,0.165,2.972,0.787,4.278,0.787l0,0c0.182,0,0.339-0.013,0.479-0.036l0.913,3.492l-3.818,3.038L5.663,9.174
	c0-0.004,0-0.006,0-0.006L5.087,6.209C5.071,6.131,5.04,6.058,4.999,5.991L8.516,2.408z M21.413,8.83
	c0.401,1.118,1.09,2.288,2.259,3.217c0.007,0.156,0.012,0.314,0.012,0.473c0,1.249-0.209,2.448-0.589,3.57l-3.717,1.438
	l-1.801-3.288l1.3-4.692L21.413,8.83z M5.553,9.671c0.037-0.053,0.063-0.11,0.083-0.17l4.771,0.522l1.767,4.709l0.028-0.002
	L9.161,18.51l-3.974-1.068c-0.056-0.015-0.112-0.02-0.168-0.021l-1.606-4.743L5.553,9.671z M20.884,5.141
	c-0.026,0.388-0.073,1.8,0.425,3.378l-2.557,0.724l-4.275-2.821l-0.008,0.007l-0.873-3.34c0.496-0.112,2.261-0.52,3.077-0.816
	l0.144-0.052C18.386,2.878,19.773,3.885,20.884,5.141z M8.051,2.277l0.104,0.029L4.761,5.764C4.61,5.68,4.433,5.656,4.266,5.701
	L3.489,5.916C4.655,4.334,6.227,3.07,8.051,2.277z M1.316,12.52c0-0.07,0.004-0.141,0.005-0.212l1.142,0.669
	c0.104,0.062,0.219,0.091,0.333,0.091c0.129,0,0.255-0.042,0.364-0.114L4.7,17.504c-0.017,0.01-0.035,0.016-0.05,0.026
	c-0.158,0.106-0.262,0.275-0.286,0.464l-0.24,1.914C2.378,17.938,1.316,15.352,1.316,12.52z M9.98,23.396l1.696-0.975
	c0.143-0.082,0.245-0.215,0.295-0.369l4.813-0.427c0.008,0.051,0.021,0.101,0.042,0.148l0.362,0.88
	c-1.427,0.66-3.015,1.032-4.688,1.032C11.633,23.687,10.791,23.584,9.98,23.396z"/>
</svg>
