<?xml version="1.0" encoding="utf-8"?>
<!-- Generator: Adobe Illustrator 16.0.0, SVG Export Plug-In . SVG Version: 6.00 Build 0)  -->
<!DOCTYPE svg PUBLIC "-//W3C//DTD SVG 1.1//EN" "http://www.w3.org/Graphics/SVG/1.1/DTD/svg11.dtd">
<svg version="1.1" id="Layer_1" xmlns="http://www.w3.org/2000/svg" xmlns:xlink="http://www.w3.org/1999/xlink" x="0px" y="0px"
	 width="94.998px" height="268.858px" viewBox="0 0 94.998 268.858" enable-background="new 0 0 94.998 268.858"
	 xml:space="preserve">
<g>
	<g>
		<path fill="#EC4E43" d="M10.541,268.858H9.569c-0.638,0-1.005-0.274-1.2-0.505c-0.358-0.423-0.398-0.98-0.385-1.3l-0.613-0.725
			c-0.412-0.078-0.845-0.328-1.025-0.988c-0.11,0-0.222,0.01-0.306,0.019c-0.014,0.106-0.017,0.263-0.003,0.392
			c0.003,0.357-0.166,0.87-1.297,0.87c-0.231,0-0.467-0.019-0.654-0.039c-0.172,0.219-0.484,0.415-1.048,0.415
			c-0.625,0-1.322-0.248-1.351-0.259c-0.48-0.277-0.478-0.812-0.477-1.329c0-0.07,0.002-0.136,0.001-0.19
			c-1.349-1.421-1.241-2.711-1.18-3.058c-0.043-2.005,2.458-3.567,3.125-3.948c0.313-0.571,1.292-1.461,2.918-2.653
			c0.409-0.692,1.303-1.254,1.686-1.472c0.285-0.557,1.029-1.016,1.423-1.229c0.208-0.351,0.644-0.719,1.005-0.986
			c0.002-0.039,0.005-0.079,0.01-0.119c-0.879,0.513-1.871,1.113-1.886,1.122c-0.553,0.352-2.989,1.115-3.472,1.265
			c-0.137,0.042-0.288,0.023-0.41-0.052c-0.123-0.076-0.207-0.201-0.231-0.344c-0.061-0.362-0.113-0.677,2.871-1.898
			c0.264-0.327,0.812-0.75,1.401-1.154c-0.763-0.323-1.232-0.698-1.423-1.137c-0.118-0.27-0.106-0.522-0.048-0.696
			c0.108-0.484,0.543-1.036,1.963-1.036c0.799,0,1.705,0.165,2.295,0.296v-1.016c0-0.52,0.551-0.893,1.639-1.11
			c0.278-1.132,1.426-2.985,1.786-3.548c0.34-1.956-0.118-9.421-0.123-9.497c-0.384-4.172-1.014-14.28-1.02-14.382
			c-0.761-8.368,0.827-13.476,1.146-14.397c-0.244-1.403,0.897-4.039,1.034-4.347c0.377-1.582,1.866-5.229,2.176-5.98
			c-0.164-0.284-0.846-0.966-1.55-1.544c-0.827-0.606-0.532-2.065-0.366-2.668c-0.466-1.083-0.125-3.291-0.083-3.415
			c0.388-1.164,0.198-10.586-0.025-16.635c0.047-3.011,0.433-11.663,0.437-11.75c-0.187-1.867,0.652-6.574,0.772-7.237
			c-0.077-0.845,0.067-2.433,0.249-3.917c-0.051,0.253-0.152,0.46-0.303,0.63c-0.247,0.278-0.606,0.432-1.042,0.446
			c-0.077,0.354-0.232,0.745-0.708,0.704c-0.096,0.039-0.214,0.104-0.344,0.187c0.203,0.038,0.342,0.075,0.354,0.079
			c0.061,0.016,0.118,0.044,0.168,0.081c0.29,0.216,1.173,0.872,0.997,1.69c-0.101,0.47-0.506,0.743-0.836,0.893
			c0.064,0.599-0.019,1.018-0.253,1.301c-0.183,0.221-0.441,0.338-0.747,0.338c-0.732,0-1.608-0.722-1.776-0.866l0,0
			c0.004,0-0.117-0.062-0.535-0.062c-0.304,0-0.576,0.032-0.586,0.033c-0.06,0.009-0.122,0.004-0.181-0.011
			c-0.608-0.153-4.063-1.7-4.456-1.876c-0.839-0.512-1.155-2.055-1.21-2.358c-0.458-1.732-2.023-4.684-2.039-4.713
			c-0.731-2.032-0.118-3.603,0.056-3.98c0.565-3.716,0.855-8.863,0.858-8.915c-0.198-3.505,0.719-6.061,0.758-6.168
			c0.211-1.271,0.308-4.619,0.309-4.653c-0.882-12.315,0.008-22.318,0.172-23.99c-0.507-0.354-2.266-0.96-3.784-1.359
			c-0.053-0.014-0.104-0.037-0.15-0.067c-1.205-0.803-0.701-2.441-0.188-3.331c0.625-2.377,4.311-20.419,4.348-20.603
			c2.724-13.884,5.598-16.81,6.326-17.348c1.449-2.537,10.405-6.896,11.438-7.393c1.609-0.896,6.176-3.186,6.9-3.548
			c0.878-0.979,2.658-1.479,3.176-1.606c0.985-0.902,2.354-1.08,3.009-1.11c0.54-1.798,0.696-7.884,0.719-10.976
			c-0.311,0.103-0.614,0.153-0.906,0.153c-2.188,0-2.931-2.723-2.961-2.839c-0.328-2.854-0.11-4.62,0.652-5.473
			c0.236-0.265,0.529-0.437,0.843-0.497c0.146-0.981,0.489-1.951,0.615-2.287C34.732,6.103,39.78,3.961,41.04,3.603
			C42.186,1.244,44.636,0,48.145,0c3.473,0,6.785,1.179,6.924,1.229c6.273,1.4,7.441,9.267,7.597,10.635
			c0.903,1,0.378,3.21,0.214,3.806c-0.044,1.088-1.011,3.473-1.512,4.643c0.35,0.098,0.655,0.29,0.901,0.569
			c0.927,1.054,0.761,3.042,0.713,3.465c0.081,0.954-0.365,2.328-0.417,2.484c-0.299,2.101-0.997,3.209-2.054,3.209
			c-0.326,0-0.623-0.115-0.867-0.259c-0.4,1.169-1.111,2.399-1.336,2.775l-0.175,3.843c0.012,0.032,0.02,0.066,0.023,0.102
			c0.123,1.251,0.254,1.935,0.363,2.308c0.656,0.031,2.023,0.209,3.007,1.11c0.518,0.128,2.298,0.627,3.176,1.607
			c0.724,0.362,5.29,2.652,6.924,3.56l0,0c0.001,0,0.407,0.196,1.052,0.521c1.26,0.541,2.141,0.914,2.142,0.915
			c0.119,0.05,0.213,0.145,0.264,0.263c0.013,0.029,0.025,0.061,0.038,0.094c4.533,2.438,7.194,4.316,7.918,5.589
			c0.729,0.538,3.603,3.466,6.327,17.351c0.037,0.181,3.722,18.223,4.347,20.6c0.513,0.89,1.017,2.528-0.188,3.331
			c-0.046,0.03-0.097,0.054-0.15,0.067c-1.517,0.399-3.275,1.006-3.784,1.359c0.165,1.674,1.054,11.68,0.171,24.04l0,0
			c0.002,0,0.1,3.335,0.333,4.689c0.016,0.021,0.934,2.577,0.735,6.137l0,0c0.003,0,0.293,5.145,0.858,8.859
			c0.174,0.377,0.79,1.941,0.085,3.914c-0.045,0.097-1.611,3.049-2.077,4.816c-0.047,0.267-0.362,1.81-1.144,2.291
			c-0.45,0.206-3.906,1.754-4.514,1.906c-0.059,0.015-0.122,0.019-0.18,0.011c-0.01-0.001-0.281-0.032-0.584-0.032
			c-0.419,0-0.541,0.062-0.542,0.062c-0.163,0.144-1.039,0.865-1.771,0.865c-0.306,0-0.564-0.116-0.747-0.337
			c-0.235-0.283-0.317-0.702-0.254-1.301c-0.331-0.149-0.735-0.424-0.836-0.893c-0.175-0.818,0.707-1.475,0.997-1.69
			c0.05-0.037,0.107-0.065,0.168-0.081c0.012-0.004,0.151-0.041,0.354-0.079c-0.13-0.083-0.249-0.148-0.345-0.187
			c-0.453,0.03-0.631-0.35-0.708-0.704c-0.436-0.015-0.795-0.168-1.042-0.446c-0.287-0.324-0.397-0.785-0.326-1.369
			c0.2-0.759,0.399-1.927,0.262-2.365c-0.018-0.055-0.025-0.112-0.022-0.17c0.002-0.051,0.057-1.222,0.586-2.655
			c0.024-0.575,0.176-3.902,0.542-5.684c0.066-0.199,1.167-3.245,2.416-4.439c0.087-0.391,0.3-1.249,0.579-1.758
			c-0.056-0.917-0.266-3.037-0.72-3.98c-0.024-0.06-2.16-6.518-2.743-8.217c-0.093-0.224-2.547-6.195-2.842-9.149
			c-0.01-0.078-0.294-2.312,0-5.585c-0.054-1.26-0.136-2.69-0.207-3.424c-0.696-0.059-1.148-0.812-1.345-2.245
			c-0.016-0.115-0.371-2.743,0.061-4.486c-0.12-0.253-0.339-0.747-0.526-1.33c-0.246,1.216-0.527,2.533-0.699,3.076
			c0.007,0.005-0.102,0.89-0.266,2.086c-0.107,2.206-0.638,4.985-0.66,5.103c-0.273,0.832-0.26,3.567-0.234,4.556
			c0.049,2.385-0.53,4.394-0.555,4.479c-0.013,0.043-0.031,0.083-0.054,0.121c-0.156,0.432,0.111,3.4,0.457,5.889
			c0.235,1.288,1.27,1.779,1.313,1.8c0.068,0.031,0.132,0.079,0.18,0.138c2.303,2.796,0.421,4.733,0.401,4.752
			c-0.033,0.033-0.07,0.062-0.11,0.084c-0.691,0.384-0.995,0.847-1.124,1.13c1.064,0.987,0.638,2.705,0.618,2.784
			c-0.664,2.521,1.196,5.249,1.214,5.276c3.921,3.909,2.809,8.269,2.211,10.61c-0.418,1.641,0.05,4.029,0.055,4.054
			c0.009,0.047,0.012,0.095,0.008,0.143c-0.115,1.264,0.783,7.142,1.138,9.3c0.627,1.912,1.082,12.626,1.101,13.081l0,11.293
			c0,1.237,0.202,5.955,0.204,6.003c0.118,1.29-0.6,1.98-1.204,2.268v0.596c0.317,0.639,0.382,1.253,0.194,1.828
			c-0.213,0.653-0.708,1.078-1.027,1.295c0.147,0.373,0.848,1.182,1.602,1.814c1.094,0.911,0.718,2.697,0.702,2.772
			c-0.025,0.749,0.678,2.864,0.953,3.608c0.313,0.782,0.322,2.068,0.322,2.213c0,0.038-0.004,0.075-0.013,0.112
			c-0.089,0.385,0.094,0.934,0.165,1.097c0.281,0.683,0.146,1.282-0.045,1.659c0.938,2.594,0.728,9.479,0.719,9.781
			c-0.048,1.789-0.843,10.633-0.876,11.009c-0.193,2.072-1.302,11.481-1.313,11.576c-0.416,3.787,0.492,6.096,0.501,6.119
			c0.426,1.117,0.378,1.979,0.376,2.016c-0.004,0.066-0.021,0.132-0.052,0.192c-0.096,0.192-0.136,0.405-0.15,0.583l0.088,0.008
			c0.039,0.004,0.076,0.012,0.113,0.023c0.075,0.025,0.17,0.038,0.282,0.038c0.56,0,1.24-0.307,1.247-0.31
			c0.036-0.016,0.074-0.028,0.112-0.036c1.039-0.2,1.505,0.15,1.731,0.435c0.211,0.264,0.281,0.573,0.296,0.829
			c0.179,0.098,0.325,0.238,0.426,0.357c0.833,0.122,2.239,0.573,2.412,0.629c0.506,0.209,0.605,0.5,0.605,0.71
			c0,0.442-0.434,0.658-0.567,0.714c-0.115,0.047-0.244,0.051-0.361,0.009c-0.503-0.181-1.757-0.454-2.276-0.564
			c-0.484,0.307-1.343,0.101-1.596-0.011c1.391,1.146,2.839,3.345,3.211,3.929c2.016,0.817,3.051,1.759,3.38,2.098
			c0.662,0.231,1.496,1.179,2.031,1.861c0.726,0.144,1.681,1.009,2.083,1.399c2.45,2.408,1.31,5.134,0.281,6.36l-0.131,1.473
			c-0.023,0.258-0.239,0.455-0.498,0.455h-3.741c-0.267,0-0.486-0.209-0.5-0.476c-0.069-0.326-1.278-1.085-2.69-1.717
			c-0.003,0.021-0.008,0.042-0.014,0.063l-0.255,0.91c0.122,0.261,0.494,0.844,0.838,1.337c0.108,0.092,0.177,0.229,0.177,0.382
			c0,0.279-0.227,0.472-0.51,0.5c-0.003,0-0.006,0-0.01,0h-1.943c-0.143,0-0.279-0.062-0.374-0.168
			c-0.095-0.107-0.14-0.25-0.123-0.393c0.097-0.797,0.027-1.14-0.019-1.267c-0.051-0.004-0.095-0.021-0.14-0.05
			c-0.054,0.096-0.204,0.346-0.289,0.562c-0.076,0.19-0.26,0.315-0.465,0.315h-2.381c-0.141,0-0.275-0.06-0.37-0.164
			s-0.141-0.244-0.127-0.385c0.014-0.354-0.932-1.527-2.146-2.704l-0.335,0.924c-0.072,0.197-0.26,0.329-0.47,0.329h-0.923
			c-0.284,0-0.475-0.001-0.602-0.003c-0.1,0.053-0.217,0.081-0.346,0.081c-0.58,0-1.662-0.679-2.1-0.971
			c-0.149-0.1-0.234-0.271-0.222-0.45l0.049-0.703c0.047-0.347-0.004-0.439-0.005-0.44c-0.07,0.028-0.185,0.071-0.237,0.096
			c-0.13,0.252-0.295,1.114-0.365,1.933c-0.022,0.259-0.238,0.458-0.498,0.458h-2.041c-0.267,0-0.486-0.209-0.5-0.476
			c-0.042-0.872-0.122-2.11-0.141-2.407c-1.413-4.179-0.889-6.441-0.866-6.536c0.318-1.185,0.278-2.523,0.278-2.537
			c0-1.311,0.319-1.903,0.649-2.165c-0.384-1.968-0.296-4.768-0.268-5.452c-0.493-0.951-0.962-3.698-1.056-4.271
			c-0.579-4.293-1.404-11.515-1.412-11.587c-0.097-3.558-2.328-9.341-2.351-9.399c-1.539-4.659-1.6-10.202-1.592-11.487
			c-0.563-0.513-0.536-1.429-0.53-1.545c0.179-1.264-0.027-2.014-0.03-2.021c-0.094-0.589-0.176-1.832-0.203-2.28
			c-0.752-0.988-0.634-2.449-0.597-2.775c-0.156-1.739,0.017-2.357,0.219-2.65c-0.275-0.859-0.775-2.021-0.942-2.402
			c-0.124-0.034-0.451-0.093-1.239-0.093c-0.821,0-1.666,0.065-1.674,0.065c-2.486-0.186-3.149-1.464-3.305-1.904
			c-0.912-1.102-1.04-2.016-1.037-2.453c-0.421-0.539-0.532-1.226-0.561-1.497c-0.815-1.711-1.288-3.675-1.308-3.759
			c-0.376-2.412-0.927-3.958-1.062-4.316c-0.527-0.61-0.56-1.577-0.556-1.869c-0.19-0.777-0.54-1.035-0.555-1.046
			c-0.042-0.03-0.09-0.074-0.121-0.115c-1.368-1.824-1.908-5.011-2.098-6.562c-0.527,0.802-0.965,2.775-1.091,3.484
			c-0.516,3.564-0.769,4.245-0.814,4.346c-0.612,1.709-2.262,5.611-2.571,6.339c0.072,1.166-0.282,1.939-0.297,1.973
			c-0.326,0.939-0.713,1.765-0.729,1.8c-0.021,0.043-0.047,0.083-0.079,0.119c-0.162,0.182-0.32,0.963-0.361,1.549
			c-0.006,0.088-0.035,0.172-0.083,0.245c-1.712,2.547-3.519,2.957-4.347,2.997c-0.45,1.104-1.414,2.759-1.688,3.223
			c0.015,2.78-0.627,3.825-1.039,4.209c-0.073,0.598-0.37,1.147-0.522,1.396c-0.033,0.788-0.28,2.692-0.292,2.778
			c0.003,1.317-0.223,1.971-0.385,2.27c-0.023,4.351-1.081,10.011-1.126,10.252c-0.44,2.394-2.976,9.225-3.083,9.515l-2.211,12.705
			c-0.576,1.79-1.179,9.214-1.185,9.288c-0.005,0.064-0.023,0.127-0.051,0.184c-0.11,0.22-0.12,0.964-0.063,1.589
			c1.036,1.21,0.384,2.275,0.354,2.322c-0.171,0.237-0.159,1.025-0.052,1.601c0.715,3.601,0.213,6.054,0.192,6.156
			c-0.011,0.05-0.029,0.099-0.055,0.144c-0.483,0.851-0.466,2.615-0.409,3.381c0.021,0.056,0.033,0.116,0.033,0.18
			c0,0.279-0.258,0.473-0.51,0.5c-0.003,0-0.006,0-0.01,0h-2.235c-0.267,0-0.486-0.209-0.5-0.476
			c-0.042-0.871-0.249-1.224-0.388-1.339c-0.138,0.232-0.281,0.82-0.314,1.346c-0.017,0.263-0.235,0.469-0.499,0.469h-4.985
			c-0.276,0-0.5-0.224-0.5-0.5c0,0.276-0.224,0.5-0.5,0.5h-0.005c-0.015,0.16-0.02,0.271-0.02,0.277
			c-0.009,0.247-0.198,0.451-0.444,0.479l-2.332,0.259c-0.143,0.017-0.288-0.03-0.395-0.131c-0.107-0.099-0.165-0.239-0.16-0.384
			c0.006-0.163,0.003-0.296-0.003-0.402c-0.105,0.201-0.219,0.459-0.312,0.711l-0.046,1.705
			C11.034,268.643,10.812,268.858,10.541,268.858z M6.356,264.341c0.264,0,0.593,0.03,0.799,0.268
			c0.065,0.076,0.106,0.169,0.118,0.269c0.046,0.396,0.136,0.468,0.381,0.481c0.137,0.008,0.265,0.071,0.354,0.176l0.875,1.032
			c0.095,0.112,0.136,0.26,0.112,0.405c-0.019,0.124-0.035,0.533,0.14,0.737c0.032,0.036,0.128,0.149,0.436,0.149h0.485l0.035-1.299
			c0.001-0.052,0.011-0.103,0.028-0.151c0.619-1.767,1.176-1.767,1.358-1.767c0.018,0,0.046,0.002,0.066,0.002
			c0.19,0,0.372,0.08,0.513,0.226c0.19,0.197,0.3,0.505,0.336,0.949l1.008-0.111c-0.087-0.091-0.141-0.213-0.141-0.349v-1.76
			c0-0.15,0.068-0.294,0.185-0.389s0.272-0.131,0.418-0.101l0.397,0.084c0.007-0.211,0.146-0.396,0.349-0.46
			c0.376-0.119,0.873-0.261,1.102-0.261c0.276,0,0.549,0.242,0.549,0.519v1.867h4.035c0.088-0.619,0.32-1.536,0.922-1.812
			c0.042-0.02,0.087-0.033,0.133-0.04c0.025-0.004,0.09-0.008,0.115-0.008c0.296,0,1.214,0.143,1.439,1.86h1.247
			c-0.032-0.845-0.012-2.469,0.515-3.478c0.071-0.405,0.403-2.621-0.208-5.693c-0.052-0.278-0.283-1.676,0.207-2.352
			c0.008-0.021,0.27-0.53-0.371-1.203c-0.075-0.079-0.122-0.18-0.134-0.288c-0.03-0.26-0.157-1.534,0.102-2.204
			c0.071-0.869,0.639-7.615,1.207-9.366l2.218-12.726c0.05-0.158,2.637-7.126,3.062-9.438c0.011-0.061,1.109-5.939,1.109-10.214
			c0-0.122,0.044-0.239,0.125-0.331c0,0,0,0.001,0,0.001c-0.004,0,0.264-0.443,0.264-1.858c0.084-0.678,0.291-2.375,0.291-2.866
			c0-0.101,0.031-0.199,0.087-0.282c0.125-0.183,0.447-0.759,0.447-1.225c0-0.203,0.123-0.386,0.311-0.463h0
			c-0.011,0,0.751-0.559,0.71-3.611c-0.001-0.093,0.023-0.185,0.071-0.264c0.014-0.024,1.434-2.396,1.8-3.497
			c0.078-0.231,0.307-0.374,0.552-0.336c0.05,0.011,1.893,0.183,3.71-2.446c0.041-0.457,0.169-1.442,0.546-1.94
			c0.089-0.195,0.406-0.9,0.685-1.697c0.02-0.05,0.299-0.683,0.216-1.638c-0.007-0.081,0.006-0.163,0.038-0.238
			c0.019-0.046,1.945-4.576,2.613-6.436c0.019-0.047,0.256-0.69,0.753-4.129c0.053-0.297,0.502-2.728,1.234-3.86
			c0.088-0.545,0.267-1.75,0.267-2.239c0-0.237,0.167-0.442,0.399-0.49c0.231-0.046,0.467,0.075,0.56,0.293
			c0.02,0.045,0.472,1.111,0.525,2.015c0.003,0.041,0.345,4.656,1.95,6.865c0.204,0.166,0.676,0.645,0.905,1.653
			c0.009,0.042,0.014,0.087,0.012,0.131c-0.009,0.234,0.034,0.972,0.34,1.277c0.047,0.047,0.084,0.103,0.109,0.163
			c0.029,0.07,0.708,1.74,1.149,4.583l0,0c0.001,0,0.48,1.979,1.268,3.6c0.029,0.06,0.045,0.125,0.049,0.19
			c0.013,0.206,0.115,0.81,0.438,1.133c0.117,0.117,0.168,0.284,0.138,0.447c-0.003,0.024-0.11,0.829,0.86,1.962
			c0.056,0.064,0.094,0.144,0.11,0.228c0.009,0.034,0.293,1.091,2.366,1.25c-0.036-0.003,0.817-0.068,1.675-0.068
			c1.495,0,1.894,0.19,2.076,0.519c0.054,0.116,0.864,1.933,1.163,3.026c0.047,0.174-0.002,0.358-0.129,0.485
			c-0.038,0.038-0.081,0.069-0.127,0.093c-0.05,0.159-0.143,0.657-0.02,1.985c0.003,0.039,0.002,0.079-0.003,0.117
			c-0.056,0.397-0.084,1.562,0.461,2.171c0.076,0.084,0.12,0.191,0.126,0.305c0.001,0.017,0.097,1.685,0.189,2.285l0,0
			c0.004,0,0.254,0.902,0.05,2.332c-0.005,0.18,0.061,0.646,0.263,0.746c0.173,0.087,0.28,0.266,0.276,0.459
			c-0.001,0.062-0.123,6.389,1.529,11.394c0.086,0.22,2.308,5.979,2.406,9.667c0.005,0.029,0.829,7.24,1.405,11.51
			c0.275,1.673,0.718,3.637,0.98,4.003c0.066,0.093,0.099,0.204,0.093,0.316c-0.002,0.037-0.184,3.692,0.325,5.732
			c0.041,0.16-0.001,0.331-0.112,0.454c-0.087,0.099-0.209,0.157-0.338,0.166c-0.054,0.055-0.263,0.334-0.263,1.348
			c0.002,0.043,0.046,1.481-0.309,2.802c-0.001,0.007-0.469,2.121,0.865,6.028c0.014,0.041,0.023,0.085,0.026,0.129
			c0,0,0.07,1.075,0.122,2.014h1.112c0.227-2.021,0.67-2.27,0.945-2.32c0.126-0.053,0.364-0.136,0.625-0.136
			c0.384,0,0.616,0.174,0.743,0.319c0.235,0.27,0.313,0.66,0.24,1.194l-0.025,0.374c0.478,0.299,0.966,0.552,1.207,0.626
			c0.073-0.042,0.156-0.068,0.24-0.072c0.047-0.006,0.091,0.001,0.135,0.011c0.108,0.002,0.308,0.004,0.669,0.004h0.573L77.258,263
			v-0.397c0-0.197,0.116-0.376,0.296-0.456c0.179-0.081,0.39-0.047,0.537,0.083c0.842,0.752,2.631,2.447,3.062,3.629h1.653
			c0.207-0.402,0.573-0.912,1.095-0.912c0.12,0,0.237,0.027,0.346,0.081c0.186,0.027,0.358,0.123,0.494,0.276
			c0.087,0.099,0.158,0.219,0.213,0.362c-0.014-0.123,0.015-0.195,0.042-0.265c0.01-0.026,0.023-0.052,0.039-0.076l0.224-0.799
			v-0.612c0-0.166,0.082-0.32,0.219-0.414c0.137-0.093,0.312-0.11,0.465-0.051c1.026,0.407,3.236,1.38,3.844,2.409h2.94l0.105-1.18
			c0.01-0.107,0.055-0.211,0.128-0.291c0.097-0.108,2.354-2.664-0.126-5.103c-0.598-0.581-1.352-1.123-1.58-1.135
			c-0.183,0.033-0.346-0.045-0.458-0.192c-0.646-0.846-1.438-1.643-1.695-1.704c-0.135-0.011-0.247-0.073-0.333-0.178
			c-0.008-0.009-0.944-1.091-3.248-1.994c-0.101-0.04-0.186-0.11-0.243-0.203c-0.018-0.029-1.86-2.987-3.358-4.032
			c-0.042-0.029-0.08-0.064-0.11-0.105l-0.486-0.632c-0.107-0.139-0.133-0.323-0.07-0.486s0.208-0.281,0.38-0.311
			c0.022-0.004,0.545-0.095,0.958-0.095c0.215,0,0.472,0.021,0.663,0.16c0.142,0.06,0.503,0.13,0.609,0.084
			c-0.057-0.069-0.125-0.133-0.16-0.147c-0.17,0.051-0.305,0.004-0.433-0.117s-0.136-0.302-0.097-0.475
			c0.021-0.103,0.034-0.364-0.068-0.49c-0.134-0.165-0.42-0.134-0.706-0.084c-0.273,0.116-1.419,0.511-2.14,0.303l-0.482-0.044
			c-0.231-0.021-0.417-0.198-0.45-0.428c-0.011-0.08-0.099-0.776,0.191-1.447c-0.002-0.209-0.037-0.792-0.309-1.506
			c-0.037-0.091-1.01-2.534-0.564-6.598c0.012-0.099,1.119-9.495,1.311-11.554c0.008-0.091,0.825-9.188,0.873-10.948
			c0.002-0.076,0.228-7.444-0.734-9.597c-0.078-0.174-0.05-0.378,0.072-0.524c0.024-0.032,0.28-0.384,0.068-0.898
			c-0.036-0.083-0.378-0.896-0.232-1.65c-0.004-0.378-0.056-1.306-0.255-1.804c-0.113-0.306-1.059-2.911-1.007-4.095
			c0.085-0.436,0.166-1.443-0.355-1.878c-0.688-0.576-2.252-2.021-1.943-3.011c0.042-0.133,0.137-0.242,0.262-0.302
			c0.004-0.002,0.616-0.308,0.798-0.88c0.108-0.337,0.046-0.725-0.185-1.151c-0.04-0.073-0.061-0.155-0.061-0.238v-1.069
			c0-0.235,0.165-0.439,0.395-0.489c0.148-0.035,0.911-0.274,0.812-1.36c-0.01-0.219-0.207-4.811-0.207-6.069v-11.272
			c-0.128-3.041-0.57-11.325-1.07-12.866c-0.07-0.39-1.279-7.762-1.17-9.551c-0.081-0.434-0.467-2.716-0.03-4.428
			c0.759-2.976,1.292-6.426-2.007-9.726c-0.146-0.196-2.196-3.208-1.417-6.166c0.002-0.01,0.34-1.402-0.499-1.927
			c-0.168-0.105-0.259-0.301-0.229-0.498c0.008-0.051,0.2-1.233,1.642-2.069c0.196-0.236,1.033-1.44-0.438-3.29
			c-0.372-0.202-1.488-0.931-1.772-2.493c-0.353-2.537-0.689-5.642-0.368-6.473c0.063-0.229,0.551-2.062,0.508-4.149
			c-0.01-0.379-0.089-3.76,0.268-4.833v0.001c-0.004,0,0.524-2.779,0.631-4.942c0.175-1.291,0.286-2.198,0.286-2.198
			c0.347-1.121,1.163-5.479,1.171-5.523c0.041-0.219,0.221-0.384,0.443-0.406c0.22-0.005,0.431,0.106,0.513,0.312l0.194,0.485
			c0.03,0.075,0.042,0.157,0.033,0.239c-0.106,0.991,0.558,2.554,0.822,3.072c0.058,0.114,0.07,0.246,0.034,0.369
			c-0.45,1.53-0.084,4.231-0.081,4.259c0.168,1.224,0.456,1.387,0.458,1.388c0.126-0.107,0.292-0.145,0.451-0.099
			c0.159,0.045,0.28,0.165,0.332,0.322c0.152,0.456,0.273,3.103,0.317,4.219c-0.285,3.22-0.006,5.425-0.004,5.446
			c0.283,2.823,2.759,8.851,2.785,8.911c0.594,1.729,2.733,8.195,2.733,8.195c0.644,1.327,0.796,4.33,0.802,4.457
			c0.005,0.111-0.026,0.221-0.09,0.312c-0.193,0.275-0.438,1.165-0.551,1.709c-0.023,0.109-0.082,0.209-0.168,0.281
			c-0.912,0.766-1.92,3.192-2.231,4.062c-0.357,1.765-0.504,5.496-0.506,5.534c-0.002,0.054-0.013,0.107-0.032,0.157
			c-0.424,1.117-0.525,2.083-0.546,2.348c0.215,0.894-0.18,2.444-0.265,2.757c-0.02,0.209,0.009,0.417,0.096,0.515
			c0.085,0.097,0.265,0.11,0.363,0.11c0.138,0,0.248-0.025,0.249-0.026c0.144-0.032,0.299-0.005,0.418,0.085
			c0.119,0.089,0.194,0.226,0.203,0.374c0.007,0.138,0.019,0.235,0.03,0.304c0.723,0.242,1.74,1.156,1.947,1.347
			c0.193,0.179,0.216,0.477,0.051,0.682c-0.165,0.204-0.461,0.249-0.677,0.096c-0.003-0.002-0.09-0.061-0.382-0.061
			c-0.331,0-0.695,0.074-0.86,0.112c-0.532,0.413-0.538,0.616-0.537,0.618c0.018,0.072,0.284,0.226,0.522,0.278
			c0.264,0.058,0.434,0.315,0.384,0.581c-0.138,0.729-0.023,0.906-0.022,0.907c0.234-0.026,0.795-0.389,1.101-0.65
			c0.2-0.202,0.575-0.303,1.188-0.303c0.244,0,0.471,0.017,0.598,0.028c0.563-0.183,2.838-1.178,4.214-1.795
			c0.205-0.132,0.513-0.957,0.636-1.626c0.503-1.918,2.073-4.878,2.14-5.003c0.611-1.725-0.069-3.071-0.099-3.128
			c-0.025-0.048-0.043-0.103-0.051-0.156c-0.58-3.771-0.876-9.033-0.879-9.086c0.186-3.398-0.691-5.856-0.7-5.881
			c-0.269-1.514-0.365-4.826-0.37-4.966c0.958-13.447-0.18-24.05-0.191-24.155c-0.013-0.122,0.019-0.245,0.09-0.345
			c0.519-0.729,3.154-1.499,4.365-1.821c0.631-0.531-0.2-1.989-0.208-2.005c-0.023-0.039-0.042-0.081-0.054-0.125
			c-0.581-2.129-4.225-19.971-4.38-20.729c-2.882-14.688-5.951-16.751-5.982-16.771c-0.081-0.051-0.157-0.13-0.198-0.215
			c-0.502-1.047-3.321-3.001-7.731-5.363c-0.118-0.062-0.205-0.17-0.243-0.298c-0.001-0.004-0.002-0.008-0.003-0.011
			c-0.332-0.142-1.047-0.446-1.972-0.845c-0.682-0.342-1.087-0.537-1.089-0.538c-1.745-0.968-6.95-3.571-7.002-3.598
			c-0.063-0.031-0.119-0.076-0.164-0.131c-0.626-0.767-2.254-1.258-2.828-1.383c-0.094-0.021-0.18-0.067-0.248-0.135
			c-0.88-0.88-2.358-0.925-2.646-0.925c-0.204-0.015-0.476-0.103-0.562-0.283c-0.22-0.463-0.396-1.354-0.538-2.722
			c-0.039-0.069-0.06-0.149-0.056-0.234l0.19-4.18c0.004-0.085,0.029-0.168,0.074-0.24c0.012-0.021,1.22-1.983,1.49-3.333
			c0.038-0.188,0.18-0.339,0.366-0.387c0.184-0.049,0.383,0.015,0.507,0.163c0.1,0.116,0.456,0.453,0.759,0.453
			c0.352,0,0.822-0.641,1.084-2.439c0.146-0.463,0.456-1.579,0.386-2.204c-0.004-0.04-0.004-0.08,0.001-0.119
			c0.068-0.537,0.116-2.076-0.465-2.735c-0.208-0.236-0.477-0.332-0.843-0.299c-0.18,0.011-0.348-0.064-0.45-0.209
			s-0.121-0.333-0.048-0.494c0.686-1.523,1.705-4.098,1.705-4.944c0-0.046,0.006-0.093,0.019-0.137
			c0.276-0.97,0.458-2.584-0.026-2.971c-0.106-0.086-0.174-0.211-0.186-0.347c-0.008-0.086-0.826-8.595-6.899-9.953
			C54.697,2.158,51.438,1,48.145,1c-3.238,0-5.356,1.087-6.294,3.231c-0.067,0.154-0.208,0.265-0.375,0.293
			c-0.235,0.043-5.822,1.194-4.445,12.662c0.01,0.083-0.001,0.167-0.032,0.245c-0.005,0.014-0.556,1.404-0.646,2.573
			c-0.012,0.152-0.092,0.291-0.219,0.377c-0.127,0.084-0.286,0.107-0.431,0.062c-0.161,0-0.281,0.063-0.392,0.188
			c-0.312,0.349-0.78,1.412-0.417,4.623l0,0c0.006,0,0.581,2.022,1.981,2.022c0.35,0,0.741-0.121,1.163-0.359
			c0.155-0.089,0.344-0.088,0.499,0.003c0.153,0.089,0.248,0.254,0.248,0.432c0,1.075-0.026,10.563-0.923,12.457
			c-0.085,0.183-0.259,0.326-0.476,0.285c-0.381-0.041-1.852,0.044-2.732,0.924c-0.068,0.067-0.154,0.114-0.247,0.135
			c-0.575,0.126-2.205,0.619-2.829,1.382c-0.044,0.055-0.1,0.1-0.163,0.131c-0.052,0.026-5.257,2.63-6.978,3.586
			c-2.793,1.344-10.169,5.204-11.063,7.067c-0.045,0.094-0.119,0.172-0.211,0.223c-0.018,0.012-3.087,2.074-5.968,16.759
			c-0.156,0.762-3.8,18.604-4.381,20.732c-0.012,0.043-0.03,0.086-0.053,0.125c-0.009,0.015-0.847,1.47-0.209,2.005
			c1.21,0.322,3.846,1.093,4.365,1.821c0.072,0.1,0.104,0.223,0.09,0.345c-0.012,0.105-1.149,10.708-0.193,24.105
			c-0.003,0.189-0.099,3.503-0.345,4.931c-0.032,0.11-0.908,2.567-0.723,5.911c-0.003,0.107-0.299,5.371-0.879,9.141
			c-0.008,0.056-0.026,0.109-0.053,0.158c-0.028,0.055-0.708,1.401-0.068,3.193c0.037,0.059,1.607,3.018,2.102,4.899
			c0.131,0.706,0.439,1.531,0.702,1.693c1.321,0.589,3.592,1.581,4.156,1.765c0.127-0.012,0.355-0.029,0.6-0.029
			c0.613,0,0.987,0.102,1.215,0.329c0.276,0.234,0.833,0.596,1.093,0.599c0.003-0.023,0.079-0.235-0.044-0.882
			c-0.05-0.266,0.12-0.523,0.384-0.581c0.242-0.056,0.504-0.206,0.522-0.278c0-0.002-0.006-0.205-0.537-0.618
			c-0.165-0.038-0.529-0.112-0.86-0.112c-0.292,0-0.378,0.059-0.382,0.061c-0.216,0.153-0.511,0.108-0.676-0.096
			c-0.165-0.205-0.143-0.503,0.051-0.682c0.207-0.19,1.225-1.104,1.947-1.347c0.011-0.068,0.023-0.166,0.03-0.304
			c0.008-0.149,0.083-0.288,0.204-0.377c0.121-0.09,0.274-0.12,0.42-0.081l0,0c0,0,0.108,0.025,0.245,0.025
			c0.099,0,0.278-0.014,0.363-0.11c0.086-0.098,0.116-0.306,0.082-0.585c-0.071-0.244-0.466-1.792-0.25-2.686
			c-0.021-0.265-0.123-1.23-0.546-2.348c-0.019-0.05-0.03-0.104-0.032-0.157c-0.001-0.038-0.149-3.771-0.525-5.604
			c-0.293-0.803-1.302-3.229-2.212-3.993c-0.086-0.072-0.146-0.171-0.168-0.281c-0.113-0.544-0.358-1.435-0.551-1.711
			c-0.063-0.091-0.095-0.2-0.09-0.311c0.006-0.127,0.159-3.128,0.826-4.516c-0.004,0,2.118-6.414,2.698-8.108
			c0.036-0.089,2.513-6.116,2.793-8.924c0.004-0.036,0.282-2.241,0-5.396c0.043-1.182,0.164-3.829,0.315-4.285
			c0.052-0.157,0.179-0.278,0.339-0.323c0.158-0.045,0.331-0.008,0.458,0.099c0.001-0.006,0.281-0.185,0.446-1.386
			c0.003-0.027,0.368-2.731-0.082-4.261c-0.036-0.122-0.024-0.255,0.034-0.368c0.265-0.519,0.929-2.081,0.823-3.071
			c-0.009-0.082,0.002-0.164,0.033-0.239l0.194-0.485c0.083-0.206,0.298-0.317,0.513-0.312c0.222,0.022,0.402,0.188,0.443,0.406
			c0.008,0.044,0.824,4.402,1.151,5.431c0.391,3.137,1.141,8.276,1.57,9.103c0.042,0.081,0.062,0.172,0.056,0.264
			c-0.079,1.189-0.194,4.547,0.218,5.785c0.03,0.089,0.034,0.185,0.012,0.275c-0.019,0.078-1.884,7.861-1.979,11.411
			c-0.002,0.08-0.024,0.159-0.063,0.229c-0.269,0.483-0.951,2.033-0.573,2.788c0.092,0.184,0.062,0.405-0.076,0.559
			c-0.08,0.089-1.946,2.204-0.499,3.689c0.094,0.097,0.145,0.228,0.141,0.362c-0.004,0.136-0.062,0.264-0.162,0.354
			c-0.01,0.01-1.042,0.971-1.62,2.482c-0.013,0.033-0.03,0.067-0.05,0.098c-0.013,0.019-1.245,1.934-0.798,4.747
			c0.006,0.315,0.002,5.924-0.34,8.029c-0.009,0.057-0.91,5.539-0.726,7.151c0.006,0.049,0.004,0.099-0.005,0.147
			c-0.01,0.052-0.957,5.201-0.772,7.1c-0.002,0.158-0.387,8.796-0.435,11.766c0.057,1.532,0.543,15.253-0.026,16.961
			c-0.079,0.359-0.23,2.294,0.088,2.771c0.084,0.127,0.106,0.286,0.06,0.431c-0.221,0.688-0.283,1.593-0.034,1.775
			c2.183,1.79,2.004,2.325,1.927,2.553c-0.03,0.076-1.8,4.343-2.223,6.082c-0.507,1.167-1.188,3.168-0.976,3.925
			c0.029,0.103,0.024,0.212-0.014,0.312c-0.02,0.052-1.94,5.267-1.136,14.111c0.007,0.115,0.636,10.209,1.02,14.381
			c0.021,0.337,0.486,7.926,0.089,9.863c-0.012,0.061-0.036,0.118-0.07,0.171c-0.723,1.119-1.74,2.95-1.74,3.518
			c0,0.246-0.18,0.456-0.423,0.494c-0.456,0.071-0.959,0.215-1.154,0.325v1.513c0,0.156-0.073,0.304-0.197,0.397
			c-0.124,0.096-0.284,0.129-0.436,0.084c-0.015-0.004-1.509-0.413-2.662-0.413c-0.651,0-0.966,0.133-0.989,0.264
			c-0.008,0.045-0.022,0.088-0.042,0.129c0.026-0.037,0.2,0.396,1.801,0.857c0.189,0.055,0.329,0.216,0.356,0.41
			c0.009,0.062,0.006,0.124-0.008,0.183c0.349-0.2,0.653-0.37,0.839-0.463c0.195-0.097,0.433-0.057,0.583,0.101
			c0.152,0.158,0.183,0.396,0.078,0.588c-0.221,0.4-0.411,0.899-0.399,1.046c0.128,0.226,0.035,0.436-0.179,0.583
			c-0.438,0.301-0.896,0.705-0.964,0.85c-0.035,0.141-0.123,0.237-0.253,0.303c-0.542,0.272-1.099,0.704-1.145,0.889
			c-0.035,0.139-0.127,0.256-0.254,0.322c-0.451,0.235-1.252,0.779-1.481,1.237c-0.036,0.071-0.088,0.133-0.152,0.181
			c-1.202,0.876-2.582,2.037-2.723,2.37c-0.014,0.17-0.103,0.261-0.253,0.34c-0.786,0.414-2.812,1.789-2.745,3.166
			c0.002,0.052-0.003,0.104-0.017,0.154c-0.008,0.034-0.228,1.052,1.012,2.292c0.185,0.184,0.184,0.411,0.183,0.789
			c0,0.113-0.001,0.317,0.012,0.453c0.179,0.046,0.53,0.131,0.815,0.131c0.208,0,0.271-0.045,0.271-0.045
			c0.021-0.131,0.09-0.246,0.199-0.323c0.107-0.078,0.237-0.106,0.37-0.084c0.004,0.001,0.453,0.076,0.862,0.076
			c0.129,0,0.221-0.007,0.286-0.017c-0.002-0.082,0-0.177,0.009-0.278c-0.06-0.082-0.096-0.185-0.096-0.294
			c0-0.272,0.217-0.519,0.488-0.525c0.114-0.078,0.249-0.122,0.391-0.124C5.822,264.379,6.096,264.341,6.356,264.341z
			 M85.083,266.858h0.454c-0.267-0.416-0.419-0.701-0.501-0.904C85.084,266.203,85.1,266.502,85.083,266.858z M16.528,140.747
			c0.529,1.434,0.584,2.604,0.586,2.655c0.002,0.058-0.005,0.115-0.022,0.17c-0.138,0.44,0.062,1.606,0.249,2.294
			c0.025,0.196,0.033,0.375,0.024,0.538c0.204-1.616,0.438-3.045,0.458-3.16c0.33-2.025,0.333-7.732,0.333-7.79
			c-0.469-2.912,0.707-4.975,0.926-5.328c0.454-1.163,1.126-2.023,1.527-2.47c-1.1-1.544-0.214-3.436,0.585-4.446
			c-0.352-1.218,0.414-2.824,0.659-3.291c0.125-3.476,1.715-10.291,1.97-11.364c-0.458-1.616-0.275-5.172-0.232-5.9
			c-0.648-1.576-1.496-8.415-1.593-9.214c-0.161-0.492-0.438-1.786-0.682-2.991c-0.187,0.582-0.406,1.077-0.526,1.329
			c0.432,1.744,0.077,4.372,0.061,4.487c-0.196,1.432-0.649,2.187-1.345,2.244c-0.071,0.734-0.152,2.178-0.205,3.489
			c0.292,3.208,0.008,5.441-0.004,5.535c-0.293,2.938-2.747,8.91-2.851,9.162c-0.572,1.672-2.708,8.13-2.708,8.13
			c-0.477,0.999-0.688,3.122-0.744,4.039c0.278,0.51,0.491,1.368,0.578,1.759c1.25,1.193,2.349,4.237,2.397,4.37
			C16.351,136.839,16.503,140.171,16.528,140.747z"/>
	</g>
	<g>
		<path fill="#EC4E43" d="M46.705,74.976c0.071,0.213-23.738-11.26-23.738-11.26l6.318,7.343l-8.436-4.378l-0.059,2.346
			l13.261,5.209l-4.871-6.212l17.296,7.483L46.705,74.976z"/>
	</g>
	<g>
		<g>
			<polygon fill="none" points="36.451,73.317 36.76,73.694 36.76,73.444 			"/>
		</g>
		<g>
			<polygon fill="none" points="39.258,74.454 39.258,76.724 39.748,77.323 39.748,74.655 			"/>
		</g>
		<g>
			<polygon fill="none" points="38.66,74.214 38.66,76 39.15,76.598 39.15,74.413 			"/>
		</g>
		<g>
			<polygon fill="none" points="36.868,73.486 36.868,73.822 37.359,74.419 37.359,73.687 			"/>
		</g>
		<g>
			<polygon fill="none" points="36.099,75.647 35.671,75.147 35.671,75.524 			"/>
		</g>
		<g>
			<polygon fill="none" points="29.699,73.794 29.699,75.989 30.188,76.129 30.188,73.937 			"/>
		</g>
		<g>
			<polygon fill="none" points="20.737,71.2 20.737,73.437 21.227,73.575 21.227,71.345 			"/>
		</g>
		<g>
			<polygon fill="none" points="26.114,72.758 26.114,74.966 26.604,75.106 26.604,72.897 			"/>
		</g>
		<g>
			<polygon fill="none" points="25.517,72.585 25.517,74.796 26.008,74.937 26.008,72.728 			"/>
		</g>
		<g>
			<polygon fill="none" points="24.919,72.411 24.919,74.626 25.409,74.767 25.409,72.554 			"/>
		</g>
		<g>
			<polygon fill="none" points="27.307,73.104 27.307,75.308 27.799,75.448 27.799,73.245 			"/>
		</g>
		<g>
			<polygon fill="none" points="24.322,72.237 24.322,74.456 24.812,74.596 24.812,72.381 			"/>
		</g>
		<g>
			<polygon fill="none" points="30.295,73.968 30.295,76.158 30.788,76.297 30.788,74.108 			"/>
		</g>
		<g>
			<polygon fill="none" points="23.724,72.065 23.724,74.286 24.214,74.425 24.214,72.209 			"/>
		</g>
		<g>
			<polygon fill="none" points="27.904,73.276 27.904,75.478 28.397,75.618 28.397,73.419 			"/>
		</g>
		<g>
			<polygon fill="none" points="41.394,79.319 41.046,78.901 41.046,79.221 			"/>
		</g>
		<g>
			<polygon fill="none" points="26.711,72.931 26.711,75.137 27.203,75.278 27.203,73.072 			"/>
		</g>
		<g>
			<polygon fill="none" points="21.333,71.373 21.333,73.606 21.824,73.745 21.824,71.516 			"/>
		</g>
		<g>
			<polygon fill="none" points="28.503,73.449 28.503,75.647 28.995,75.787 28.995,73.593 			"/>
		</g>
		<g>
			<polygon fill="none" points="29.101,73.622 29.101,75.817 29.592,75.958 29.592,73.764 			"/>
		</g>
		<g>
			<polygon fill="none" points="22.528,71.721 22.528,73.944 23.02,74.086 23.02,71.862 			"/>
		</g>
		<g>
			<polygon fill="none" points="21.932,71.546 21.932,73.774 22.422,73.915 22.422,71.688 			"/>
		</g>
		<g>
			<polygon fill="none" points="23.126,71.892 23.126,74.116 23.617,74.257 23.617,72.034 			"/>
		</g>
		<g>
			<polygon fill="none" points="35.671,71.63 35.671,75.147 36.099,75.647 35.671,75.524 35.671,77.688 36.163,77.829 36.163,71.85 
							"/>
		</g>
		<g>
			<polygon fill="none" points="39.748,74.655 39.748,73.438 39.258,73.22 39.258,74.454 			"/>
		</g>
		<g>
			<polygon fill="none" points="35.074,75.352 35.074,77.519 35.565,77.659 35.565,75.493 			"/>
		</g>
		<g>
			<polygon fill="none" points="40.942,75.14 40.942,73.967 40.452,73.747 40.452,74.94 			"/>
		</g>
		<g>
			<polygon fill="none" points="42.244,74.541 42.244,75.667 42.736,75.867 42.736,74.761 			"/>
		</g>
		<g>
			<polygon fill="none" points="40.346,74.898 40.346,73.702 39.853,73.485 39.853,74.698 			"/>
		</g>
		<g>
			<polygon fill="none" points="32.088,74.486 32.088,76.667 32.579,76.808 32.579,74.629 			"/>
		</g>
		<g>
			<polygon fill="none" points="31.49,74.313 31.49,76.499 31.982,76.638 31.982,74.456 			"/>
		</g>
		<g>
			<polygon fill="none" points="30.893,74.142 30.893,76.329 31.384,76.468 31.384,74.284 			"/>
		</g>
		<g>
			<polygon fill="none" points="34.477,75.179 34.477,77.349 34.97,77.489 34.97,75.32 			"/>
		</g>
		<g>
			<polygon fill="none" points="33.879,75.005 33.879,77.178 34.372,77.319 34.372,75.148 			"/>
		</g>
		<g>
			<polygon fill="none" points="32.686,74.661 32.686,76.838 33.175,76.978 33.175,74.803 			"/>
		</g>
		<g>
			<polygon fill="none" points="33.282,74.833 33.282,77.009 33.773,77.148 33.773,74.975 			"/>
		</g>
		<g>
			<polygon fill="none" points="38.062,75.274 38.062,78.37 38.554,78.511 38.554,75.87 			"/>
		</g>
		<g>
			<polygon fill="none" points="31.384,70.104 31.384,69.732 30.893,69.515 30.893,69.527 			"/>
		</g>
		<g>
			<polygon fill="none" points="38.66,76 38.66,78.54 39.15,78.681 39.15,76.598 			"/>
		</g>
		<g>
			<polygon fill="none" points="39.853,77.449 39.853,78.882 40.346,79.021 40.346,78.047 			"/>
		</g>
		<g>
			<polygon fill="none" points="39.258,76.724 39.258,78.711 39.748,78.851 39.748,77.323 			"/>
		</g>
		<g>
			<polygon fill="none" points="40.452,78.175 40.452,79.051 40.942,79.189 40.942,78.771 			"/>
		</g>
		<g>
			<polygon fill="none" points="41.646,74.278 41.646,75.425 42.138,75.624 42.138,74.495 			"/>
		</g>
		<g>
			<polygon fill="none" points="41.046,74.013 41.046,75.184 41.542,75.382 41.542,74.23 			"/>
		</g>
		<g>
			<polygon fill="none" points="37.465,74.549 37.465,78.199 37.957,78.34 37.957,75.146 			"/>
		</g>
		<g>
			<polygon fill="none" points="37.957,73.927 37.957,72.643 37.465,72.425 37.465,73.728 			"/>
		</g>
		<g>
			<polygon fill="none" points="37.359,73.687 37.359,72.379 36.868,72.161 36.868,73.486 			"/>
		</g>
		<g>
			<polygon fill="none" points="38.554,74.171 38.554,72.907 38.062,72.69 38.062,73.972 			"/>
		</g>
		<g>
			<polygon fill="none" points="39.15,74.413 39.15,73.173 38.66,72.953 38.66,74.214 			"/>
		</g>
		<g>
			<polygon fill="none" points="36.868,73.822 36.868,78.03 37.359,78.169 37.359,74.419 			"/>
		</g>
		<g>
			<polygon fill="none" points="36.451,73.317 36.76,73.444 36.76,72.114 36.269,71.896 36.269,77.858 36.76,78.001 36.76,73.694 
							"/>
		</g>
		<g>
			<polygon fill="none" points="32.579,71.51 32.579,70.263 32.088,70.042 32.088,70.934 			"/>
		</g>
		<g>
			<polygon fill="none" points="31.982,70.807 31.982,69.996 31.49,69.778 31.49,70.229 			"/>
		</g>
		<g>
			<polygon fill="none" points="34.372,73.618 34.372,71.054 33.879,70.836 33.879,73.04 			"/>
		</g>
		<g>
			<polygon fill="none" points="33.773,72.915 33.773,70.79 33.282,70.571 33.282,72.339 			"/>
		</g>
		<g>
			<polygon fill="none" points="33.175,72.212 33.175,70.526 32.686,70.308 32.686,71.635 			"/>
		</g>
		<g>
			<polygon fill="none" points="34.97,74.321 34.97,71.319 34.477,71.103 34.477,73.741 			"/>
		</g>
		<g>
			<polygon fill="none" points="35.565,75.022 35.565,71.584 35.074,71.366 35.074,74.444 			"/>
		</g>
		<g>
			<polygon fill="#EC4E43" points="20.63,71.171 20.63,73.404 20.737,73.437 20.737,71.2 			"/>
		</g>
		<g>
			<polygon fill="#EC4E43" points="21.227,71.345 21.227,73.575 21.333,73.606 21.333,71.373 			"/>
		</g>
		<g>
			<polygon fill="#EC4E43" points="21.824,71.516 21.824,73.745 21.932,73.774 21.932,71.546 			"/>
		</g>
		<g>
			<polygon fill="#EC4E43" points="22.422,71.688 22.422,73.915 22.528,73.944 22.528,71.721 			"/>
		</g>
		<g>
			<polygon fill="#EC4E43" points="23.02,71.862 23.02,74.086 23.126,74.116 23.126,71.892 			"/>
		</g>
		<g>
			<polygon fill="#EC4E43" points="23.617,72.034 23.617,74.257 23.724,74.286 23.724,72.065 			"/>
		</g>
		<g>
			<polygon fill="#EC4E43" points="24.214,72.209 24.214,74.425 24.322,74.456 24.322,72.237 			"/>
		</g>
		<g>
			<polygon fill="#EC4E43" points="24.812,72.381 24.812,74.596 24.919,74.626 24.919,72.411 			"/>
		</g>
		<g>
			<polygon fill="#EC4E43" points="25.409,72.554 25.409,74.767 25.517,74.796 25.517,72.585 			"/>
		</g>
		<g>
			<polygon fill="#EC4E43" points="26.008,72.728 26.008,74.937 26.114,74.966 26.114,72.758 			"/>
		</g>
		<g>
			<polygon fill="#EC4E43" points="26.604,72.897 26.604,75.106 26.711,75.137 26.711,72.931 			"/>
		</g>
		<g>
			<polygon fill="#EC4E43" points="27.203,73.072 27.203,75.278 27.307,75.308 27.307,73.104 			"/>
		</g>
		<g>
			<polygon fill="#EC4E43" points="27.799,73.245 27.799,75.448 27.904,75.478 27.904,73.276 			"/>
		</g>
		<g>
			<polygon fill="#EC4E43" points="28.397,73.419 28.397,75.618 28.503,75.647 28.503,73.449 			"/>
		</g>
		<g>
			<polygon fill="#EC4E43" points="28.995,73.593 28.995,75.787 29.101,75.817 29.101,73.622 			"/>
		</g>
		<g>
			<polygon fill="#EC4E43" points="29.592,73.764 29.592,75.958 29.699,75.989 29.699,73.794 			"/>
		</g>
		<g>
			<polygon fill="#EC4E43" points="30.188,73.937 30.188,76.129 30.295,76.158 30.295,73.968 			"/>
		</g>
		<g>
			<polygon fill="#EC4E43" points="30.788,74.108 30.788,76.297 30.893,76.329 30.893,74.142 			"/>
		</g>
		<g>
			<polygon fill="#EC4E43" points="30.893,69.527 30.893,69.515 30.874,69.505 			"/>
		</g>
		<g>
			<polygon fill="#EC4E43" points="31.49,70.229 31.49,69.778 31.384,69.732 31.384,70.104 			"/>
		</g>
		<g>
			<polygon fill="#EC4E43" points="31.384,74.284 31.384,76.468 31.49,76.499 31.49,74.313 			"/>
		</g>
		<g>
			<polygon fill="#EC4E43" points="32.088,70.934 32.088,70.042 31.982,69.996 31.982,70.807 			"/>
		</g>
		<g>
			<polygon fill="#EC4E43" points="31.982,74.456 31.982,76.638 32.088,76.667 32.088,74.486 			"/>
		</g>
		<g>
			<polygon fill="#EC4E43" points="32.686,71.635 32.686,70.308 32.579,70.263 32.579,71.51 			"/>
		</g>
		<g>
			<polygon fill="#EC4E43" points="32.579,74.629 32.579,76.808 32.686,76.838 32.686,74.661 			"/>
		</g>
		<g>
			<polygon fill="#EC4E43" points="33.282,72.339 33.282,70.571 33.175,70.526 33.175,72.212 			"/>
		</g>
		<g>
			<polygon fill="#EC4E43" points="33.175,74.803 33.175,76.978 33.282,77.009 33.282,74.833 			"/>
		</g>
		<g>
			<polygon fill="#EC4E43" points="33.879,73.04 33.879,70.836 33.773,70.79 33.773,72.915 			"/>
		</g>
		<g>
			<polygon fill="#EC4E43" points="33.773,74.975 33.773,77.148 33.879,77.178 33.879,75.005 			"/>
		</g>
		<g>
			<polygon fill="#EC4E43" points="34.477,73.741 34.477,71.103 34.372,71.054 34.372,73.618 			"/>
		</g>
		<g>
			<polygon fill="#EC4E43" points="34.372,75.148 34.372,77.319 34.477,77.349 34.477,75.179 			"/>
		</g>
		<g>
			<polygon fill="#EC4E43" points="35.074,74.444 35.074,71.366 34.97,71.319 34.97,74.321 			"/>
		</g>
		<g>
			<polygon fill="#EC4E43" points="34.97,75.32 34.97,77.489 35.074,77.519 35.074,75.352 			"/>
		</g>
		<g>
			<polygon fill="#EC4E43" points="35.565,75.493 35.565,77.659 35.671,77.688 35.671,75.524 			"/>
		</g>
		<g>
			<polygon fill="#EC4E43" points="35.671,75.147 35.671,71.63 35.565,71.584 35.565,75.022 			"/>
		</g>
		<g>
			<polygon fill="#EC4E43" points="36.163,71.85 36.163,77.829 36.269,77.858 36.269,71.896 			"/>
		</g>
		<g>
			<polygon fill="#EC4E43" points="36.868,73.486 36.868,72.161 36.76,72.114 36.76,73.444 			"/>
		</g>
		<g>
			<polygon fill="#EC4E43" points="36.76,73.694 36.76,78.001 36.868,78.03 36.868,73.822 			"/>
		</g>
		<g>
			<polygon fill="#EC4E43" points="37.359,74.419 37.359,78.169 37.465,78.199 37.465,74.549 			"/>
		</g>
		<g>
			<polygon fill="#EC4E43" points="37.465,73.728 37.465,72.425 37.359,72.379 37.359,73.687 			"/>
		</g>
		<g>
			<polygon fill="#EC4E43" points="37.957,75.146 37.957,78.34 38.062,78.37 38.062,75.274 			"/>
		</g>
		<g>
			<polygon fill="#EC4E43" points="38.062,73.972 38.062,72.69 37.957,72.643 37.957,73.927 			"/>
		</g>
		<g>
			<polygon fill="#EC4E43" points="38.66,74.214 38.66,72.953 38.554,72.907 38.554,74.171 			"/>
		</g>
		<g>
			<polygon fill="#EC4E43" points="38.554,75.87 38.554,78.511 38.66,78.54 38.66,76 			"/>
		</g>
		<g>
			<polygon fill="#EC4E43" points="39.15,76.598 39.15,78.681 39.258,78.711 39.258,76.724 			"/>
		</g>
		<g>
			<polygon fill="#EC4E43" points="39.258,74.454 39.258,73.22 39.15,73.173 39.15,74.413 			"/>
		</g>
		<g>
			<polygon fill="#EC4E43" points="39.748,77.323 39.748,78.851 39.853,78.882 39.853,77.449 			"/>
		</g>
		<g>
			<polygon fill="#EC4E43" points="39.853,74.698 39.853,73.485 39.748,73.438 39.748,74.655 			"/>
		</g>
		<g>
			<polygon fill="#EC4E43" points="40.346,78.047 40.346,79.021 40.452,79.051 40.452,78.175 			"/>
		</g>
		<g>
			<polygon fill="#EC4E43" points="40.452,74.94 40.452,73.747 40.346,73.702 40.346,74.898 			"/>
		</g>
		<g>
			<polygon fill="#EC4E43" points="40.942,79.189 41.046,79.221 41.046,78.901 40.942,78.771 			"/>
		</g>
		<g>
			<polygon fill="#EC4E43" points="40.942,73.967 40.942,75.14 41.046,75.184 41.046,74.013 			"/>
		</g>
		<g>
			<polygon fill="#EC4E43" points="41.542,74.23 41.542,75.382 41.646,75.425 41.646,74.278 			"/>
		</g>
		<g>
			<polygon fill="#EC4E43" points="42.138,74.495 42.138,75.624 42.244,75.667 42.244,74.541 			"/>
		</g>
		<g>
			<polygon fill="#EC4E43" points="42.736,74.761 42.736,75.867 42.84,75.909 42.84,74.807 			"/>
		</g>
	</g>
	<g>
		<path fill="#EC4E43" d="M48.492,74.976c-0.074,0.213,23.737-11.26,23.737-11.26l-6.318,7.343l8.685-4.476l0.156,2.235
			l-13.605,5.417l4.872-6.212l-17.3,7.483L48.492,74.976z"/>
	</g>
	<g>
		<g>
			<polygon fill="none" points="58.746,73.317 58.434,73.694 58.434,73.444 			"/>
		</g>
		<g>
			<polygon fill="none" points="55.938,74.454 55.938,76.724 55.447,77.323 55.447,74.655 			"/>
		</g>
		<g>
			<polygon fill="none" points="56.537,74.214 56.537,76 56.043,76.598 56.043,74.413 			"/>
		</g>
		<g>
			<polygon fill="none" points="58.329,73.486 58.329,73.822 57.837,74.419 57.837,73.687 			"/>
		</g>
		<g>
			<polygon fill="none" points="59.097,75.647 59.523,75.147 59.523,75.524 			"/>
		</g>
		<g>
			<polygon fill="none" points="65.498,73.794 65.498,75.989 65.005,76.129 65.005,73.937 			"/>
		</g>
		<g>
			<polygon fill="none" points="74.458,71.2 74.458,73.437 73.969,73.575 73.969,71.345 			"/>
		</g>
		<g>
			<polygon fill="none" points="75.058,71.028 75.058,73.266 74.566,73.404 74.566,71.171 			"/>
		</g>
		<g>
			<polygon fill="none" points="75.195,70.986 75.655,71.978 75.655,73.097 75.163,73.235 75.163,70.997 			"/>
		</g>
		<g>
			<polygon fill="none" points="69.083,72.758 69.083,74.966 68.591,75.106 68.591,72.897 			"/>
		</g>
		<g>
			<polygon fill="none" points="76.112,72.966 75.761,73.064 75.761,72.205 			"/>
		</g>
		<g>
			<polygon fill="none" points="69.68,72.585 69.68,74.796 69.188,74.937 69.188,72.728 			"/>
		</g>
		<g>
			<polygon fill="none" points="70.276,72.411 70.276,74.626 69.789,74.767 69.789,72.554 			"/>
		</g>
		<g>
			<polygon fill="none" points="67.886,73.104 67.886,75.308 67.397,75.448 67.397,73.245 			"/>
		</g>
		<g>
			<polygon fill="none" points="70.876,72.237 70.876,74.456 70.385,74.596 70.385,72.381 			"/>
		</g>
		<g>
			<polygon fill="none" points="64.898,73.968 64.898,76.158 64.406,76.297 64.406,74.108 			"/>
		</g>
		<g>
			<polygon fill="none" points="71.473,72.065 71.473,74.286 70.98,74.425 70.98,72.209 			"/>
		</g>
		<g>
			<polygon fill="none" points="67.29,73.276 67.29,75.478 66.797,75.618 66.797,73.419 			"/>
		</g>
		<g>
			<polygon fill="none" points="53.805,79.319 54.147,78.901 54.147,79.221 			"/>
		</g>
		<g>
			<polygon fill="none" points="68.486,72.931 68.486,75.137 67.994,75.278 67.994,73.072 			"/>
		</g>
		<g>
			<polygon fill="none" points="73.862,71.373 73.862,73.606 73.372,73.745 73.372,71.516 			"/>
		</g>
		<g>
			<polygon fill="none" points="66.692,73.449 66.692,75.647 66.202,75.787 66.202,73.593 			"/>
		</g>
		<g>
			<polygon fill="none" points="66.095,73.622 66.095,75.817 65.606,75.958 65.606,73.764 			"/>
		</g>
		<g>
			<polygon fill="none" points="72.666,71.721 72.666,73.944 72.175,74.086 72.175,71.862 			"/>
		</g>
		<g>
			<polygon fill="none" points="73.265,71.546 73.265,73.774 72.772,73.915 72.772,71.688 			"/>
		</g>
		<g>
			<polygon fill="none" points="72.071,71.892 72.071,74.116 71.578,74.257 71.578,72.034 			"/>
		</g>
		<g>
			<polygon fill="none" points="59.523,71.63 59.523,75.147 59.097,75.647 59.523,75.524 59.523,77.688 59.031,77.829 59.031,71.85 
							"/>
		</g>
		<g>
			<polygon fill="none" points="55.447,74.655 55.447,73.438 55.938,73.22 55.938,74.454 			"/>
		</g>
		<g>
			<polygon fill="none" points="60.12,75.352 60.12,77.519 59.627,77.659 59.627,75.493 			"/>
		</g>
		<g>
			<polygon fill="none" points="54.252,75.14 54.252,73.967 54.745,73.747 54.745,74.94 			"/>
		</g>
		<g>
			<polygon fill="none" points="54.85,74.898 54.85,73.702 55.341,73.485 55.341,74.698 			"/>
		</g>
		<g>
			<polygon fill="none" points="63.108,74.486 63.108,76.667 62.615,76.808 62.615,74.629 			"/>
		</g>
		<g>
			<polygon fill="none" points="63.705,74.313 63.705,76.499 63.214,76.638 63.214,74.456 			"/>
		</g>
		<g>
			<polygon fill="none" points="64.302,74.142 64.302,76.329 63.812,76.468 63.812,74.284 			"/>
		</g>
		<g>
			<polygon fill="none" points="60.717,75.179 60.717,77.349 60.225,77.489 60.225,75.32 			"/>
		</g>
		<g>
			<polygon fill="none" points="61.316,75.005 61.316,77.178 60.825,77.319 60.825,75.148 			"/>
		</g>
		<g>
			<polygon fill="none" points="62.511,74.661 62.511,76.838 62.019,76.978 62.019,74.803 			"/>
		</g>
		<g>
			<polygon fill="none" points="61.914,74.833 61.914,77.009 61.421,77.148 61.421,74.975 			"/>
		</g>
		<g>
			<polygon fill="none" points="57.135,75.274 57.135,78.37 56.642,78.511 56.642,75.87 			"/>
		</g>
		<g>
			<polygon fill="none" points="63.812,70.104 63.812,69.732 64.302,69.515 64.302,69.527 			"/>
		</g>
		<g>
			<polygon fill="none" points="56.537,76 56.537,78.54 56.043,78.681 56.043,76.598 			"/>
		</g>
		<g>
			<polygon fill="none" points="55.341,77.449 55.341,78.882 54.85,79.021 54.85,78.047 			"/>
		</g>
		<g>
			<polygon fill="none" points="55.938,76.724 55.938,78.711 55.447,78.851 55.447,77.323 			"/>
		</g>
		<g>
			<polygon fill="none" points="54.745,78.175 54.745,79.051 54.252,79.189 54.252,78.771 			"/>
		</g>
		<g>
			<polygon fill="none" points="53.551,74.278 53.551,75.425 53.058,75.624 53.058,74.495 			"/>
		</g>
		<g>
			<polygon fill="none" points="54.147,74.013 54.147,75.184 53.655,75.382 53.655,74.23 			"/>
		</g>
		<g>
			<polygon fill="none" points="57.731,74.549 57.731,78.199 57.241,78.34 57.241,75.146 			"/>
		</g>
		<g>
			<polygon fill="none" points="57.241,73.927 57.241,72.643 57.731,72.425 57.731,73.728 			"/>
		</g>
		<g>
			<polygon fill="none" points="57.837,73.687 57.837,72.379 58.329,72.161 58.329,73.486 			"/>
		</g>
		<g>
			<polygon fill="none" points="56.642,74.171 56.642,72.907 57.135,72.69 57.135,73.972 			"/>
		</g>
		<g>
			<polygon fill="none" points="56.043,74.413 56.043,73.173 56.537,72.953 56.537,74.214 			"/>
		</g>
		<g>
			<polygon fill="none" points="58.329,73.822 58.329,78.03 57.837,78.169 57.837,74.419 			"/>
		</g>
		<g>
			<polygon fill="none" points="58.746,73.317 58.434,73.444 58.434,72.114 58.927,71.896 58.927,77.858 58.434,78.001 
				58.434,73.694 			"/>
		</g>
		<g>
			<polygon fill="none" points="62.615,71.51 62.615,70.263 63.108,70.042 63.108,70.934 			"/>
		</g>
		<g>
			<polygon fill="none" points="63.214,70.807 63.214,69.996 63.705,69.778 63.705,70.229 			"/>
		</g>
		<g>
			<polygon fill="none" points="60.825,73.618 60.825,71.054 61.316,70.836 61.316,73.04 			"/>
		</g>
		<g>
			<polygon fill="none" points="61.421,72.915 61.421,70.79 61.914,70.571 61.914,72.339 			"/>
		</g>
		<g>
			<polygon fill="none" points="62.019,72.212 62.019,70.526 62.511,70.308 62.511,71.635 			"/>
		</g>
		<g>
			<polygon fill="none" points="60.225,74.321 60.225,71.319 60.717,71.103 60.717,73.741 			"/>
		</g>
		<g>
			<polygon fill="none" points="59.627,75.022 59.627,71.584 60.12,71.366 60.12,74.444 			"/>
		</g>
		<g>
			<polygon fill="#EC4E43" points="74.566,71.171 74.566,73.404 74.458,73.437 74.458,71.2 			"/>
		</g>
		<g>
			<polygon fill="#EC4E43" points="73.969,71.345 73.969,73.575 73.862,73.606 73.862,71.373 			"/>
		</g>
		<g>
			<polygon fill="#EC4E43" points="73.372,71.516 73.372,73.745 73.265,73.774 73.265,71.546 			"/>
		</g>
		<g>
			<polygon fill="#EC4E43" points="72.772,71.688 72.772,73.915 72.666,73.944 72.666,71.721 			"/>
		</g>
		<g>
			<polygon fill="#EC4E43" points="72.175,71.862 72.175,74.086 72.071,74.116 72.071,71.892 			"/>
		</g>
		<g>
			<polygon fill="#EC4E43" points="71.578,72.034 71.578,74.257 71.473,74.286 71.473,72.065 			"/>
		</g>
		<g>
			<polygon fill="#EC4E43" points="70.98,72.209 70.98,74.425 70.876,74.456 70.876,72.237 			"/>
		</g>
		<g>
			<polygon fill="#EC4E43" points="70.385,72.381 70.385,74.596 70.276,74.626 70.276,72.411 			"/>
		</g>
		<g>
			<polygon fill="#EC4E43" points="69.789,72.554 69.789,74.767 69.68,74.796 69.68,72.585 			"/>
		</g>
		<g>
			<polygon fill="#EC4E43" points="69.188,72.728 69.188,74.937 69.083,74.966 69.083,72.758 			"/>
		</g>
		<g>
			<polygon fill="#EC4E43" points="68.591,72.897 68.591,75.106 68.486,75.137 68.486,72.931 			"/>
		</g>
		<g>
			<polygon fill="#EC4E43" points="67.994,73.072 67.994,75.278 67.886,75.308 67.886,73.104 			"/>
		</g>
		<g>
			<polygon fill="#EC4E43" points="67.397,73.245 67.397,75.448 67.29,75.478 67.29,73.276 			"/>
		</g>
		<g>
			<polygon fill="#EC4E43" points="66.797,73.419 66.797,75.618 66.692,75.647 66.692,73.449 			"/>
		</g>
		<g>
			<polygon fill="#EC4E43" points="66.202,73.593 66.202,75.787 66.095,75.817 66.095,73.622 			"/>
		</g>
		<g>
			<polygon fill="#EC4E43" points="65.606,73.764 65.606,75.958 65.498,75.989 65.498,73.794 			"/>
		</g>
		<g>
			<polygon fill="#EC4E43" points="65.005,73.937 65.005,76.129 64.898,76.158 64.898,73.968 			"/>
		</g>
		<g>
			<polygon fill="#EC4E43" points="64.406,74.108 64.406,76.297 64.302,76.329 64.302,74.142 			"/>
		</g>
		<g>
			<polygon fill="#EC4E43" points="64.302,69.527 64.302,69.515 64.321,69.505 			"/>
		</g>
		<g>
			<polygon fill="#EC4E43" points="63.705,70.229 63.705,69.778 63.812,69.732 63.812,70.104 			"/>
		</g>
		<g>
			<polygon fill="#EC4E43" points="63.812,74.284 63.812,76.468 63.705,76.499 63.705,74.313 			"/>
		</g>
		<g>
			<polygon fill="#EC4E43" points="63.108,70.934 63.108,70.042 63.214,69.996 63.214,70.807 			"/>
		</g>
		<g>
			<polygon fill="#EC4E43" points="63.214,74.456 63.214,76.638 63.108,76.667 63.108,74.486 			"/>
		</g>
		<g>
			<polygon fill="#EC4E43" points="62.511,71.635 62.511,70.308 62.615,70.263 62.615,71.51 			"/>
		</g>
		<g>
			<polygon fill="#EC4E43" points="62.615,74.629 62.615,76.808 62.511,76.838 62.511,74.661 			"/>
		</g>
		<g>
			<polygon fill="#EC4E43" points="61.914,72.339 61.914,70.571 62.019,70.526 62.019,72.212 			"/>
		</g>
		<g>
			<polygon fill="#EC4E43" points="62.019,74.803 62.019,76.978 61.914,77.009 61.914,74.833 			"/>
		</g>
		<g>
			<polygon fill="#EC4E43" points="61.316,73.04 61.316,70.836 61.421,70.79 61.421,72.915 			"/>
		</g>
		<g>
			<polygon fill="#EC4E43" points="61.421,74.975 61.421,77.148 61.316,77.178 61.316,75.005 			"/>
		</g>
		<g>
			<polygon fill="#EC4E43" points="60.717,73.741 60.717,71.103 60.825,71.054 60.825,73.618 			"/>
		</g>
		<g>
			<polygon fill="#EC4E43" points="60.825,75.148 60.825,77.319 60.717,77.349 60.717,75.179 			"/>
		</g>
		<g>
			<polygon fill="#EC4E43" points="60.12,74.444 60.12,71.366 60.225,71.319 60.225,74.321 			"/>
		</g>
		<g>
			<polygon fill="#EC4E43" points="60.225,75.32 60.225,77.489 60.12,77.519 60.12,75.352 			"/>
		</g>
		<g>
			<polygon fill="#EC4E43" points="59.627,75.493 59.627,77.659 59.523,77.688 59.523,75.524 			"/>
		</g>
		<g>
			<polygon fill="#EC4E43" points="59.523,75.147 59.523,71.63 59.627,71.584 59.627,75.022 			"/>
		</g>
		<g>
			<polygon fill="#EC4E43" points="59.031,71.85 59.031,77.829 58.927,77.858 58.927,71.896 			"/>
		</g>
		<g>
			<polygon fill="#EC4E43" points="58.329,73.486 58.329,72.161 58.434,72.114 58.434,73.444 			"/>
		</g>
		<g>
			<polygon fill="#EC4E43" points="58.434,73.694 58.434,78.001 58.329,78.03 58.329,73.822 			"/>
		</g>
		<g>
			<polygon fill="#EC4E43" points="57.837,74.419 57.837,78.169 57.731,78.199 57.731,74.549 			"/>
		</g>
		<g>
			<polygon fill="#EC4E43" points="57.731,73.728 57.731,72.425 57.837,72.379 57.837,73.687 			"/>
		</g>
		<g>
			<polygon fill="#EC4E43" points="57.241,75.146 57.241,78.34 57.135,78.37 57.135,75.274 			"/>
		</g>
		<g>
			<polygon fill="#EC4E43" points="57.135,73.972 57.135,72.69 57.241,72.643 57.241,73.927 			"/>
		</g>
		<g>
			<polygon fill="#EC4E43" points="56.537,74.214 56.537,72.953 56.642,72.907 56.642,74.171 			"/>
		</g>
		<g>
			<polygon fill="#EC4E43" points="56.642,75.87 56.642,78.511 56.537,78.54 56.537,76 			"/>
		</g>
		<g>
			<polygon fill="#EC4E43" points="56.043,76.598 56.043,78.681 55.938,78.711 55.938,76.724 			"/>
		</g>
		<g>
			<polygon fill="#EC4E43" points="55.938,74.454 55.938,73.22 56.043,73.173 56.043,74.413 			"/>
		</g>
		<g>
			<polygon fill="#EC4E43" points="55.447,77.323 55.447,78.851 55.341,78.882 55.341,77.449 			"/>
		</g>
		<g>
			<polygon fill="#EC4E43" points="55.341,74.698 55.341,73.485 55.447,73.438 55.447,74.655 			"/>
		</g>
		<g>
			<polygon fill="#EC4E43" points="54.85,78.047 54.85,79.021 54.745,79.051 54.745,78.175 			"/>
		</g>
		<g>
			<polygon fill="#EC4E43" points="54.745,74.94 54.745,73.747 54.85,73.702 54.85,74.898 			"/>
		</g>
		<g>
			<polygon fill="#EC4E43" points="54.252,79.189 54.147,79.221 54.147,78.901 54.252,78.771 			"/>
		</g>
		<g>
			<polygon fill="#EC4E43" points="54.252,73.967 54.252,75.14 54.147,75.184 54.147,74.013 			"/>
		</g>
		<g>
			<polygon fill="#EC4E43" points="53.655,74.23 53.655,75.382 53.551,75.425 53.551,74.278 			"/>
		</g>
		<g>
			<polygon fill="#EC4E43" points="53.058,74.495 53.058,75.624 52.953,75.667 52.953,74.541 			"/>
		</g>
	</g>
	<g>
		<g>
			<g>
				<path fill="#EC4E43" d="M51.764,78.304l-0.144-0.119c-0.112-0.078-0.043-0.189-0.043-0.189c0.645-1.204,0.375-2.432,0.375-2.432
					c-0.203-1.414-1.399-2.286-1.399-2.286c-0.143-0.09,0.003-0.208,0.003-0.208l0.122-0.15c0,0,0.134-0.152-0.024-0.249
					l-0.713-0.418c-0.004-0.012-0.014-0.021-0.014-0.034c0-0.013,0.002-0.36-0.159-0.572c-0.002-0.006-0.292-0.437-0.626-0.631
					c-0.005-0.004-0.502-0.317-0.726-0.393c-0.005-0.003-0.551-0.176-0.965-0.146c-0.005,0-0.144,0.014-0.203,0.089
					c-0.021,0.026-0.031,0.058-0.028,0.094c-0.085,0.011-0.17,0.04-0.196,0.112c0,0-0.006,0.014-0.006,0.034
					c0,0.04,0.02,0.103,0.125,0.144c0,0,0.221,0.121,0.268,0.205c0.009,0.009,0.017,0.027,0.017,0.045v0.008
					c-0.005,0.007-0.011,0.013-0.029,0.015h-0.002l0,0c-0.01,0.004-0.021,0.009-0.029,0.013c-0.06-0.062-0.12-0.123-0.188-0.18
					c-0.033-0.025-0.059-0.061-0.092-0.083c-0.028-0.015-0.054-0.022-0.075-0.046c-0.042-0.047-0.055-0.111-0.063-0.17
					c-0.005-0.027-0.042-0.048-0.076-0.044c-0.032,0.004-0.098,0.044-0.148,0.056c-0.052,0.016-0.099,0.043-0.205,0.073
					c-0.108,0.032-0.235,0.08-0.273,0.077c-0.037-0.005-0.122,0.027-0.183,0.126s0.017,0.194,0.081,0.274
					c0.062,0.078,0.105,0.064,0.133,0.049c0.028-0.018,0.024-0.05,0.061-0.066c0.037-0.016,0.073,0.016,0.186,0.043
					c0.114,0.026,0.197,0.017,0.231,0.03c0.07,0.023,0.046,0.151,0.039,0.204c-0.012,0.113-0.041,0.223-0.053,0.338
					c-0.003,0.027-0.009,0.086-0.013,0.145c-0.053,0.017-0.106,0.036-0.152,0.057c-0.119,0.054-0.242,0.116-0.52,0.272
					c-0.28,0.158-0.678,0.457-0.678,0.457c-0.179,0.124-0.031,0.259-0.031,0.259l0.127,0.145c0,0,0.16,0.111-0.01,0.222
					c0,0-1.002,0.81-1.172,2.229c0,0-0.232,1.301,0.519,2.484c0,0,0.127,0.135,0,0.194l-0.129,0.129c0,0-0.127,0.136,0.034,0.315
					c0,0,0.867,1.055,1.686,1.25c0,0-0.334-0.356-0.501-0.758c0,0-0.112-0.119,0.059-0.127l0.37-0.043c0,0-0.019-0.031-0.032-0.063
					c0.01,0.006,0.019,0.012,0.03,0.017c0.068,0.178,0.163,0.342,0.274,0.492L46.6,79.592c0.008,0.007,0.016,0.013,0.02,0.021
					c0.368,0.467,0.936,0.768,1.575,0.768c0.895,0,1.649-0.586,1.908-1.393l0.193,0.021c0.156,0.004,0.33,0.03,0.33,0.03
					c-0.141,0.406-0.558,0.926-0.558,0.926c0.741-0.223,1.426-1.055,1.426-1.055C51.916,78.396,51.764,78.304,51.764,78.304z"/>
			</g>
		</g>
		<g>
			<path fill="#EC4E43" d="M48.085,81.876c-0.335,0-0.948-0.021-0.948-0.021L46.036,81.6c-1.218-0.291-2.233-1.422-2.516-1.761
				c-0.379-0.438-0.531-0.999-0.419-1.549c-0.537-1.279-0.416-2.472-0.365-2.812c0.137-1.075,0.598-1.896,0.986-2.418
				c-0.003-0.066-0.002-0.134,0.003-0.201c0.036-0.503,0.301-0.971,0.728-1.28c0.015-0.012,0.039-0.029,0.069-0.051
				c-0.16-0.646,0.109-1.156,0.205-1.31c0.285-0.46,0.743-0.771,1.256-0.853l0.1-0.032c0.032-0.016,0.077-0.032,0.12-0.046
				c0.042-0.021,0.137-0.06,0.256-0.092c0.309-0.192,0.625-0.261,0.84-0.284c0.102-0.007,0.175-0.009,0.25-0.009
				c0.679,0,1.372,0.231,1.413,0.251c0.286,0.095,0.705,0.338,1,0.522c0.516,0.311,0.906,0.802,1.092,1.067
				c0.108,0.152,0.197,0.319,0.266,0.498l0.145,0.086c0.443,0.27,0.738,0.708,0.813,1.205c0.014,0.083,0.021,0.168,0.02,0.254
				c0.47,0.546,1.029,1.4,1.202,2.514c0.058,0.305,0.214,1.407-0.197,2.643c0.012,0.046,0.021,0.093,0.029,0.14
				c0.136,0.781-0.292,1.413-0.625,1.821c-0.166,0.201-1.049,1.223-2.193,1.563l-1.021,0.305c-0.057,0.011-0.971,0.095-1.275,0.103
				L48.085,81.876z M47.236,81.273c0.111,0,0.575,0.014,0.849,0.014l0.118-0.001c0.296-0.008,1.181-0.09,1.181-0.09l0.963-0.294
				c0.979-0.292,1.759-1.194,1.905-1.372c0.26-0.318,0.595-0.804,0.5-1.347c-0.009-0.053-0.02-0.104-0.036-0.154l-0.033-0.097
				l0.034-0.097c0.401-1.132,0.257-2.151,0.203-2.437c-0.162-1.044-0.709-1.832-1.14-2.311l-0.086-0.097l0.012-0.128
				c0.007-0.079,0.004-0.16-0.009-0.239c-0.05-0.329-0.245-0.616-0.535-0.794l-0.327-0.193l-0.035-0.104
				c-0.055-0.164-0.132-0.316-0.228-0.452c-0.129-0.184-0.475-0.638-0.919-0.905c-0.383-0.239-0.708-0.409-0.918-0.481
				c-0.013-0.004-0.765-0.247-1.348-0.198c-0.187,0.017-0.425,0.068-0.648,0.217l-0.095,0.041c-0.096,0.023-0.175,0.055-0.228,0.079
				c-0.06,0.021-0.089,0.032-0.12,0.045l-0.222,0.068c-0.339,0.054-0.657,0.271-0.849,0.581c-0.069,0.111-0.279,0.513-0.086,1.006
				l0.084,0.215l-0.188,0.133c-0.105,0.075-0.189,0.136-0.23,0.167c-0.293,0.213-0.471,0.522-0.494,0.854
				c-0.006,0.074-0.004,0.144,0.004,0.214l0.013,0.119l-0.074,0.094c-0.356,0.457-0.808,1.214-0.937,2.229
				c-0.047,0.315-0.159,1.416,0.359,2.585l0.042,0.095l-0.026,0.1c-0.061,0.229-0.106,0.681,0.275,1.12
				c0.184,0.221,1.135,1.313,2.203,1.569l1.039,0.247C47.211,81.274,47.22,81.273,47.236,81.273z"/>
		</g>
		<g>
			<g>
				<g>
					<path fill="#EC4E43" d="M47.207,71.288c-0.06-0.005-0.179,0.035-0.19,0.107c-0.001,0.035,0.101,0.223,0.122,0.262
						c0.165,0.273,0.671,0.425,0.954,0.314c0.259-0.102,0.487-0.625,0.326-0.875c-0.062-0.1-0.187-0.139-0.294-0.188
						c-0.227-0.104-0.426-0.227-0.68-0.252c-0.014-0.003-0.363-0.046-0.418,0.113c0,0-0.006,0.014-0.006,0.034
						c0,0.04,0.02,0.103,0.125,0.144c0,0,0.221,0.121,0.268,0.205c0.009,0.009,0.017,0.027,0.017,0.045v0.008
						c-0.005,0.007-0.011,0.013-0.029,0.015h-0.002l0,0c-0.027,0.011-0.054,0.024-0.066,0.037
						C47.249,71.27,47.218,71.279,47.207,71.288z"/>
				</g>
				<g>
					<g>
						<path fill="#EC4E43" d="M47.602,71.255c-0.002,0.011-0.007,0.021-0.015,0.031c-0.027,0.033-0.078,0.057-0.122,0.042
							c-0.02-0.005-0.042-0.025-0.042-0.046c0.004-0.02,0.025-0.021,0.042-0.025c0.027-0.008,0.081-0.025,0.068-0.064
							c-0.005-0.023-0.037-0.051-0.05-0.068c-0.062-0.066-0.135-0.12-0.21-0.163c0,0-0.213-0.092-0.123-0.208
							c0,0,0.03-0.074,0.444,0.021c0,0,0.537,0.2,0.694,0.305c0,0,0.059,0.045,0.012,0.069c0,0-0.026,0.014-0.271-0.119
							c0,0-0.516-0.232-0.636-0.189c0,0-0.073,0.012-0.026,0.052c0.043,0.039,0.083,0.083,0.121,0.128
							c0.032,0.04,0.061,0.085,0.083,0.13C47.587,71.18,47.607,71.22,47.602,71.255z"/>
					</g>
					<g>
						<path fill="#EC4E43" d="M47.511,70.966c0.03,0.049,0.062,0.092,0.091,0.14c0.028,0.044,0.095,0.126,0.068,0.184
							c-0.007,0.014-0.016,0.026-0.027,0.037c-0.012,0.011-0.026,0.026-0.041,0.036c-0.01,0.007-0.024,0.007-0.031,0.014
							c-0.037,0.026,0.012,0.078,0.031,0.104c0.019,0.024,0.039,0.047,0.056,0.071c0.014,0.018,0.031,0.042,0.054,0.054
							c0.017,0.011,0.024,0.008,0.026-0.012c0.007-0.031-0.017-0.06-0.031-0.087c-0.011-0.017-0.021-0.033-0.03-0.05
							c-0.008-0.008-0.027-0.023-0.027-0.035c-0.002-0.017,0.012-0.023,0.029-0.018c0.042,0.011,0.04,0.089,0.076,0.108
							c0.023,0.016,0.047,0.003,0.047-0.026c0-0.026-0.02-0.063-0.034-0.086c-0.013-0.018-0.077-0.069-0.047-0.095
							c0.003-0.002,0.024-0.004,0.026-0.003c0.009,0.001,0.021,0.013,0.028,0.015c0.012,0.004,0.02,0.006,0.031,0.009
							c0.022,0.007,0.046,0.015,0.07,0.022c0.043,0.016,0.097,0.033,0.134,0.064c0,0,0.189,0.154,0.312,0.123
							c0,0,0.054-0.031-0.007-0.062c0,0-0.405-0.172-0.438-0.175c0,0-0.054-0.007-0.026-0.039c0,0-0.005-0.032,0.295,0.094
							c0,0,0.196,0.1,0.229,0.072c0,0,0.028-0.013,0.023-0.039c0,0,0.054-0.052-0.417-0.167c0,0-0.109-0.022-0.073-0.055
							c0,0,0.022-0.021,0.134,0.01c0,0,0.173,0.074,0.292,0.1c0,0,0.052,0.014,0.055-0.027c0,0,0.004-0.045-0.208-0.098
							c0,0-0.184-0.064-0.239-0.098C47.942,71.052,47.44,70.84,47.511,70.966z"/>
					</g>
				</g>
			</g>
			<g>
				<path fill="#EC4E43" d="M46.839,72.446c0.002,0.006,0.032,0.102,0.061,0.158l0.081,0.171l0.023,0.053
					c0.009,0.01,0.163,0.224,0.323,0.23c0.025-0.003,0.087-0.003,0.106,0.018c0.006,0.004,0.006,0.007,0.006,0.014v0.001v0.002
					c0.001,0.009,0.029,0.242,0.071,0.293c-0.002,0,0.026,0.053,0.017,0.092c-0.004,0.013-0.015,0.023-0.03,0.031
					c-0.02,0.011-0.399,0.263-0.382,0.394c0,0.069,0.005,0.109,0.014,0.118l-0.002-0.004v0.004c0,0.003,0,0.007-0.002,0.009
					c-0.004,0.009-0.017,0.015-0.038,0.019c-0.011,0-0.016,0.005-0.023,0.009l-0.006,0.003c-0.13,0.076-0.281,0.174-0.289,0.209
					v-0.002c-0.004,0.008-0.004,0.018,0.004,0.024c0.01,0.009,0.038,0.028,0.325-0.183c0.005-0.004,0.05-0.025,0.083,0.033
					l0.078,0.139c0.005,0.008,0.019,0.038,0.012,0.055c-0.002,0.002-0.004,0.009-0.014,0.012h-0.002l-0.188,0.113l-0.005,0.005
					c-0.002,0.005-0.014,0.02-0.008,0.035c0.005,0.011,0.014,0.02,0.03,0.022l0.004,0.001l0.236-0.126
					c0.004,0,0.023-0.009,0.032-0.03c0.002-0.008,0.005-0.015,0.005-0.015c0-0.027-0.01-0.05-0.025-0.076l-0.089-0.146
					c-0.005-0.01-0.012-0.031-0.012-0.05c0,0,0-0.014,0.002-0.019c0.004-0.009,0.017-0.014,0.031-0.014
					c0.002,0,0.051-0.001,0.068,0.027c0.003,0.005,0.027,0.048,0.137,0.023c0.038-0.004,0.103-0.006,0.117,0.011
					c0.003,0.004,0.005,0.008,0.003,0.012v0.002l0,0c0,0.002,0,0.026-0.028,0.034v0.001l-0.125,0.066l-0.016,0.062v0.003
					c0,0,0.006,0.011,0.018,0.018c0.012,0.005,0.026,0.003,0.045-0.009v-0.001c0,0,0.139-0.119,0.146-0.123
					c0.006,0,0.028-0.003,0.036,0.014v0.001l0.194,0.328h0.069v-0.081l-0.081-0.152c-0.002,0-0.01-0.015-0.008-0.023
					c0.006-0.01,0.025-0.017,0.052-0.018h0.098c0.003,0,0.014,0.001,0.024,0.012c0.005,0.01,0.011,0.031-0.005,0.075l-0.042,0.185
					h0.169l-0.049-0.19c-0.003-0.014-0.01-0.057,0.002-0.076c0.005-0.005,0.01-0.008,0.017-0.008c0,0,0.104,0,0.108,0
					c0,0,0.008,0.003,0.014,0.013c0.003,0.005,0.003,0.01,0.003,0.016c0,0.008,0,0.016-0.005,0.027
					c-0.005,0.011-0.049,0.091-0.049,0.15c0,0.024,0.007,0.046,0.024,0.058l0.003,0.001h0.091l-0.005-0.083v-0.001v-0.006
					c0-0.013,0.008-0.062,0.095-0.154c0.017-0.013,0.059-0.047,0.059-0.072c0-0.006,0-0.01-0.002-0.014v0.002
					c0-0.005-0.004-0.018,0-0.021s0.017-0.006,0.042,0.003c0.007,0.006,0.023,0.017,0.023,0.026l0,0c0,0.01-0.009,0.017-0.016,0.021
					l-0.002,0.001v0.003c-0.04,0.051-0.157,0.202-0.157,0.274c0,0.012,0.004,0.021,0.01,0.026l0.006,0.004h0.079l0.003-0.008
					c0.046-0.12,0.109-0.25,0.134-0.256v-0.002l0.003-0.001c0.01-0.005,0.024-0.008,0.027-0.004v0.002l0.032,0.028h0.002
					c0.001,0,0.024,0.01,0.039-0.001c0.005-0.004,0.011-0.01,0.015-0.022c0,0,0.004-0.053,0.004-0.061
					c0.005-0.002,0.007-0.006,0.012-0.006c0.002,0,0.007,0.002,0.013,0c0.01-0.002,0.02-0.006,0.014-0.125c0,0,0-0.031,0.027-0.048
					c0.026-0.019,0.073-0.017,0.134,0.007l0.402,0.191c0.007,0.004,0.044,0.021,0.058,0.008c0.005-0.002,0.01-0.007,0.01-0.02l0,0
					c0.003-0.002,0.003-0.003,0.003-0.006V74.19c-0.005-0.026-0.062-0.065-0.163-0.117c-0.016-0.007-0.317-0.168-0.426-0.16
					c-0.003,0.002-0.018,0.005-0.029-0.003c-0.01-0.006-0.013-0.021-0.016-0.038c0,0-0.025-0.189-0.131-0.197h-0.003l0,0
					c-0.002,0.001-0.132,0.027-0.188-0.061v-0.003h-0.003c-0.012-0.009-0.04-0.038-0.04-0.062c-0.002-0.008,0.002-0.014,0.009-0.021
					c0.01-0.013,0.039-0.044,0.066-0.048c0.007,0,0.014,0.002,0.019,0.006c0.01,0.016,0.078,0.125,0.189,0.123
					c0.067-0.007,0.147-0.004,0.159,0.006v0.001h0.003c0.002,0.002,0.096,0.057,0.181,0.007c0.031-0.021,0.122-0.073,0.153-0.073
					c0.003,0.002,0.112,0.011,0.175-0.043c0.002-0.002,0.038-0.031,0.066-0.004l0.004,0.006l0.089-0.045l0.002-0.006
					c0,0,0.004-0.037,0.038-0.057c0.019-0.014,0.047-0.016,0.081-0.009c0.016,0.009,0.269,0.146,0.334,0.204
					c0,0,0.117,0.103,0.249,0.009l0,0l0.002-0.001c0.005-0.009,0.173-0.206,0.212-0.277c0,0,0.014-0.032,0.038-0.038
					c0.01-0.004,0.021,0.001,0.03,0.008l0.014,0.01l0.022-0.081l-0.076-0.07l-0.204,0.249c0,0-0.037,0.035-0.073,0.027
					c-0.031-0.005-0.036-0.034-0.057-0.057c-0.019-0.021-0.05-0.038-0.075-0.054c-0.047-0.029-0.106-0.056-0.146-0.095
					c-0.05-0.05,0.064-0.139,0.078-0.192c0.021-0.08,0.004-0.164,0.004-0.244c0.002-0.056-0.054-0.408,0.066-0.384l0.007,0.002
					l0.046-0.064l-0.012-0.005c-0.002,0-0.117-0.045-0.126-0.121c0-0.013,0.002-0.36-0.159-0.572
					c-0.002-0.006-0.292-0.437-0.626-0.631c-0.005-0.004-0.502-0.317-0.726-0.393c-0.005-0.003-0.551-0.176-0.965-0.146
					c-0.005,0-0.144,0.014-0.203,0.089c-0.021,0.026-0.031,0.058-0.028,0.095c0,0,0.007,0.092,0.151,0.175
					c0.065,0.04,0.127,0.083,0.188,0.127c0.054,0.039,0.081,0.083,0.108,0.145c0.031,0.062,0.045,0.122,0.054,0.196
					c0.005,0.064,0.015,0.133,0.01,0.201c-0.005,0.031-0.019,0.087-0.062,0.072c-0.014-0.006-0.034-0.039-0.047-0.049
					c-0.019-0.021-0.042-0.04-0.063-0.06c-0.031-0.032-0.066-0.071-0.087-0.111c-0.024-0.046-0.059-0.073-0.098-0.114
					c-0.06-0.066-0.123-0.13-0.194-0.188c-0.033-0.025-0.059-0.061-0.092-0.083c-0.028-0.015-0.054-0.022-0.075-0.046
					c-0.042-0.047-0.055-0.111-0.063-0.17c-0.005-0.027-0.042-0.048-0.076-0.044c-0.032,0.004-0.098,0.044-0.148,0.056
					c-0.052,0.016-0.099,0.043-0.205,0.073c-0.108,0.032-0.235,0.08-0.273,0.077c-0.037-0.005-0.122,0.027-0.183,0.126
					s0.017,0.194,0.081,0.274c0.062,0.078,0.105,0.064,0.133,0.049c0.028-0.018,0.024-0.05,0.061-0.066
					c0.037-0.016,0.073,0.016,0.186,0.043c0.114,0.026,0.197,0.017,0.231,0.03c0.07,0.023,0.046,0.151,0.039,0.204
					c-0.012,0.113-0.041,0.223-0.053,0.338c-0.006,0.055-0.034,0.244,0.013,0.285C46.754,72.2,46.8,72.354,46.839,72.446z"/>
			</g>
			<g>
				<path fill="#EC4E43" d="M47.08,71.733c0,0-0.118,0.002-0.064,0.061c0,0,0.143,0.058,0.15,0.07c0,0,0.017,0.03,0.089,0.018
					c0,0,0.149-0.047,0.184-0.052c0,0,0.033,0.005,0.028-0.044c0,0,0.024-0.053-0.107-0.051L47.08,71.733z"/>
			</g>
			<g>
				<g>
					<path fill="#EC4E43" d="M46.825,72.106c0,0,0.075-0.017,0.087-0.023c0,0,0.042-0.029,0.064,0.027c0,0,0.059,0.136,0.056,0.168
						c0,0,0.015,0.189-0.025,0.172C47.007,72.45,46.869,72.404,46.825,72.106z"/>
				</g>
				<g>
					<path fill="#EC4E43" d="M47.037,72.054l0.038-0.004c0,0,0.049-0.012,0.073,0.043c0,0,0.098,0.157,0.071,0.211
						c0,0-0.021,0.021-0.083-0.045C47.135,72.259,46.935,72.114,47.037,72.054z"/>
				</g>
				<g>
					<path fill="#EC4E43" d="M47.075,72.318c0,0,0.003-0.054,0.049-0.013c0,0,0.25,0.26,0.278,0.512c0,0-0.01,0.043-0.061-0.006
						c0,0-0.151-0.102-0.16-0.113c0,0-0.022-0.016-0.024-0.046c0,0-0.025-0.094-0.054-0.108c0,0-0.017-0.009-0.025-0.047
						L47.075,72.318z"/>
				</g>
				<g>
					<path fill="#EC4E43" d="M46.962,72.544c0,0-0.022-0.066,0.06-0.033c0,0,0.135,0.052,0.106,0.266c0,0,0.003,0.102-0.033,0.045
						C47.096,72.821,46.994,72.726,46.962,72.544z"/>
				</g>
				<g>
					<path fill="#EC4E43" d="M47.251,72.036c0,0-0.062-0.021-0.028-0.051c0,0,0.042-0.048,0.12,0.013c0,0,0.217,0.112,0.23,0.624
						c0,0,0.01,0.099-0.027,0.058c0,0-0.205-0.155-0.205-0.183c0,0-0.01-0.023-0.017-0.039c0,0-0.019-0.033-0.047-0.054
						c0,0-0.039-0.041-0.003-0.064c0,0,0.041-0.075-0.046-0.198c0,0-0.089-0.086-0.015-0.078c0,0,0.039,0.009,0.08,0.058
						c0,0,0.052,0.049,0.045,0C47.338,72.121,47.309,72.062,47.251,72.036z"/>
				</g>
				<g>
					<path fill="#EC4E43" d="M47.26,72.803c0,0-0.075-0.048-0.075,0c0,0-0.028,0.13,0.068,0.183c0,0,0.083,0.045,0.158,0.024
						c0,0,0.047-0.003,0.016-0.068L47.26,72.803z"/>
				</g>
				<g>
					<path fill="#EC4E43" d="M47.587,72.755l-0.088-0.066c0,0-0.092-0.039-0.068,0.025c0,0,0.103,0.267,0.1,0.348
						c0,0-0.016,0.143,0.022,0.135c0,0,0.047,0.038,0.061-0.129C47.614,73.067,47.643,72.825,47.587,72.755z"/>
				</g>
				<g>
					<path fill="#EC4E43" d="M47.658,72.947c0,0,0.031-0.032,0.051,0c0,0,0.048,0.17,0.062,0.19c0,0,0.067,0.181,0.041,0.199
						c0,0-0.029,0.045-0.098-0.037c0,0-0.062-0.057-0.071-0.065c0,0-0.02-0.003-0.001-0.058L47.658,72.947z"/>
				</g>
				<g>
					<path fill="#EC4E43" d="M47.865,73.524c0,0,0.039,0.041,0.061,0.046c0,0,0.053,0.03,0.02,0.063c0,0-0.042,0.033-0.091-0.033
						c0,0-0.09-0.091-0.051-0.118C47.804,73.482,47.832,73.467,47.865,73.524z"/>
				</g>
				<g>
					<path fill="#EC4E43" d="M47.656,73.349c0,0,0.054-0.003,0.061,0.044c0,0,0.01,0.181,0.056,0.194c0,0,0.141,0.112,0.045,0.156
						c0,0-0.078,0.037-0.177,0.058c0,0-0.041,0.01-0.063,0.016c0,0-0.081,0.026-0.063-0.036c0,0-0.003-0.025,0.085-0.069
						c0,0,0.023-0.048-0.038-0.024c0,0-0.099,0.057-0.123,0.031c0,0-0.051-0.051,0.022-0.071c0,0,0.12-0.041,0.136-0.142
						C47.597,73.505,47.609,73.351,47.656,73.349z"/>
				</g>
				<g>
					<path fill="#EC4E43" d="M47.234,73.896c0,0,0.065-0.061,0.09-0.091c0,0,0.046-0.076-0.021-0.061c0,0-0.122,0.047-0.125,0.137
						C47.178,73.882,47.173,73.92,47.234,73.896z"/>
				</g>
				<g>
					<path fill="#EC4E43" d="M47.461,74.005c0,0,0.009-0.055,0.101-0.057c0,0,0.11-0.011,0.11,0.039c0,0,0.021,0.057-0.099,0.061
						C47.573,74.048,47.443,74.065,47.461,74.005z"/>
				</g>
				<g>
					<path fill="#EC4E43" d="M47.888,73.964c0,0,0.043-0.077,0.075-0.084c0,0,0.065-0.027,0.048,0.037c0,0-0.048,0.104-0.091,0.097
						C47.92,74.014,47.873,74.021,47.888,73.964z"/>
				</g>
				<g>
					<path fill="#EC4E43" d="M47.765,73.857c0,0,0.078-0.03,0.067,0.032c0,0-0.038,0.08-0.072,0.082
						C47.76,73.972,47.68,73.976,47.765,73.857z"/>
				</g>
				<g>
					<path fill="#EC4E43" d="M47.926,73.729c-0.08,0.094,0.037,0.06,0.037,0.06c0.139-0.105,0.156-0.083,0.156-0.083
						c0.04,0.012-0.017,0.053-0.017,0.053c-0.092,0.035-0.048,0.075-0.048,0.075c0.08,0.09,0.123,0.002,0.123,0.002
						c0.074-0.099,0.24-0.058,0.24-0.058c0.078,0.061,0.092-0.006,0.092-0.006c0.015-0.041-0.115-0.09-0.115-0.09
						c-0.054-0.02-0.115-0.098-0.115-0.098c-0.06-0.037-0.158,0.01-0.158,0.01S47.941,73.712,47.926,73.729z"/>
				</g>
				<g>
					<path fill="#EC4E43" d="M47.388,73.88c-0.019,0.017-0.024,0.04-0.016,0.051c0.011,0.012,0.035,0.007,0.055-0.011
						c0.016-0.018,0.024-0.04,0.013-0.051C47.429,73.856,47.405,73.86,47.388,73.88z"/>
				</g>
				<g>
					<path fill="#EC4E43" d="M47.97,74.189c0,0,0.203,0.021,0.225-0.064l0.006-0.146c0,0-0.013-0.075-0.082-0.013
						c0,0-0.069,0.03-0.113,0.044C48.005,74.011,47.783,74.146,47.97,74.189z"/>
				</g>
				<g>
					<path fill="#EC4E43" d="M48.33,74.014c0,0,0.271-0.003,0.297-0.034c0,0,0.046-0.038-0.166-0.064c0,0-0.204-0.028-0.204,0.031
						C48.258,73.946,48.222,74.014,48.33,74.014z"/>
				</g>
				<g>
					<path fill="#EC4E43" d="M48.304,74.192c0,0,0.094-0.072,0.073-0.088c0,0-0.076-0.1-0.119-0.022
						C48.258,74.082,48.215,74.235,48.304,74.192z"/>
				</g>
				<g>
					<path fill="#EC4E43" d="M47.727,72.769c0,0,0.307,0.476,0.274,0.714c0,0-0.007,0.067-0.059,0.046c0,0-0.067-0.02-0.067-0.153
						c0,0-0.098-0.429-0.166-0.501C47.709,72.874,47.59,72.67,47.727,72.769z"/>
				</g>
				<g>
					<path fill="#EC4E43" d="M47.611,72.385l0.012,0.132c0,0,0.007,0.042,0.047,0.072c0,0,0.163,0.243,0.181,0.294
						c0,0,0.006,0.055,0.037,0.026l-0.035-0.282c0,0-0.014-0.063-0.066-0.08C47.788,72.547,47.651,72.347,47.611,72.385z"/>
				</g>
				<g>
					<path fill="#EC4E43" d="M48.019,72.597c0,0,0.027,0.541,0.009,0.592c0,0-0.012,0.052-0.043-0.008l-0.043-0.063
						c0,0-0.04-0.4-0.016-0.427c0,0,0.027-0.025,0.034-0.067C47.96,72.623,47.981,72.556,48.019,72.597z"/>
				</g>
				<g>
					<path fill="#EC4E43" d="M48.121,72.985c0,0-0.033-0.076-0.036,0.013c0,0-0.051,0.403-0.004,0.455c0,0,0.041,0.132,0.195,0.047
						c0,0,0.073-0.01-0.023-0.188C48.252,73.312,48.139,73.099,48.121,72.985z"/>
				</g>
				<g>
					<path fill="#EC4E43" d="M48.11,72.644c0,0,0.131,0.043,0.135,0.107c0,0,0.132,0.531,0.132,0.608c0,0-0.024,0.059-0.051,0.021
						c0,0-0.234-0.607-0.234-0.646C48.092,72.734,48.038,72.623,48.11,72.644z"/>
				</g>
				<g>
					<path fill="#EC4E43" d="M48.355,72.887c0,0,0.333,0.531,0.34,0.57c0,0,0.091,0.144-0.087,0.09c0,0-0.202-0.161-0.185-0.226
						C48.423,73.321,48.275,72.853,48.355,72.887z"/>
				</g>
				<g>
					<path fill="#EC4E43" d="M48.406,72.832c0,0,0.456,0.327,0.603,0.599c0,0,0.092,0.116-0.052,0.141
						c-0.021-0.004-0.163,0.064-0.196-0.086c0,0-0.259-0.492-0.337-0.573C48.423,72.912,48.32,72.836,48.406,72.832z"/>
				</g>
				<g>
					<path fill="#EC4E43" d="M48.508,72.802c0,0,0.886,0.451,0.883,0.498c0,0,0.024,0.094-0.096,0.148c0,0-0.17,0.115-0.233-0.018
						c0,0-0.322-0.45-0.575-0.587C48.487,72.844,48.452,72.806,48.508,72.802z"/>
				</g>
				<g>
					<ellipse fill="#EC4E43" cx="48.537" cy="74.093" rx="0.05" ry="0.027"/>
				</g>
				<g>
					<path fill="#EC4E43" d="M47.38,71.888c0,0,0.057,0,0.065-0.013c0,0,0.076-0.038,0.125,0.059c0,0,0.087,0.162,0.024,0.179
						c0,0-0.08,0.04-0.12-0.047c0,0-0.08-0.102-0.123-0.105C47.352,71.96,47.289,71.896,47.38,71.888z"/>
				</g>
				<g>
					<path fill="#EC4E43" d="M47.633,71.904c0,0,0.042,0.029,0.064,0.026c0,0,0.051-0.014,0.086,0.084c0,0,0.144,0.485,0.138,0.506
						c0,0,0.013,0.086-0.063,0.026c0,0-0.274-0.282-0.274-0.314c0,0-0.04-0.042,0.019-0.06c0,0,0.107-0.021,0.068-0.133
						C47.67,72.04,47.573,71.896,47.633,71.904z"/>
				</g>
				<g>
					<path fill="#EC4E43" d="M47.423,71.585c0,0,0.179,0.081,0.218,0.066c0,0,0.029-0.02,0.09,0.045c0,0,0.122,0.123,0.108,0.191
						c0,0-0.002,0.06,0.042,0.06c0,0,0.119,0.013,0.355,0.395c0,0,0.051,0.064,0.059,0.247c0,0,0.021,0.109-0.056,0.072
						c0,0-0.24-0.114-0.264-0.199c0,0-0.16-0.451-0.159-0.498c0,0-0.001-0.072-0.036-0.068c0,0-0.303-0.021-0.376-0.279
						C47.407,71.616,47.397,71.58,47.423,71.585z"/>
				</g>
				<g>
					<path fill="#EC4E43" d="M48.07,72.011c0,0,0.158,0.203,0.158,0.229c0,0,0.005,0.048,0.102,0.045c0,0,0.12,0.006,0.247,0.178
						c0,0,0.146,0.17,0.188,0.174c0,0,0.05,0.004,0.005-0.072c0,0-0.193-0.308-0.218-0.331c0,0-0.226-0.225-0.464-0.272
						C48.087,71.96,48,71.942,48.07,72.011z"/>
				</g>
				<g>
					<path fill="#EC4E43" d="M48.381,72.39c0,0,0.252,0.157,0.302,0.307c0,0,0.025,0.102-0.073,0.072c0,0-0.212-0.072-0.224-0.094
						c0,0-0.031-0.005-0.021-0.06C48.365,72.615,48.309,72.355,48.381,72.39z"/>
				</g>
				<g>
					<path fill="#EC4E43" d="M48.772,72.696c0,0,0.048,0.029,0.06,0c0,0,0.019-0.057,0.054-0.021c0,0,0.134,0.166,0.086,0.174
						c0,0-0.066,0.038-0.184-0.043C48.789,72.806,48.684,72.726,48.772,72.696z"/>
				</g>
				<g>
					<path fill="#EC4E43" d="M48.939,72.895c0,0,0.234,0.026,0.266,0.073c0,0,0.044,0.086,0.103,0.082c0,0,0.185-0.005,0.18,0.084
						c0,0,0.028,0.135-0.09,0.086l-0.492-0.291C48.906,72.929,48.874,72.899,48.939,72.895z"/>
				</g>
				<g>
					<path fill="#EC4E43" d="M48.577,72.101c0,0,0.146-0.022,0.177,0.055c0,0,0.348,0.543,0.358,0.643c0,0,0.035,0.106-0.073,0.021
						c0,0-0.314-0.421-0.416-0.584C48.624,72.235,48.506,72.108,48.577,72.101z"/>
				</g>
				<g>
					<path fill="#EC4E43" d="M47.431,70.539c0,0-0.161,0.012-0.148,0.126c0.006,0.017,0.022,0.051,0.201,0.142
						c0,0,0.281,0.086,0.328,0.545c0,0,0.028,0.178-0.024,0.226c0,0-0.108,0.055,0.02,0.135c0,0,0.451,0.315,0.714,0.35
						c0,0,0.068-0.004,0.031-0.06c0,0-0.192-0.22-0.65-0.374c0,0-0.04-0.043,0.016-0.039c0,0,0.31,0.099,0.619,0.051
						c0,0,0.09-0.021,0.028-0.071c0,0-0.171-0.106-0.571-0.195c0,0-0.062-0.051,0.03-0.044c0,0,0.28,0.091,0.528,0.048
						c0,0,0.11-0.018-0.004-0.085c0,0-0.214-0.137-0.531-0.174c0,0-0.057-0.043,0.007-0.048c0,0,0.348,0,0.388-0.017
						c0,0,0.055-0.005,0.021-0.043c0,0-0.142-0.153-0.491-0.204l-0.194-0.02c0,0-0.165-0.056-0.009-0.058
						c0,0,0.285,0.064,0.562,0.006c0,0,0.11-0.043,0.036-0.07C48.337,70.665,47.939,70.53,47.431,70.539z"/>
				</g>
				<g>
					<path fill="#EC4E43" d="M48.316,70.815c0,0,0.153-0.078,0.351,0.01c0,0,0.317,0.121,0.536,0.312c0,0,0.069,0.076-0.035,0.065
						c0,0-0.429-0.023-0.721-0.239c0,0-0.086-0.075-0.143-0.084C48.304,70.88,48.236,70.851,48.316,70.815z"/>
				</g>
				<g>
					<path fill="#EC4E43" d="M48.391,71.118c0,0,0.164-0.055,0.271,0.02c0,0,0.156,0.062,0.222,0.067c0,0,0.122,0.007,0.164,0.095
						c0,0,0.163,0.264,0.034,0.197l-0.398-0.178c0,0-0.191-0.141-0.325-0.17C48.358,71.149,48.33,71.104,48.391,71.118z"/>
				</g>
				<g>
					<path fill="#EC4E43" d="M48.521,71.435c0,0,0.087-0.013,0.094-0.033c0,0,0.059-0.046,0.135-0.006c0,0,0.675,0.289,0.561,0.378
						c0,0-0.081,0.039-0.519-0.122c0,0-0.13-0.02-0.157-0.088c0,0-0.074-0.066-0.121-0.081
						C48.514,71.482,48.48,71.442,48.521,71.435z"/>
				</g>
				<g>
					<path fill="#EC4E43" d="M48.33,71.698l0.29-0.014c0,0,0.103-0.006,0.487,0.109c0,0,0.165,0.019,0.068,0.095
						c0,0-0.236,0.026-0.25,0.046c0,0-0.284,0.043-0.37-0.026l-0.232-0.147C48.323,71.761,48.222,71.698,48.33,71.698z"/>
				</g>
				<g>
					<path fill="#EC4E43" d="M48.845,72.01c0,0,0.323,0.337,0.526,0.938c0,0-0.012,0.096-0.134-0.054c0,0-0.373-0.75-0.528-0.858
						C48.708,72.036,48.62,71.915,48.845,72.01z"/>
				</g>
				<g>
					<path fill="#EC4E43" d="M49.089,71.996c0,0,0.599,0.527,0.639,1.169c0,0,0.028,0.096-0.073,0.02c0,0-0.136-0.047-0.197-0.201
						c0,0-0.067-0.358-0.514-0.939C48.945,72.044,48.853,71.942,49.089,71.996z"/>
				</g>
				<g>
					<path fill="#EC4E43" d="M49.337,71.935c0,0,0.434,0.69,0.495,0.88c0,0,0.081,0.147,0.004,0.263c0,0-0.073,0.143-0.087-0.094
						c0,0-0.082-0.434-0.561-0.968c0,0-0.088-0.081,0.027-0.101C49.215,71.915,49.291,71.882,49.337,71.935z"/>
				</g>
				<g>
					<path fill="#EC4E43" d="M49.649,72.274c0,0,0.243,0.223,0.235,0.303c0,0,0.007,0.317-0.067,0.107
						C49.817,72.685,49.486,72.125,49.649,72.274z"/>
				</g>
				<g>
					<path fill="#EC4E43" d="M49.527,71.849l0.176,0.08c0,0,0.108,0.006,0.122,0.196c0,0,0.128,0.467-0.068,0.202
						c0,0-0.251-0.216-0.279-0.291c0,0-0.18-0.202-0.086-0.202C49.391,71.834,49.474,71.812,49.527,71.849z"/>
				</g>
				<g>
					<path fill="#EC4E43" d="M49.122,71.272c0,0,0.23-0.08,0.383,0.109c0,0,0.245,0.297,0.259,0.439c0,0,0.041,0.121-0.082,0.046
						c0,0-0.284-0.081-0.338-0.201C49.344,71.666,49.081,71.279,49.122,71.272z"/>
				</g>
			</g>
			<g>
				<path fill="#EC4E43" d="M46.791,70.899c0,0,0.055-0.011,0.051-0.051c0,0,0.004-0.062-0.116-0.017c0,0-0.212,0.076-0.212,0.099
					c0,0-0.018,0.028,0.027,0.03L46.791,70.899z"/>
			</g>
			<g>
				<path fill="#EC4E43" d="M46.712,70.981c0,0-0.045,0.105-0.146,0.054c0,0-0.071-0.021-0.071,0.029c0,0-0.012,0.077,0.144,0.06
					c0,0,0.155-0.036,0.125-0.141C46.764,70.983,46.745,70.939,46.712,70.981z"/>
			</g>
			<g>
				<path fill="#EC4E43" d="M46.705,71.229c0,0-0.155-0.088-0.191-0.096c0,0-0.066-0.014-0.076-0.09c0,0-0.005-0.1-0.062-0.103
					c0,0-0.051,0.003-0.06,0.047c0,0-0.02,0.019-0.045,0.015c0,0-0.123-0.037-0.16,0.127c0,0-0.013,0.089,0.105,0.145
					c0,0,0.049,0.041,0.096-0.075c0,0,0.013-0.077,0.097-0.028c0,0,0.132,0.05,0.122,0.056c0,0-0.178-0.052-0.178,0
					c0,0-0.015,0.036,0.075,0.034c0,0,0.247,0.032,0.268,0.025C46.695,71.286,46.759,71.282,46.705,71.229z"/>
			</g>
			<g>
				<path fill="#EC4E43" d="M46.941,70.911c0,0,0.125,0.075,0.152,0.096c0,0,0.082,0.062,0.004,0.079c0,0-0.051,0.001-0.091-0.012
					c0,0-0.09-0.022-0.061,0.046c0,0,0.004,0.025,0.098,0.023c0,0,0.085-0.006,0.088,0.131c0,0-0.007,0.061-0.061,0.031
					c0,0-0.121-0.076-0.114-0.041c0,0-0.017,0.008,0.068,0.068c0,0,0.05,0.025,0.045,0.12c0,0-0.017,0.044-0.08,0.004
					c0,0-0.283-0.226-0.241-0.323c0,0,0.07-0.142,0.111-0.188C46.861,70.945,46.905,70.881,46.941,70.911z"/>
			</g>
			<g>
				<path fill="#EC4E43" d="M46.912,71.782c0.003-0.021,0.033-0.047,0.048-0.038c0.016,0.007,0.025,0.042,0.034,0.056
					c0.02,0.042,0.053,0.06,0.1,0.075c0.099,0.034,0.158,0.11,0.021,0.123c-0.034,0.003-0.08,0.013-0.113,0.004
					c-0.061-0.012-0.051-0.051-0.055-0.104c0-0.034-0.005-0.041-0.021-0.071C46.919,71.814,46.91,71.795,46.912,71.782z"/>
			</g>
			<g>
				<path fill="#EC4E43" d="M46.773,71.828c-0.002,0.036-0.012,0.093-0.002,0.128c0.007,0.02,0.02,0.024,0.029,0.041
					c0.005,0.013,0.002,0.032,0.011,0.041c0.016,0.016,0.063,0.016,0.083,0.004c0.042-0.027,0.017-0.084,0.004-0.118
					c-0.016-0.046-0.012-0.103-0.028-0.142c-0.011-0.025-0.035-0.032-0.059-0.025C46.776,71.769,46.773,71.796,46.773,71.828z"/>
			</g>
			<g>
				<path fill="#EC4E43" d="M46.919,71.433c-0.09-0.066-0.078,0.104-0.087,0.152c-0.007,0.032-0.02,0.078-0.014,0.112
					c0.007,0.025,0.033,0.073,0.071,0.047c0.019-0.013,0.026-0.079,0.036-0.099c0.017-0.029,0.034-0.057,0.042-0.088
					c0.014-0.058-0.008-0.098-0.055-0.13"/>
			</g>
			<g>
				<path fill="#EC4E43" d="M47.234,71.688c0.002,0.002,0.004,0.002,0.007,0.002c0.04,0.006,0.089,0.04,0.127,0.01
					c0.083-0.067-0.171-0.131-0.206-0.141c-0.065-0.017-0.167-0.051-0.187,0.039c-0.007,0.045,0.022,0.067,0.063,0.082
					c0.034,0.012,0.068,0.008,0.102,0.012C47.173,71.694,47.205,71.687,47.234,71.688z"/>
			</g>
			<g>
				<path fill="#EC4E43" d="M47.341,71.557c0.092-0.006-0.028-0.073-0.06-0.085c-0.042-0.018-0.16-0.093-0.174-0.005
					C47.098,71.536,47.291,71.56,47.341,71.557z"/>
			</g>
			<g>
				<path fill="#EC4E43" d="M47.205,71.37c0.024,0.02,0.055,0.03,0.083,0.047c0.034,0.021,0.063,0.053,0.095,0.074
					c0.037,0.024,0.071,0.043,0.106,0.071c0.02,0.015,0.034,0.027,0.061,0.035c0.052,0.016,0.057-0.022,0.03-0.058
					c-0.023-0.03-0.059-0.049-0.084-0.076c-0.036-0.037-0.066-0.072-0.095-0.115c-0.031-0.05-0.166-0.24-0.239-0.187
					C47.12,71.192,47.171,71.343,47.205,71.37z"/>
			</g>
		</g>
	</g>
	<g>
		<path fill="#EC4E43" d="M21.326,88.618c-0.354,0-0.664-0.257-0.719-0.617c-0.098-0.638-2.37-15.735,0.851-25.888
			c0.122-0.382,0.531-0.597,0.915-0.474c0.384,0.121,0.596,0.531,0.475,0.915c-3.117,9.824-0.824,25.071-0.8,25.224
			c0.062,0.398-0.211,0.771-0.609,0.832C21.4,88.615,21.363,88.618,21.326,88.618z"/>
	</g>
	<g>
		<path fill="#EC4E43" d="M74.067,88.618c-0.037,0-0.074-0.003-0.112-0.008c-0.398-0.062-0.671-0.434-0.609-0.832
			c0.023-0.152,2.317-15.399-0.8-25.224c-0.122-0.384,0.091-0.794,0.475-0.915c0.386-0.123,0.793,0.092,0.915,0.474
			c3.221,10.152,0.949,25.25,0.851,25.888C74.73,88.36,74.42,88.618,74.067,88.618z"/>
	</g>
	<g>
		<polygon fill="#EC4E43" points="5.512,75.379 20.737,71.2 20.817,82.812 3.326,87.477 		"/>
	</g>
	<g>
		<polygon fill="#EC4E43" points="90.051,75.379 74.826,71.2 74.747,82.812 92.237,87.477 		"/>
	</g>
	<g>
		<path fill="#EC4E43" d="M76.485,98.335c-0.364,0-0.678-0.271-0.723-0.642c-0.048-0.399,0.237-0.763,0.637-0.811
			c0.073-0.009,7.294-0.887,12.442-2.591c0.384-0.126,0.794,0.081,0.921,0.462c0.126,0.383-0.081,0.795-0.463,0.921
			c-5.29,1.751-12.426,2.619-12.727,2.655C76.543,98.334,76.514,98.335,76.485,98.335z"/>
	</g>
	<g>
		<path fill="#EC4E43" d="M19.026,98.629c-1.692,0-10.085-2.012-12.69-2.646c-0.391-0.095-0.631-0.489-0.536-0.881
			s0.492-0.638,0.88-0.535c5.463,1.331,11.544,2.645,12.328,2.607c0.39-0.043,0.756,0.256,0.797,0.651
			c0.041,0.395-0.232,0.748-0.626,0.796C19.137,98.626,19.085,98.629,19.026,98.629z"/>
	</g>
	<g>
		<path fill="#EC4E43" d="M48.312,43.387c-0.099,0-0.163-0.001-0.185-0.002c-8.543,0-11.182-3.2-11.291-3.336
			c-0.25-0.315-0.198-0.773,0.118-1.023c0.312-0.25,0.768-0.199,1.019,0.111c0.042,0.05,2.44,2.791,10.172,2.791
			c0.078-0.005,6.262,0.108,9.509-3.14c0.284-0.283,0.746-0.283,1.03,0c0.285,0.285,0.285,0.746,0,1.031
			C55.289,43.216,49.446,43.387,48.312,43.387z"/>
	</g>
	<g>
		<path fill="#EC4E43" d="M43.026,131.379c-12.719,0-21.843-2.962-21.978-3.007c-0.382-0.127-0.588-0.539-0.461-0.921
			c0.127-0.383,0.538-0.59,0.921-0.462c0.198,0.065,20.077,6.503,42.029,0.09c2.547-0.569,8.502-1.685,9.811-0.048
			c0.251,0.314,0.2,0.772-0.114,1.024c-0.314,0.251-0.773,0.199-1.024-0.114c-0.47-0.575-4.43-0.313-8.31,0.549
			C56.498,130.653,49.321,131.379,43.026,131.379z"/>
	</g>
	<g>
		<path fill="#EC4E43" d="M27.979,196.409c-5.203,0-9.561-1.719-9.84-1.831c-0.373-0.15-0.554-0.574-0.403-0.947
			c0.15-0.373,0.575-0.556,0.948-0.404c0.1,0.039,10.027,3.944,17.396-0.202c0.352-0.196,0.795-0.072,0.993,0.277
			c0.197,0.351,0.073,0.795-0.278,0.992C33.96,195.889,30.841,196.409,27.979,196.409z"/>
	</g>
	<g>
		<path fill="#EC4E43" d="M61.069,195.263c-0.366,0-0.681-0.274-0.723-0.646c-0.045-0.4,0.242-0.761,0.642-0.807
			c7.015-0.794,14.77-1.998,15.722-2.653c0.232-0.284,0.645-0.353,0.958-0.149c0.338,0.219,0.435,0.67,0.217,1.008
			c-0.625,0.966-6.254,2.058-16.733,3.244C61.124,195.262,61.096,195.263,61.069,195.263z"/>
	</g>
	<g>
		<path fill="#EC4E43" d="M62.187,198.178c-0.334,0-0.635-0.23-0.711-0.57c-0.087-0.393,0.16-0.782,0.553-0.869
			c14.837-3.301,17.393-1.414,17.822-0.757c0.22,0.337,0.125,0.788-0.212,1.009c-0.337,0.22-0.788,0.125-1.009-0.212
			c-0.694-1.062-8.151-0.428-16.285,1.382C62.292,198.173,62.239,198.178,62.187,198.178z"/>
	</g>
	<g>
		<path fill="#EC4E43" d="M63.772,209.034c-0.218,0-0.415-0.008-0.587-0.024c-0.401-0.04-0.693-0.396-0.654-0.797
			c0.04-0.399,0.402-0.683,0.796-0.654c2.632,0.265,12.3-1.939,17.046-3.14c0.39-0.098,0.787,0.139,0.885,0.528
			c0.099,0.391-0.138,0.787-0.528,0.886C80.188,205.97,68.005,209.034,63.772,209.034z"/>
	</g>
	<g>
		<path fill="#EC4E43" d="M33.57,202.064c-0.289,0-0.562-0.172-0.676-0.456c-1.037-2.576-10.069-3.739-15.52-3.867
			c-0.402-0.01-0.721-0.343-0.711-0.745c0.009-0.403,0.346-0.689,0.746-0.712c1.541,0.036,15.105,0.476,16.838,4.779
			c0.15,0.374-0.031,0.798-0.404,0.948C33.753,202.048,33.661,202.064,33.57,202.064z"/>
	</g>
	<g>
		<path fill="#EC4E43" d="M32.259,211.587c-0.06,0-0.121-0.007-0.182-0.022c-5.611-1.438-17.5-4.195-17.62-4.223
			c-0.392-0.091-0.636-0.482-0.545-0.874c0.091-0.393,0.479-0.638,0.875-0.546c0.12,0.027,12.025,2.788,17.653,4.23
			c0.39,0.1,0.625,0.497,0.525,0.887C32.88,211.368,32.583,211.587,32.259,211.587z"/>
	</g>
	<g>
		<path fill="#EC4E43" d="M24.596,252.497c-0.367,0-1.145-0.226-2.546-2.146c-0.046-0.063-0.083-0.135-0.106-0.21
			c-1.52-4.812-7.947-3.092-8.22-3.017c-0.388,0.11-0.79-0.119-0.897-0.508c-0.107-0.388,0.12-0.789,0.507-0.896
			c2.759-0.763,8.356-0.927,9.961,3.863c0.496,0.662,1.116,1.315,1.374,1.449c0.35,0.006,0.654,0.264,0.707,0.621
			c0.06,0.397-0.215,0.769-0.613,0.828C24.721,252.488,24.666,252.497,24.596,252.497z"/>
	</g>
	<g>
		<path fill="#EC4E43" d="M70.009,251.768c-0.392,0-0.715-0.311-0.728-0.705c-0.013-0.401,0.302-0.738,0.705-0.752
			c3.425-0.112,7.488-0.646,8.079-1.311c0.807-0.934,2.866-3.089,4.219-3.062c0.402,0.018,0.715,0.356,0.698,0.759
			c-0.017,0.402-0.362,0.709-0.758,0.698c-0.001,0-0.001,0-0.001,0c-0.441,0-1.898,1.221-3.061,2.565
			c-1.282,1.441-7.31,1.747-9.127,1.807C70.025,251.768,70.017,251.768,70.009,251.768z"/>
	</g>
</g>
</svg>
