<?xml version="1.0" encoding="utf-8"?>
<!-- Generator: Adobe Illustrator 16.0.0, SVG Export Plug-In . SVG Version: 6.00 Build 0)  -->
<!DOCTYPE svg PUBLIC "-//W3C//DTD SVG 1.1//EN" "http://www.w3.org/Graphics/SVG/1.1/DTD/svg11.dtd">
<svg version="1.1" id="Layer_1" xmlns="http://www.w3.org/2000/svg" xmlns:xlink="http://www.w3.org/1999/xlink" x="0px" y="0px"
	 width="1px" height="300px" viewBox="0 0 1 300" enable-background="new 0 0 1 300" xml:space="preserve">
<g>
	<g>
		<rect fill="#FFFFFF" width="1" height="3.781"/>
	</g>
	<g>
		<path fill="#FFFFFF" d="M1,288.721H0v-7.498h1V288.721z M1,273.725H0v-7.499h1V273.725z M1,258.728H0v-7.499h1V258.728z M1,243.73
			H0v-7.498h1V243.73z M1,228.734H0v-7.499h1V228.734z M1,213.736H0v-7.498h1V213.736z M1,198.74H0v-7.498h1V198.74z M1,183.744H0
			v-7.499h1V183.744z M1,168.746H0v-7.498h1V168.746z M1,153.75H0v-7.498h1V153.75z M1,138.753H0v-7.498h1V138.753z M1,123.756H0
			v-7.498h1V123.756z M1,108.76H0v-7.498h1V108.76z M1,93.763H0v-7.499h1V93.763z M1,78.766H0v-7.498h1V78.766z M1,63.77H0v-7.499h1
			V63.77z M1,48.771H0v-7.498h1V48.771z M1,33.775H0v-7.498h1V33.775z M1,18.779H0V11.28h1V18.779z"/>
	</g>
	<g>
		<rect y="296.219" fill="#FFFFFF" width="1" height="3.781"/>
	</g>
</g>
</svg>
