<?xml version="1.0" encoding="utf-8"?>
<!-- Generator: Adobe Illustrator 16.0.0, SVG Export Plug-In . SVG Version: 6.00 Build 0)  -->
<!DOCTYPE svg PUBLIC "-//W3C//DTD SVG 1.1//EN" "http://www.w3.org/Graphics/SVG/1.1/DTD/svg11.dtd">
<svg version="1.1" id="Layer_1" xmlns="http://www.w3.org/2000/svg" xmlns:xlink="http://www.w3.org/1999/xlink" x="0px" y="0px"
	 width="185px" height="42.353px" viewBox="0 0 185 42.353" enable-background="new 0 0 185 42.353" xml:space="preserve">
<g>
	<g>
		<path fill="#00AEEF" d="M147.184,41.366c-0.419,0.917-0.046,1.256,0.827,0.754l35.554-20.745c0.867-0.514,0.871-1.361,0.008-1.883
			L151.7,0.177c-0.864-0.522-1.604,0.205-0.917,0.944l17.107,18.011c0.688,0.739,0.424,1.33-0.585,1.329h-8.731
			c-1.008-0.002-2.176,0.749-2.596,1.666L147.184,41.366z"/>
		<path fill="#FFFFFF" d="M166.709,28.721c-1.065,0-1.927-0.864-1.927-1.928c0-1.066,0.862-1.925,1.927-1.925
			c1.064,0,1.926,0.859,1.926,1.925C168.635,27.857,167.773,28.721,166.709,28.721 M166.709,25.304
			c-0.829,0-1.464,0.637-1.464,1.489c0,0.858,0.635,1.506,1.464,1.506c0.828,0,1.466-0.647,1.466-1.506
			C168.175,25.94,167.537,25.304,166.709,25.304 M167.055,27.821l-0.365-0.793h-0.23v0.793h-0.456v-2.045h0.839
			c0.413,0,0.684,0.304,0.684,0.636c0,0.281-0.176,0.462-0.38,0.551l0.424,0.858H167.055z M166.788,26.144h-0.328v0.535h0.328
			c0.17,0,0.282-0.123,0.282-0.267C167.07,26.269,166.958,26.144,166.788,26.144"/>
		<polygon fill="#FFFFFF" points="54.543,12.198 58.037,22.073 61.606,12.198 65.684,12.198 59.739,28.721 56.396,28.721 
			52.572,18.048 48.745,28.721 45.367,28.721 39.42,12.198 43.532,12.198 47.042,22.073 50.48,12.198 		"/>
		<path fill="#FFFFFF" d="M38.272,13.692c-1.056-0.995-2.324-1.494-3.826-1.494H25.62c-1.5,0-2.774,0.5-3.823,1.494
			c-1.054,0.999-1.575,2.242-1.575,3.738v6.061c0,1.499,0.521,2.743,1.575,3.739c1.049,0.994,2.323,1.491,3.823,1.491h8.826
			c1.502,0,2.77-0.497,3.826-1.491c1.052-0.996,1.576-2.24,1.576-3.739V17.43C39.848,15.935,39.324,14.691,38.272,13.692
			 M35.988,23.488c0,0.917-0.511,1.379-1.542,1.379H25.62c-1.024,0-1.545-0.462-1.545-1.379v-6.052c0-0.919,0.521-1.384,1.545-1.384
			h8.826c1.032,0,1.542,0.465,1.542,1.384V23.488z"/>
		<path fill="#FFFFFF" d="M14.555,12.199H0v16.522h3.848V16.046h10.707c0.559,0,0.833,0.578,0.833,1.732
			c0,1.131-0.273,1.696-0.833,1.696H4.892l3.824,3.856h5.839c1.437,0,2.591-0.594,3.467-1.766c0.812-1.052,1.216-2.307,1.216-3.787
			c0-1.48-0.404-2.749-1.216-3.818C17.146,12.786,15.992,12.199,14.555,12.199"/>
		<path fill="#FFFFFF" d="M123.886,13.707c-0.868-1.002-2.002-1.51-3.389-1.51h-10.056c-1.369,0-2.488,0.507-3.354,1.51
			c-0.871,1.005-1.301,2.205-1.301,3.596v11.418h3.856v-5.239h11.687v5.239h3.857V17.303
			C125.188,15.912,124.754,14.712,123.886,13.707 M121.33,19.625h-11.687v-2.317c0-0.833,0.268-1.255,0.798-1.255h10.056
			c0.552,0,0.833,0.423,0.833,1.257V19.625z"/>
		<polygon fill="#FFFFFF" points="162.9,16.052 162.9,12.198 146.132,12.198 146.132,28.721 162.864,28.721 162.864,24.868 
			149.995,24.868 149.995,22.392 161.998,22.392 161.998,18.532 149.995,18.532 149.995,16.052 		"/>
		<path fill="#FFFFFF" d="M143.24,13.692c-1.036-0.995-2.306-1.494-3.804-1.494h-12.763v16.523h12.763
			c1.498,0,2.768-0.497,3.804-1.491c1.041-0.996,1.562-2.24,1.562-3.739V17.43C144.802,15.935,144.281,14.691,143.24,13.692
			 M140.945,23.488c0,0.917-0.498,1.379-1.48,1.379h-8.938v-8.816h8.938c0.982,0,1.48,0.465,1.48,1.384V23.488z"/>
		<polygon fill="#FFFFFF" points="66.47,28.721 83.206,28.721 83.206,24.868 70.326,24.868 70.326,22.392 82.339,22.392 
			82.339,18.532 70.326,18.532 70.326,16.052 83.234,16.052 83.234,12.198 66.47,12.198 		"/>
		<path fill="#FFFFFF" d="M100,12.198H84.847v16.523h3.855V16.052h11.077c0.704,0,1.055,0.573,1.055,1.708
			c0,1.137-0.351,1.707-1.055,1.707h-9.938l8.26,9.255h5.278l-4.858-5.399H100c1.477,0,2.646-0.579,3.506-1.738
			c0.793-1.047,1.189-2.322,1.189-3.824c0-1.5-0.396-2.775-1.189-3.824C102.646,12.778,101.477,12.198,100,12.198"/>
	</g>
	<path fill="#29B3E8" d="M183.725,23.287h-0.226v0.371h0.226c0.119,0,0.193-0.086,0.193-0.186
		C183.918,23.374,183.844,23.287,183.725,23.287 M183.909,24.444l-0.252-0.547h-0.158v0.547h-0.313v-1.413h0.577
		c0.285,0,0.472,0.21,0.472,0.439c0,0.195-0.122,0.32-0.261,0.381l0.292,0.592H183.909z M183.671,22.708
		c-0.574,0-1.012,0.439-1.012,1.027c0,0.595,0.438,1.04,1.012,1.04c0.571,0,1.013-0.445,1.013-1.04
		C184.684,23.146,184.242,22.708,183.671,22.708 M183.671,25.065c-0.734,0-1.334-0.595-1.334-1.331c0-0.735,0.6-1.33,1.334-1.33
		c0.735,0,1.329,0.595,1.329,1.33C185,24.47,184.406,25.065,183.671,25.065"/>
</g>
</svg>
