<?xml version="1.0" encoding="utf-8"?>
<!-- Generator: Adobe Illustrator 16.0.0, SVG Export Plug-In . SVG Version: 6.00 Build 0)  -->
<!DOCTYPE svg PUBLIC "-//W3C//DTD SVG 1.1//EN" "http://www.w3.org/Graphics/SVG/1.1/DTD/svg11.dtd">
<svg version="1.1" id="Layer_1" xmlns="http://www.w3.org/2000/svg" xmlns:xlink="http://www.w3.org/1999/xlink" x="0px" y="0px"
	 width="1840px" height="86.05px" viewBox="0 0 1840 86.05" enable-background="new 0 0 1840 86.05" xml:space="preserve">
<g>
	<polygon fill="#FFFFFF" points="827.29,86.05 817.546,44.291 810,15.995 802.358,44.651 686.612,44.651 681.35,11.01 
		675.947,65.22 675.019,65.22 669.679,11.632 664.004,59.384 658.28,20.476 652.468,78.797 646.554,29.022 640.788,58.874 
		635.209,11.921 629.447,79.085 623.559,29.533 617.794,68.712 612.121,20.962 606.358,78.798 600.445,29.023 594.681,58.874 
		589.102,11.921 583.339,79.086 577.453,29.534 571.651,68.984 565.977,12.041 560.431,67.679 554.534,46.676 548.579,77.532 
		542.817,29.024 537.055,58.875 531.338,10.759 526.036,44.651 306.963,44.651 297.978,6.138 288.12,44.301 276.688,84.834 
		264.325,44.651 0,44.651 0,43.718 265.013,43.718 276.648,81.535 287.219,44.058 298.023,2.23 307.704,43.718 525.238,43.718 
		531.464,3.916 537.274,52.816 543.037,22.964 548.798,71.472 554.365,42.625 559.993,62.668 565.513,7.291 566.441,7.291 
		571.829,61.363 577.552,22.454 583.19,69.918 588.952,2.754 594.901,52.816 600.665,22.965 606.277,70.206 612.04,12.37 
		617.893,61.635 623.658,22.456 629.297,69.918 635.06,2.754 641.008,52.817 646.773,22.966 652.387,70.207 658.102,12.856 
		663.905,52.306 669.76,3.042 675.483,60.47 681.145,3.664 687.411,43.718 801.642,43.718 810,12.375 818.451,44.064 
		827.377,82.319 838.314,43.718 1086.3,43.718 1092,20.205 1097.786,44.075 1103.345,71.868 1109.289,43.718 1230.862,43.718 
		1238.971,75.676 1246.044,44.083 1257.454,0 1271.341,43.718 1840,43.718 1840,44.651 1270.658,44.651 1257.546,3.369 
		1246.951,44.301 1239.028,79.693 1230.137,44.651 1110.045,44.651 1103.321,76.501 1096.875,44.276 1092,24.164 1087.033,44.651 
		839.02,44.651 	"/>
</g>
</svg>
